<svg width="32" height="33" viewBox="0 0 32 33" fill="none" xmlns="http://www.w3.org/2000/svg">
<rect width="32" height="33" fill="#F5F5F5"/>
<g clip-path="url(#clip0_1_80)">
<rect width="2000" height="2370" transform="translate(-1673 -1457)" fill="white"/>
<mask id="path-1-inside-1_1_80" fill="white">
<path d="M-1673 -797.002H327V90.9982H-1673V-797.002Z"/>
</mask>
<path d="M327 89.9982H-1673V91.9982H327V89.9982Z" fill="#D1D1D1" mask="url(#path-1-inside-1_1_80)"/>
<path d="M23.928 15.7109L9.8405 4.70779C9.80369 4.67881 9.75945 4.6608 9.71287 4.65583C9.66628 4.65085 9.61924 4.65912 9.57714 4.67968C9.53504 4.70024 9.4996 4.73226 9.47488 4.77205C9.45016 4.81185 9.43716 4.85781 9.43738 4.90466V7.32029C9.43738 7.47341 9.50926 7.62029 9.62801 7.71404L20.878 16.4984L9.62801 25.2828C9.50613 25.3765 9.43738 25.5234 9.43738 25.6765V28.0922C9.43738 28.3015 9.678 28.4172 9.8405 28.289L23.928 17.2859C24.0477 17.1925 24.1446 17.073 24.2112 16.9366C24.2778 16.8001 24.3124 16.6503 24.3124 16.4984C24.3124 16.3466 24.2778 16.1967 24.2112 16.0602C24.1446 15.9238 24.0477 15.8043 23.928 15.7109Z" fill="#777777"/>
</g>
<defs>
<clipPath id="clip0_1_80">
<rect width="2000" height="2370" fill="white" transform="translate(-1673 -1457)"/>
</clipPath>
</defs>
</svg>
