<svg width="24" height="24" viewBox="-2.5 -2.5 24 24" fill="none" xmlns="http://www.w3.org/2000/svg">
<g id="Outlined/Email">
<g id="Union">
<path d="M5.06466 6.02687C4.78659 5.85307 4.42028 5.93761 4.24648 6.21568C4.07268 6.49376 4.15722 6.86007 4.43529 7.03387L9.18529 10.0026C9.37783 10.123 9.62213 10.123 9.81466 10.0026L14.5647 7.03387C14.8428 6.86007 14.9273 6.49376 14.7535 6.21568C14.5797 5.93761 14.2134 5.85307 13.9353 6.02687L9.49998 8.79894L5.06466 6.02687Z" fill="#5F5F5F"/>
<path d="M6.8875 9.61787C7.14984 9.81462 7.203 10.1868 7.00625 10.4491L5.225 12.8241C5.02825 13.0865 4.65609 13.1396 4.39375 12.9429C4.13141 12.7461 4.07825 12.374 4.275 12.1116L6.05625 9.73662C6.253 9.47428 6.62516 9.42112 6.8875 9.61787Z" fill="#5F5F5F"/>
<path d="M11.9938 10.4491C11.797 10.1868 11.8502 9.81462 12.1125 9.61787C12.3748 9.42112 12.747 9.47428 12.9437 9.73662L14.725 12.1116C14.9218 12.374 14.8686 12.7461 14.6062 12.9429C14.3439 13.1396 13.9718 13.0865 13.775 12.8241L11.9938 10.4491Z" fill="#5F5F5F"/>
<path fill-rule="evenodd" clip-rule="evenodd" d="M4.15625 3.56162C2.84457 3.56162 1.78125 4.62494 1.78125 5.93662V13.0616C1.78125 14.3733 2.84457 15.4366 4.15625 15.4366H14.8438C16.1554 15.4366 17.2188 14.3733 17.2188 13.0616V5.93662C17.2188 4.62494 16.1554 3.56162 14.8438 3.56162H4.15625ZM2.96875 5.93662C2.96875 5.28078 3.50041 4.74912 4.15625 4.74912H14.8438C15.4996 4.74912 16.0312 5.28078 16.0312 5.93662V13.0616C16.0312 13.7175 15.4996 14.2491 14.8438 14.2491H4.15625C3.50041 14.2491 2.96875 13.7175 2.96875 13.0616V5.93662Z" fill="#5F5F5F"/>
</g>
</g>
</svg>
