<svg width="24" height="16" viewBox="-3.5 0 24 16" fill="none" xmlns="http://www.w3.org/2000/svg">
<g id="Eye" opacity="0.6">
<g id="Octicons">
<g id="eye">
<path id="Shape" fill-rule="evenodd" clip-rule="evenodd" d="M8.39996 2.99829C4.18329 2.99829 1.68329 7.99829 1.68329 7.99829C1.68329 7.99829 4.18329 12.9983 8.39996 12.9983C12.5166 12.9983 15.0166 7.99829 15.0166 7.99829C15.0166 7.99829 12.5166 2.99829 8.39996 2.99829ZM8.34996 11.3316C6.51662 11.3316 5.01662 9.84829 5.01662 7.99829C5.01662 6.16496 6.51662 4.66496 8.34996 4.66496C10.2 4.66496 11.6833 6.16496 11.6833 7.99829C11.6833 9.84829 10.2 11.3316 8.34996 11.3316ZM10.0166 7.99829C10.0166 8.92329 9.27496 9.66496 8.34996 9.66496C7.42495 9.66496 6.68329 8.92329 6.68329 7.99829C6.68329 7.07329 7.42495 6.33162 8.34996 6.33162C9.27496 6.33162 10.0166 7.07329 10.0166 7.99829Z" fill="black"/>
</g>
</g>
</g>
</svg>
