<svg width="24" height="24" viewBox="-4 -4 24 24" fill="none" xmlns="http://www.w3.org/2000/svg">
<path d="M7.25012 7.99829C7.25012 8.1972 7.32914 8.38797 7.46979 8.52862C7.61044 8.66927 7.80121 8.74829 8.00012 8.74829C8.19903 8.74829 8.3898 8.66927 8.53045 8.52862C8.6711 8.38797 8.75012 8.1972 8.75012 7.99829C8.75012 7.79938 8.6711 7.60861 8.53045 7.46796C8.3898 7.32731 8.19903 7.24829 8.00012 7.24829C7.80121 7.24829 7.61044 7.32731 7.46979 7.46796C7.32914 7.60861 7.25012 7.79938 7.25012 7.99829ZM10.3751 7.99829C10.3751 8.1972 10.4541 8.38797 10.5948 8.52862C10.7354 8.66927 10.9262 8.74829 11.1251 8.74829C11.324 8.74829 11.5148 8.66927 11.6554 8.52862C11.7961 8.38797 11.8751 8.1972 11.8751 7.99829C11.8751 7.79938 11.7961 7.60861 11.6554 7.46796C11.5148 7.32731 11.324 7.24829 11.1251 7.24829C10.9262 7.24829 10.7354 7.32731 10.5948 7.46796C10.4541 7.60861 10.3751 7.79938 10.3751 7.99829ZM4.12512 7.99829C4.12512 8.1972 4.20414 8.38797 4.34479 8.52862C4.48544 8.66927 4.67621 8.74829 4.87512 8.74829C5.07403 8.74829 5.2648 8.66927 5.40545 8.52862C5.5461 8.38797 5.62512 8.1972 5.62512 7.99829C5.62512 7.79938 5.5461 7.60861 5.40545 7.46796C5.2648 7.32731 5.07403 7.24829 4.87512 7.24829C4.67621 7.24829 4.48544 7.32731 4.34479 7.46796C4.20414 7.60861 4.12512 7.79938 4.12512 7.99829ZM14.4564 5.28579C14.1032 4.44673 13.597 3.6936 12.9517 3.04673C12.3109 2.4036 11.5502 1.89239 10.7126 1.54204C9.85324 1.1811 8.94074 0.998291 8.00012 0.998291H7.96887C7.02199 1.00298 6.10481 1.19048 5.24231 1.55923C4.41193 1.91317 3.65834 2.42529 3.02356 3.06704C2.38449 3.71235 1.88293 4.46235 1.53606 5.29829C1.17668 6.16392 0.995432 7.08423 1.00012 8.0311C1.00542 9.11621 1.26214 10.1853 1.75012 11.1545V13.5295C1.75012 13.7202 1.82584 13.903 1.96064 14.0378C2.09543 14.1726 2.27824 14.2483 2.46887 14.2483H4.84543C5.81464 14.7363 6.88376 14.993 7.96887 14.9983H8.00168C8.93762 14.9983 9.84543 14.817 10.7001 14.4624C11.5334 14.1162 12.2913 13.6109 12.9314 12.9749C13.5767 12.3358 14.0845 11.5889 14.4392 10.7561C14.8079 9.8936 14.9954 8.97642 15.0001 8.02954C15.0048 7.07798 14.8204 6.15454 14.4564 5.28579ZM12.0954 12.1295C11.0001 13.2139 9.54699 13.8108 8.00012 13.8108H7.97356C7.03137 13.8061 6.09543 13.5717 5.26887 13.1311L5.13762 13.0608H2.93762V10.8608L2.86731 10.7295C2.42668 9.90298 2.19231 8.96704 2.18762 8.02485C2.18137 6.46704 2.77668 5.00454 3.86887 3.90298C4.95949 2.80142 6.41731 2.19204 7.97512 2.18579H8.00168C8.78293 2.18579 9.54074 2.33735 10.2548 2.63735C10.9517 2.92954 11.5767 3.34985 12.1142 3.88735C12.6501 4.42329 13.072 5.04985 13.3642 5.74673C13.6673 6.4686 13.8189 7.23423 13.8157 8.02485C13.8064 9.5811 13.1954 11.0389 12.0954 12.1295Z" fill="#777777"/>
</svg>
