<svg width="19" height="24" viewBox="0 0 19 24" fill="none" xmlns="http://www.w3.org/2000/svg">
<g id="Group">
<path id="Vector" d="M11.9175 23.9944H0.413515C0.205706 23.9944 0.0371094 23.8258 0.0371094 23.618V0.374697C0.0371094 0.166888 0.205706 -0.00170898 0.413515 -0.00170898H17.6734C17.7754 -0.00170898 17.8695 0.0374998 17.9401 0.108077C18.0106 0.178653 18.0499 0.276674 18.0499 0.374697L17.9832 17.866C17.9832 17.964 17.944 18.0581 17.8734 18.1287L12.1881 23.8807C12.1175 23.9512 12.0195 23.9944 11.9214 23.9944H11.9175ZM0.789927 23.2376H11.7607L17.2265 17.7091L17.2892 0.751115H0.786002V23.2376H0.789927Z" fill="#7F0000"/>
<path id="Vector_2" d="M11.9174 23.9943C11.8704 23.9943 11.8194 23.9865 11.7724 23.9669C11.6312 23.9081 11.5371 23.7708 11.5371 23.6179V20.7556C11.5371 18.4972 12.533 17.4895 14.764 17.4895H17.5989C17.7518 17.4895 17.889 17.5797 17.9478 17.7208C18.0066 17.862 17.9753 18.0227 17.8694 18.1325L12.1841 23.8845C12.1135 23.959 12.0155 23.9982 11.9174 23.9982V23.9943ZM14.768 18.2423C12.9643 18.2423 12.2939 18.9206 12.2939 20.7517V22.6965L16.6971 18.2423H14.764H14.768Z" fill="#7F0000"/>
<path id="Vector_3" d="M17.6337 0.378662H0.448242V6.18948H17.6337V0.378662Z" fill="#7F0000"/>
<path id="Vector_4" d="M5.58545 4.93084H4.93457V4.35446H5.58545V4.93084ZM6.90288 3.73104V4.93084H6.252V1.62941H7.55767C7.93016 1.62941 8.22423 1.73136 8.4438 1.92348C8.65553 2.11561 8.76532 2.36655 8.76532 2.68807C8.76532 3.00958 8.65553 3.2566 8.4438 3.44873C8.22423 3.63301 7.93016 3.73104 7.55767 3.73104H6.9068H6.90288ZM6.90288 3.22131H7.55375C7.73804 3.22131 7.86742 3.17818 7.96545 3.07231C8.05955 2.97429 8.10268 2.84098 8.10268 2.68807C8.10268 2.53515 8.05955 2.39792 7.96545 2.29598C7.87919 2.19011 7.73804 2.13913 7.55375 2.13913H6.90288V3.21738V3.22131ZM9.23975 4.93084V1.62941H10.3611C10.765 1.62941 11.0943 1.76272 11.3492 2.02151C11.6041 2.27245 11.7374 2.60572 11.7374 3.0135V3.55459C11.7374 3.96237 11.6041 4.29565 11.3492 4.54658C11.0943 4.80537 10.7611 4.93084 10.3611 4.93084H9.23975ZM9.89847 2.13913V4.4172H10.3298C10.565 4.4172 10.7454 4.33485 10.8787 4.17802C11.012 4.01726 11.0747 3.80945 11.0747 3.55067V3.00174C11.0747 2.74296 11.0081 2.53515 10.8787 2.37831C10.7454 2.21363 10.565 2.13522 10.3298 2.13522H9.89847V2.13913ZM14.2742 3.55852H12.9019V4.92692H12.251V1.62549H14.5016V2.13522H12.9019V3.04487H14.2742V3.55459V3.55852Z" fill="#FEFEFE"/>
<path id="Vector_5" d="M12.1526 14.6156C11.788 14.6156 11.341 14.6666 10.8195 14.7646C10.0942 13.9804 9.33741 12.8473 8.80416 11.7298C9.33349 9.47135 9.06687 9.15375 8.94924 9.00475C8.82377 8.844 8.64733 8.5813 8.45128 8.5813C8.36502 8.5813 8.13761 8.61658 8.04742 8.64795C7.81217 8.73029 7.69454 8.90673 7.59259 9.13806C7.31421 9.80462 7.70238 10.9299 8.09055 11.8043C7.75335 13.1649 7.18874 14.7881 6.58884 16.1134C5.08712 16.8074 4.28726 17.4897 4.2206 18.1405C4.19315 18.3758 4.25197 18.7247 4.65974 19.0345C4.76953 19.1247 4.90284 19.1678 5.04007 19.1678C5.39296 19.1678 5.73799 18.9012 6.14577 18.3248C6.43984 17.9013 6.76136 17.3328 7.09072 16.6231C8.15329 16.1565 9.4668 15.7291 10.5921 15.49C11.2155 16.0977 11.7801 16.4075 12.2624 16.4075C12.6153 16.4075 12.9211 16.2428 13.1407 15.9252C13.3681 15.6076 13.4191 15.3096 13.2936 15.0665C13.1407 14.7646 12.7643 14.6156 12.1448 14.6156H12.1526ZM5.05183 18.4934C4.86755 18.3444 4.87539 18.2503 4.88323 18.2111C4.90676 17.9876 5.2518 17.5955 6.09872 17.1172C5.45569 18.317 5.11065 18.4699 5.05183 18.4934ZM8.30621 9.30667C8.32973 9.29883 8.72575 9.74973 8.34934 10.5966C7.77688 10.0124 8.267 9.32236 8.30621 9.30667ZM7.49065 15.7252C7.88667 14.7646 8.267 13.6903 8.54538 12.6983C8.99237 13.506 9.52561 14.2902 10.0628 14.9175C9.21978 15.1175 8.31797 15.4076 7.49065 15.7252ZM12.6075 15.5409C12.482 15.7135 12.2193 15.7135 12.1252 15.7135C11.9135 15.7135 11.839 15.588 11.5174 15.3371C11.7801 15.3096 12.0311 15.3018 12.235 15.3018C12.5879 15.3018 12.6467 15.3527 12.6976 15.3763C12.6898 15.4037 12.6663 15.4586 12.6114 15.5449L12.6075 15.5409Z" fill="#7F0000"/>
</g>
</svg>
