<svg width="24" height="24" viewBox="-2.5 -2.5 24 24" fill="none" xmlns="http://www.w3.org/2000/svg">
<g id="Outlined/Phone-1">
<path id="Vector 148 (Stroke)" fill-rule="evenodd" clip-rule="evenodd" d="M5.54919 2.30039C6.30684 1.91237 7.18496 2.1753 7.66693 2.80989L8.69736 4.16659C9.35255 5.02925 9.26997 6.24323 8.50399 7.00921C8.42872 7.08448 8.42872 7.20651 8.50399 7.28178L11.7155 10.4933C11.7908 10.5686 11.9128 10.5686 11.9881 10.4933C12.7541 9.72735 13.9681 9.64476 14.8307 10.3L16.1928 11.3345C16.8233 11.8133 17.0893 12.6863 16.7022 13.4428C16.5127 13.8131 16.2585 14.2631 15.9571 14.679C14.7521 16.3413 12.4825 16.4628 10.9013 15.3548C9.84468 14.6143 8.50097 13.5383 6.98001 12.0173C5.45891 10.4962 4.38277 9.15238 3.6423 8.09568C2.53521 6.51578 2.65753 4.24423 4.31835 3.04025C4.72486 2.74556 5.17664 2.49118 5.54919 2.30039ZM6.72126 3.52813C6.55399 3.30789 6.28827 3.25605 6.0905 3.35734C5.74619 3.53367 5.35341 3.7566 5.01534 4.00169C3.97562 4.75542 3.80776 6.2625 4.6148 7.41421C5.31629 8.41529 6.34813 9.70604 7.8197 11.1776C9.29114 12.6491 10.5818 13.6808 11.5828 14.3823C12.736 15.1904 14.241 15.023 14.9956 13.982C15.2485 13.6331 15.4714 13.2412 15.6451 12.9018C15.7441 12.7084 15.6939 12.4467 15.4746 12.2801L14.1125 11.2456C13.7226 10.9495 13.174 10.9868 12.8278 11.333C12.2888 11.872 11.4149 11.872 10.8758 11.333L7.6643 8.12147C7.12529 7.58246 7.12529 6.70854 7.6643 6.16952C8.01048 5.82335 8.0478 5.2747 7.75169 4.88483L6.72126 3.52813Z" fill="black"/>
</g>
</svg>
