<svg width="36" height="32" viewBox="0 0 36 32" fill="none" xmlns="http://www.w3.org/2000/svg">
<path id="&#226;&#128;&#156;" d="M11.1407 -0.00170898C3.55556 7.34644 0 15.1687 0 22.1612C0 27.8501 4.26667 31.9983 8.53333 31.9983C12.3259 31.9983 15.4074 28.9168 15.4074 25.1242C15.4074 20.265 11.8519 17.7761 6.63704 17.7761C6.63704 11.9687 8.41482 8.53162 13.9852 2.84273L11.1407 -0.00170898ZM30.9333 -0.00170898C23.3482 7.34644 19.7926 15.1687 19.7926 22.1612C19.7926 27.8501 24.0593 31.9983 28.3259 31.9983C32.1185 31.9983 35.2 28.9168 35.2 25.1242C35.2 20.265 31.6444 17.7761 26.4296 17.7761C26.4296 11.9687 28.2074 8.53162 33.7778 2.84273L30.9333 -0.00170898Z" fill="#7F0000"/>
</svg>
