<svg width="24" height="24" viewBox="0 0 24 24" fill="none" xmlns="http://www.w3.org/2000/svg">
<g id="fe:search">
<path id="Vector" fill-rule="evenodd" clip-rule="evenodd" d="M16.325 14.8972L21.705 20.2772C21.8941 20.4665 22.0003 20.7231 22.0002 20.9906C22.0001 21.2581 21.8937 21.5146 21.7045 21.7037C21.5153 21.8928 21.2587 21.999 20.9912 21.9989C20.7236 21.9988 20.4671 21.8925 20.278 21.7032L14.898 16.3232C13.2897 17.5689 11.2673 18.1551 9.24214 17.9626C7.21699 17.7701 5.34124 16.8133 3.99649 15.2868C2.65174 13.7604 1.939 11.779 2.00326 9.74578C2.06753 7.71251 2.90396 5.78009 4.34242 4.34164C5.78087 2.90318 7.71329 2.06675 9.74656 2.00249C11.7798 1.93822 13.7612 2.65097 15.2876 3.99572C16.814 5.34047 17.7708 7.21621 17.9634 9.24136C18.1559 11.2665 17.5697 13.2889 16.324 14.8972H16.325ZM10 15.9982C11.5913 15.9982 13.1174 15.3661 14.2427 14.2409C15.3679 13.1157 16 11.5895 16 9.99823C16 8.40693 15.3679 6.88081 14.2427 5.75559C13.1174 4.63037 11.5913 3.99823 10 3.99823C8.40871 3.99823 6.88259 4.63037 5.75737 5.75559C4.63215 6.88081 4.00001 8.40693 4.00001 9.99823C4.00001 11.5895 4.63215 13.1157 5.75737 14.2409C6.88259 15.3661 8.40871 15.9982 10 15.9982Z" fill="#7F0000"/>
</g>
</svg>
