<svg width="90" height="90" viewBox="0 0 90 90" fill="none" xmlns="http://www.w3.org/2000/svg">
<g id="_&#208;&#160;&#208;&#142;&#208;&#160;&#194;&#187;&#208;&#160;&#209;&#149;&#208;&#160;&#226;&#132;&#150;_1">
<path id="Vector" d="M47.0389 89.9945H42.9903C42.6884 89.9307 42.379 89.9514 42.0752 89.9326C40.8057 89.852 39.5436 89.7076 38.2854 89.5219C36.1945 89.2125 34.1374 88.7493 32.1141 88.1455C28.733 87.1366 25.517 85.7433 22.4605 83.9787C19.5089 82.2741 16.7879 80.2544 14.2939 77.931C12.3868 76.1551 10.6504 74.2217 9.08081 72.1402C6.31862 68.4741 4.16212 64.4836 2.61882 60.1611C1.63621 57.412 0.933006 54.5935 0.496081 51.7056C0.246678 50.046 0.070408 48.3808 0.0272781 46.7062C-0.0121014 45.1572 -0.0233527 43.6064 0.0947857 42.0555C0.182921 40.8985 0.295434 39.7471 0.456702 38.5995C0.760486 36.4392 1.22554 34.3145 1.84623 32.2255C3.7327 25.8796 6.86618 20.222 11.2279 15.2469C12.8612 13.3829 14.6483 11.6765 16.5704 10.1106C20.0883 7.24523 23.9512 4.96305 28.1555 3.26407C31.6209 1.86326 35.2063 0.914382 38.9117 0.409939C40.3725 0.211162 41.8408 0.061142 43.3128 0.0255122C45.0793 -0.0157433 46.8476 -0.0251196 48.6122 0.139903C49.6548 0.237416 50.6937 0.348056 51.7307 0.499951C53.8215 0.807492 55.8786 1.27068 57.902 1.87451C61.2905 2.88527 64.514 4.28046 67.5762 6.04882C70.5278 7.7553 73.2468 9.77495 75.7409 12.0984C77.3161 13.5667 78.775 15.1457 80.1251 16.8259C82.1879 19.395 83.9468 22.1591 85.4039 25.1126C86.994 28.3381 88.181 31.706 88.9593 35.2165C89.4581 37.4687 89.7956 39.7434 89.9362 42.0499C89.955 42.3631 89.94 42.6781 90 42.9894V47.0381C89.9906 47.1037 89.9738 47.1712 89.9738 47.2369C89.9587 48.1051 89.8725 48.9696 89.7806 49.8322C89.6362 51.1711 89.4299 52.4988 89.1674 53.8209C88.3761 57.802 87.069 61.6069 85.2463 65.2337C83.3674 68.971 81.014 72.3821 78.1824 75.465C76.476 77.3253 74.627 79.028 72.6355 80.577C69.1983 83.2455 65.4535 85.3739 61.3974 86.9528C57.0788 88.6349 52.6083 89.6401 47.9784 89.9345C47.6671 89.9551 47.3502 89.9345 47.0407 89.9982L47.0389 89.9945ZM45.0699 11.2358C35.7932 11.3895 27.8029 14.5718 21.2434 21.0846C14.6221 27.6574 11.4211 35.7172 11.2504 45.0147C11.3367 63.7747 26.3684 78.8067 45.0793 78.7598C63.6139 78.7148 78.6118 63.9379 78.7337 45.0484C78.5762 36.2123 75.7296 28.3962 69.6314 21.9416C62.9801 14.8981 54.7122 11.4064 45.068 11.2358H45.0699ZM2.30004 45.176C2.33191 45.9673 2.27191 46.9462 2.33754 47.9251C2.3863 48.6396 2.45568 49.354 2.53819 50.0629C2.69946 51.4337 2.96574 52.7914 3.22077 54.1472C3.44204 55.3154 3.82083 56.4462 4.13024 57.5939C4.32902 58.329 4.65905 59.0247 4.87658 59.7523C5.11473 60.5455 5.50665 61.2731 5.77481 62.0514C5.99421 62.6927 6.34675 63.2815 6.63365 63.8966C6.99369 64.6748 7.41562 65.4249 7.84317 66.1694C8.30259 66.9683 8.79953 67.7465 9.27958 68.5341C9.30583 68.5791 9.32833 68.6391 9.38834 68.6335C9.53086 68.6204 9.69963 68.2153 9.61899 68.0897C8.38323 66.1957 7.31623 64.2098 6.39738 62.1451C5.71105 60.5999 5.12036 59.0209 4.62905 57.4026C3.95772 55.1842 3.45517 52.932 3.15326 50.6311C2.98824 49.3728 2.88323 48.1107 2.81197 46.8449C2.77259 46.1605 2.79884 45.4723 2.80634 44.7859C2.81384 44.1652 2.80072 43.5445 2.8401 42.9238C2.87573 42.3725 2.89823 41.8193 2.95074 41.2698C3.04637 40.2609 3.17576 39.2558 3.3389 38.2544C3.65582 36.306 4.11712 34.3914 4.70031 32.5086C5.26475 30.6859 5.95295 28.91 6.76867 27.1867C7.56563 25.5027 8.45074 23.8675 9.4671 22.3035C10.2172 21.1502 11.0104 20.0307 11.8617 18.9506C12.6062 18.0054 13.3844 17.0884 14.2133 16.2183C14.8958 15.5038 15.5934 14.8044 16.321 14.133C16.9586 13.5442 17.6055 12.9704 18.2769 12.4228C19.5858 11.3577 20.9565 10.3732 22.3817 9.46741C23.955 8.4679 25.5921 7.59028 27.2798 6.8008C29.0237 5.98694 30.8164 5.30435 32.656 4.7474C34.8594 4.07981 37.0984 3.58287 39.3843 3.28283C40.6425 3.1178 41.9045 3.01279 43.1703 2.94153C43.8548 2.90215 44.543 2.9359 45.2293 2.93215C46.1125 2.9284 46.992 2.94903 47.8733 3.01654C48.4603 3.06155 49.0491 3.10093 49.6342 3.17031C50.6037 3.28658 51.5694 3.42347 52.5314 3.60162C54.2359 3.91666 55.918 4.32922 57.5701 4.84866C58.9971 5.29685 60.3941 5.82004 61.7668 6.42012C63.2407 7.06521 64.679 7.78156 66.0704 8.58791C67.6231 9.48616 69.1101 10.4857 70.5372 11.5733C71.6792 12.4434 72.7799 13.3623 73.8169 14.3524C75.1089 15.5882 76.3503 16.8747 77.4811 18.2661C78.248 19.2112 78.9888 20.177 79.677 21.1802C80.5358 22.431 81.3346 23.7193 82.0491 25.0583C82.7636 26.3972 83.4218 27.7642 83.9937 29.1707C84.635 30.7421 85.1863 32.3455 85.627 33.9845C85.9814 35.3028 86.289 36.6342 86.5121 37.9825C86.6565 38.8657 86.7709 39.7527 86.8759 40.6397C86.9828 41.538 87.0315 42.4381 87.084 43.3382C87.1234 44.0227 87.0878 44.7109 87.0934 45.3972C87.1047 46.4605 87.0484 47.5181 86.9659 48.5777C86.9059 49.3371 86.8234 50.0929 86.7221 50.8448C86.5421 52.1913 86.2871 53.5246 85.9664 54.8448C85.5595 56.5306 85.0626 58.1883 84.4512 59.8142C84.0725 60.8212 83.6637 61.8151 83.2061 62.7902C82.7054 63.861 82.1804 64.9186 81.5859 65.9388C81.2221 66.5651 80.8415 67.182 80.4683 67.8028C80.4289 67.8665 80.3727 67.9265 80.4364 68.0053C80.5302 68.1215 80.6296 68.2341 80.7233 68.3484C80.7852 68.4253 80.8115 68.4085 80.8677 68.3278C81.3346 67.6696 81.7266 66.9683 82.1297 66.2725C82.6323 65.4006 83.1217 64.5211 83.5268 63.5947C83.8062 62.9552 84.1231 62.3308 84.4006 61.6876C84.8582 60.6262 85.2201 59.5329 85.627 58.4527C85.9233 57.6651 86.0864 56.84 86.334 56.0393C86.5777 55.2536 86.7634 54.451 86.9172 53.6427C87.1009 52.677 87.2547 51.7037 87.3991 50.7323C87.5003 50.0535 87.581 49.3728 87.6372 48.6883C87.686 48.1032 87.731 47.5163 87.7272 46.9237C87.7122 45.3297 87.7722 43.7358 87.6916 42.1437C87.6466 41.2567 87.5378 40.3772 87.4272 39.4958C87.2734 38.2732 87.0278 37.0655 86.8084 35.8541C86.6021 34.7139 86.2158 33.615 85.9289 32.4918C85.7039 31.6123 85.3232 30.7815 85.0532 29.9152C84.8507 29.2701 84.5319 28.6662 84.2919 28.0324C84.0256 27.3292 83.6693 26.6578 83.3336 25.9865C82.8967 25.1126 82.4373 24.25 81.9347 23.4099C81.4997 22.6823 81.0609 21.9547 80.5883 21.2515C80.1439 20.5914 79.6807 19.9444 79.2044 19.3031C78.8087 18.7705 78.3924 18.2567 77.9743 17.7466C77.6517 17.3528 77.3198 16.9628 76.9729 16.584C76.3916 15.952 75.8234 15.3069 75.2083 14.7069C74.4039 13.9193 73.5956 13.1354 72.7143 12.4322C72.3542 12.1453 72.0392 11.8077 71.6548 11.5471C71.3304 11.3258 71.0453 11.0445 70.7247 10.8157C69.8508 10.1931 68.977 9.57055 68.075 8.98734C67.3999 8.55041 66.7099 8.13785 66.0104 7.74593C65.1591 7.26774 64.3077 6.7858 63.4057 6.3995C62.8094 6.14446 62.2394 5.83317 61.6299 5.60439C61.0636 5.39248 60.5254 5.10182 59.9535 4.91805C58.8958 4.57862 57.8664 4.15294 56.7806 3.89416C55.6649 3.62787 54.5716 3.27532 53.4333 3.08592C52.0738 2.85902 50.7218 2.58711 49.3454 2.46146C48.5803 2.39208 47.8171 2.29269 47.0482 2.29269C45.5781 2.29269 44.1098 2.29082 42.6396 2.29457C42.3565 2.29457 42.0714 2.31332 41.7901 2.34332C40.9163 2.43709 40.0406 2.5271 39.1686 2.64336C38.1991 2.77276 37.2428 2.97153 36.2808 3.1328C35.09 3.33346 33.933 3.70288 32.7685 4.0273C31.8928 4.27108 31.0339 4.5805 30.177 4.88992C29.4831 5.1412 28.7987 5.42061 28.1217 5.71503C27.3341 6.0582 26.5503 6.41075 25.7852 6.79705C25.367 7.00895 24.9639 7.25461 24.5382 7.45526C24.0244 7.69717 23.5612 8.02346 23.0643 8.29537C22.5242 8.58791 22.0123 8.94234 21.4928 9.27613C21.1722 9.48053 20.8815 9.73182 20.5609 9.93435C19.7039 10.4782 18.9182 11.1195 18.1231 11.7458C17.718 12.0646 17.3299 12.4116 16.9398 12.7547C16.2029 13.3998 15.4865 14.0674 14.7871 14.7519C14.3127 15.2169 13.8757 15.7195 13.4182 16.2014C12.9269 16.719 12.4581 17.2591 12.0136 17.8142C11.6198 18.3055 11.2185 18.793 10.8416 19.3031C10.3672 19.9444 9.90778 20.5952 9.45585 21.2496C8.89891 22.0579 8.38885 22.8998 7.90692 23.755C7.41749 24.6251 6.92056 25.4933 6.52114 26.4122C6.23986 27.0592 5.9192 27.6892 5.63792 28.3399C5.18224 29.3938 4.82032 30.4796 4.41903 31.5523C4.15275 32.263 4.00836 33.0075 3.78145 33.7275C3.40079 34.9427 3.16076 36.1898 2.93948 37.4387C2.75009 38.5019 2.57569 39.569 2.47256 40.6472C2.40692 41.3373 2.32254 42.0274 2.30754 42.7213C2.29066 43.477 2.30379 44.2327 2.30379 45.176H2.30004ZM68.6376 80.7664C68.195 80.0613 67.79 79.4068 67.3737 78.7598C67.2687 78.5967 67.2574 78.4561 67.3381 78.2798C67.6437 77.6047 67.9381 76.924 68.2325 76.2451C68.255 76.1945 68.3132 76.1326 68.2663 76.082C68.2213 76.0332 68.1538 76.0782 68.0975 76.0932C67.3887 76.2789 66.678 76.457 65.9729 76.6539C65.7797 76.7083 65.6541 76.6633 65.5116 76.5339C64.9847 76.0576 64.4446 75.5926 63.9083 75.1256C63.867 75.09 63.8277 75.0187 63.7601 75.0562C63.7151 75.0806 63.7076 75.1444 63.7039 75.1969C63.6439 75.9338 63.5782 76.6689 63.5239 77.4078C63.5126 77.5578 63.4657 77.6553 63.3326 77.7303C62.7157 78.0848 62.1025 78.4467 61.4911 78.8067C61.4124 78.8536 61.313 78.878 61.268 78.9886C61.9768 79.268 62.6669 79.5493 63.3664 79.81C63.612 79.9019 63.7508 80.0275 63.7995 80.3051C63.9308 81.0383 64.0996 81.764 64.2552 82.4954C64.3658 82.4747 64.4015 82.3941 64.4521 82.3341C64.9078 81.7884 65.3635 81.2408 65.8116 80.6895C65.9073 80.5714 66.0085 80.517 66.1567 80.5301C66.5805 80.5713 67.0043 80.607 67.4281 80.6482C67.8125 80.6839 68.1969 80.7232 68.6395 80.7664H68.6376ZM28.4049 78.8349C28.2792 78.758 28.2024 78.7111 28.1273 78.6661C27.5142 78.306 26.901 77.946 26.2859 77.5878C26.1921 77.5334 26.1171 77.4734 26.1077 77.3497C26.0496 76.6052 25.9859 75.8607 25.9258 75.1162C25.9202 75.0412 25.9315 74.9493 25.8583 74.9156C25.789 74.8856 25.7421 74.9681 25.6933 75.0093C25.157 75.4763 24.6207 75.9432 24.09 76.4177C23.9662 76.5283 23.8556 76.5696 23.6868 76.5227C22.9724 76.3277 22.2561 76.1458 21.5397 75.9601C21.4778 75.9432 21.4028 75.8888 21.3541 75.9526C21.3184 76.0014 21.3747 76.0651 21.3972 76.1176C21.6935 76.7965 21.9898 77.4753 22.2936 78.1523C22.3686 78.321 22.3611 78.4579 22.2579 78.6136C22.0385 78.9436 21.8323 79.283 21.6222 79.6187C21.4216 79.9394 21.2191 80.2619 21.0072 80.5995C21.2003 80.6482 21.3597 80.5826 21.5191 80.5713C22.106 80.5245 22.693 80.457 23.2799 80.4063C23.4581 80.3913 23.6456 80.3388 23.7956 80.5263C24.1688 80.9952 24.5513 81.4565 24.9395 81.9121C25.0707 82.0659 25.1739 82.2516 25.3689 82.3735C25.5358 81.584 25.7046 80.8189 25.8565 80.05C25.8902 79.8794 25.9784 79.7875 26.1265 79.7294C26.5165 79.5775 26.9066 79.4256 27.2948 79.2737C27.6473 79.1349 27.9998 78.9943 28.4049 78.8349ZM48.8447 83.1611C48.7153 83.1086 48.6234 83.0936 48.5278 83.0804C47.8246 82.981 47.1233 82.8742 46.4201 82.7804C46.27 82.7598 46.1988 82.6848 46.1388 82.5647C45.8144 81.9234 45.4843 81.2839 45.1543 80.6464C45.1205 80.5826 45.1055 80.4813 45.023 80.4795C44.9349 80.4757 44.9255 80.5807 44.8936 80.6445C44.5748 81.2802 44.2561 81.9178 43.941 82.5554C43.8773 82.6848 43.8023 82.7654 43.6429 82.7841C43.1084 82.8441 42.5759 82.9229 42.0433 82.996C41.7695 83.0336 41.4939 83.0711 41.2201 83.1086C41.2107 83.1311 41.2013 83.1536 41.1901 83.1761C41.2351 83.2042 41.2857 83.2248 41.3232 83.2605C41.8577 83.7743 42.3865 84.2956 42.9284 84.8019C43.084 84.9482 43.1272 85.0926 43.0878 85.297C42.9603 85.9796 42.844 86.6659 42.7259 87.3504C42.7146 87.4141 42.6546 87.491 42.7221 87.5379C42.784 87.5829 42.8478 87.5135 42.904 87.4835C43.5322 87.1497 44.1642 86.8216 44.7867 86.4784C44.9649 86.3809 45.1055 86.3809 45.2855 86.4784C45.9081 86.8234 46.5382 87.1516 47.1683 87.4854C47.2245 87.5154 47.2864 87.5867 47.3502 87.536C47.4158 87.4854 47.3539 87.4104 47.3427 87.3466C47.217 86.6322 47.097 85.9177 46.9582 85.2051C46.9264 85.0419 46.962 84.9369 47.0783 84.83C47.5227 84.4175 47.9615 83.9974 48.404 83.5811C48.5447 83.4499 48.6834 83.3167 48.8447 83.1648V83.1611ZM13.977 20.7602C13.9901 20.747 14.0051 20.7339 14.0182 20.7208C14.0445 20.7302 14.0726 20.7358 14.0951 20.7508C14.6071 21.1259 15.1209 21.4972 15.6291 21.876C15.9985 22.1516 16.0003 22.1591 15.7416 22.5585C15.6291 22.7311 15.7922 22.7573 15.8691 22.8305C15.946 22.9036 16.0247 22.9598 16.111 22.8417C16.441 22.3898 16.7729 21.9378 17.103 21.4878C17.178 21.3865 17.163 21.3153 17.043 21.259C16.938 21.2102 16.8479 21.0527 16.726 21.2234C16.5085 21.5272 16.4973 21.5872 16.1129 21.2946C16.0716 21.2627 16.0247 21.2365 15.9835 21.2065C15.4472 20.8146 14.9108 20.4245 14.3745 20.0326C14.2376 19.9332 14.1983 19.8151 14.3089 19.6707C14.3445 19.6238 14.3727 19.5675 14.412 19.5244C14.4908 19.4381 14.4964 19.3519 14.3858 19.3087C14.2845 19.2694 14.2039 19.0481 14.0576 19.245C13.7782 19.6219 13.5044 20.0044 13.2232 20.3814C13.1519 20.477 13.1706 20.5539 13.2307 20.6458C13.4951 21.0527 13.7557 21.4615 14.0164 21.8703C14.1495 22.0785 14.2808 22.2866 14.4139 22.4929C14.4814 22.596 14.4345 22.6298 14.3333 22.6148C14.2676 22.6054 14.2058 22.5754 14.1401 22.5548C13.5119 22.3598 12.8856 22.1666 12.2593 21.9697C12.1449 21.9341 12.0586 21.9472 11.9855 22.0485C11.7192 22.4179 11.4548 22.7892 11.1792 23.1511C11.0723 23.2918 11.0835 23.3855 11.2261 23.4849C11.3611 23.5787 11.4473 23.5806 11.5523 23.4268C11.7155 23.183 11.7792 23.1774 12.0211 23.3518C12.6006 23.7718 13.1781 24.1975 13.752 24.6251C14.0445 24.8426 14.0445 24.8614 13.8476 25.1595C13.8138 25.2101 13.7351 25.2439 13.7763 25.3302C13.872 25.5308 14.1158 25.5589 14.247 25.3827C14.5002 25.0414 14.7477 24.6945 15.0084 24.3588C15.1321 24.1994 15.1209 24.1056 14.9465 23.9875C14.7758 23.8712 14.7158 23.965 14.6296 24.0756C14.4345 24.3288 14.3989 24.3344 14.142 24.1506C13.8213 23.92 13.5063 23.6799 13.1875 23.4455C12.9306 23.258 12.6587 23.0911 12.4262 22.8586C12.5256 22.7873 12.6006 22.8436 12.6737 22.8661C13.5382 23.1286 14.4008 23.3949 15.2653 23.6556C15.3571 23.6837 15.4547 23.7512 15.5428 23.6199C15.6272 23.4943 15.6834 23.3912 15.5803 23.2393C15.344 22.8942 15.1265 22.536 14.8996 22.1854C14.5921 21.7091 14.2845 21.2346 13.9751 20.7583L13.977 20.7602ZM34.1262 9.71682C33.8843 9.71682 33.858 9.53117 33.8092 9.39802C33.5692 8.74731 33.3386 8.09097 33.1098 7.43651C32.9879 7.08584 32.9916 7.06708 33.3536 6.93769C33.528 6.87393 33.5036 6.78205 33.4605 6.64515C33.4154 6.49888 33.3573 6.45388 33.2035 6.51201C32.686 6.70704 32.1666 6.89081 31.6452 7.07459C31.5252 7.11772 31.4952 7.17772 31.529 7.31087C31.5796 7.51902 31.6734 7.54902 31.8628 7.47777C32.1816 7.35775 32.2116 7.37838 32.341 7.69529C32.4197 7.88845 32.4891 8.08535 32.5622 8.28225C32.6035 8.39101 32.5791 8.46227 32.4572 8.50165C32.1872 8.58979 31.9228 8.68918 31.6527 8.78107C31.0752 8.97609 31.0789 8.97422 30.8764 8.40414C30.7095 7.93533 30.6589 7.89407 31.1577 7.71967C31.3471 7.65404 31.2308 7.5284 31.2121 7.42338C31.1896 7.30149 31.1202 7.26211 31.0002 7.30524C30.4732 7.49464 29.9482 7.68779 29.4194 7.86969C29.2318 7.93533 29.275 8.04034 29.3162 8.18286C29.365 8.35538 29.4512 8.33851 29.5844 8.2935C29.8825 8.19411 29.9557 8.23724 30.0644 8.53916C30.3045 9.20675 30.5482 9.87246 30.7901 10.5401C30.8877 10.8082 30.8427 10.9207 30.5707 11.0145C30.4207 11.0651 30.3607 11.1251 30.4245 11.2864C30.4864 11.4458 30.5576 11.5077 30.7395 11.4364C31.2252 11.2451 31.7184 11.067 32.2116 10.8982C32.3803 10.8401 32.3991 10.7613 32.356 10.6001C32.2922 10.3563 32.1497 10.4444 32.0109 10.4913C31.709 10.5907 31.6565 10.5663 31.5496 10.2719C31.4784 10.075 31.4165 9.87434 31.3321 9.68306C31.2477 9.49179 31.3133 9.3924 31.4971 9.33051C31.8796 9.20112 32.2622 9.0736 32.6391 8.93109C32.761 8.8842 32.7966 8.93671 32.8285 9.03235C32.8979 9.22925 32.9691 9.42615 33.0367 9.62305C33.1829 10.0431 33.1829 10.0469 32.7648 10.2231C32.6429 10.2738 32.5979 10.3375 32.6654 10.4613C32.7216 10.5626 32.716 10.7257 32.9185 10.6451C33.2017 10.5326 33.4961 10.4425 33.7849 10.3394C34.0305 10.2513 34.2743 10.1575 34.52 10.0675C34.6362 10.0244 34.6493 9.9606 34.6118 9.84246C34.5518 9.65493 34.4637 9.57992 34.2724 9.67556C34.2199 9.70181 34.1599 9.70932 34.1262 9.71869V9.71682ZM82.1972 38.0763C82.2366 38.215 82.1391 38.2507 82.0416 38.2713C81.8522 38.3125 81.6609 38.3407 81.4697 38.3782C81.0271 38.4644 80.9934 38.4494 80.8958 38.0087C80.8621 37.8531 80.7608 37.8568 80.6596 37.8869C80.5696 37.9131 80.4177 37.8925 80.457 38.0819C80.5733 38.637 80.6821 39.192 80.7852 39.7509C80.8115 39.8915 80.8865 39.914 81.0065 39.9065C81.2315 39.8934 81.2334 39.7527 81.2071 39.5821C81.1677 39.3083 81.2128 39.2445 81.4659 39.1939C82.1766 39.0551 82.8892 38.9314 83.5962 38.7776C83.9487 38.7007 84.0012 38.7607 84.065 39.0926C84.1043 39.297 84.2112 39.2502 84.3369 39.237C84.4831 39.222 84.5263 39.1602 84.4962 39.0139C84.3837 38.4663 84.2787 37.9169 84.1737 37.3674C84.1418 37.1968 84.0387 37.2118 83.9056 37.238C83.7705 37.2643 83.6918 37.3018 83.7443 37.4574C83.763 37.5137 83.7499 37.5774 83.7649 37.6356C83.8118 37.825 83.7199 37.9206 83.5511 37.96C83.3261 38.0106 83.0973 38.0519 82.8723 38.1006C82.7336 38.1306 82.6717 38.0819 82.6454 37.9394C82.5798 37.5793 82.4991 37.223 82.4279 36.8648C82.366 36.5517 82.3679 36.5517 82.6942 36.4823C82.8254 36.4542 82.9567 36.4242 83.088 36.3998C83.478 36.3285 83.5061 36.3398 83.5868 36.7242C83.6299 36.9342 83.7443 36.9324 83.9093 36.8967C84.0968 36.8555 84.0443 36.7317 84.0218 36.6173C83.9243 36.1204 83.8193 35.6234 83.7312 35.1246C83.703 34.9615 83.6749 34.8583 83.4686 34.9015C83.2755 34.9408 83.2511 35.0346 83.2924 35.2071C83.3524 35.4565 83.2942 35.5315 83.0467 35.5822C82.3454 35.7228 81.6422 35.8616 80.9408 36.0041C80.5808 36.0772 80.5489 36.0622 80.4364 35.7078C80.3933 35.5709 80.3258 35.5222 80.1701 35.5653C80.0239 35.6065 79.9676 35.6553 80.0014 35.811C80.1083 36.3135 80.2039 36.8198 80.3033 37.3243C80.352 37.5699 80.397 37.5868 80.6389 37.5343C80.8621 37.4856 80.7533 37.343 80.7346 37.238C80.6989 37.0467 80.7046 36.8873 80.9333 36.8367C81.209 36.7767 81.4884 36.7261 81.7659 36.6679C81.8672 36.6473 81.9122 36.6754 81.9328 36.7823C82.0172 37.2136 82.1091 37.6431 82.1991 38.0744L82.1972 38.0763ZM5.81981 51.6212C5.81419 51.3043 5.84231 51.2593 6.18548 51.2143C6.85118 51.1261 7.51688 51.0474 8.18445 50.9799C8.59138 50.9386 8.59325 50.9517 8.70389 51.3305C8.73202 51.4243 8.7639 51.4824 8.88578 51.4768C9.12206 51.4656 9.17457 51.4168 9.14269 51.1749C9.13144 51.0868 9.11269 50.9986 9.10331 50.9105C9.05455 50.496 9.0133 50.0797 8.95517 49.6672C8.94204 49.5697 8.93642 49.4197 8.7639 49.4497C8.6195 49.474 8.45261 49.4815 8.50512 49.7122C8.52012 49.776 8.50324 49.8472 8.50512 49.9147C8.51262 50.0554 8.42823 50.1285 8.30822 50.1473C8.04381 50.1885 7.77566 50.2129 7.50938 50.2485C7.35749 50.2673 7.28248 50.1885 7.2656 50.0535C7.21497 49.6541 7.16996 49.2546 7.12308 48.8533C7.10621 48.7033 7.16621 48.6395 7.32561 48.6358C7.50375 48.6339 7.68377 48.6095 7.86004 48.5795C8.29134 48.5045 8.35885 48.5439 8.41511 48.9733C8.43386 49.1196 8.51824 49.1534 8.63263 49.1252C8.73577 49.099 8.88953 49.1121 8.86516 48.9227C8.79202 48.3545 8.71702 47.7844 8.65513 47.2144C8.63451 47.025 8.52387 47.0812 8.41511 47.0943C8.30072 47.1075 8.1657 47.0981 8.21071 47.2744C8.28947 47.5838 8.27447 47.7244 7.80004 47.7751C7.22997 47.8351 6.66178 47.9138 6.09172 47.9851C5.93607 48.0038 5.78043 48.0338 5.62479 48.0357C5.35476 48.0357 5.35476 47.8051 5.33413 47.6325C5.30225 47.3775 5.13161 47.5275 5.0266 47.5088C4.89533 47.4863 4.89346 47.5782 4.90658 47.6832C4.97222 48.2458 5.03222 48.8102 5.09598 49.3728C5.11098 49.5003 5.19349 49.5509 5.31913 49.534C5.52915 49.5059 5.57228 49.4365 5.52728 49.2078C5.48602 48.9921 5.55916 48.8608 5.76168 48.829C6.00358 48.7896 6.24923 48.7652 6.49301 48.7371C6.5849 48.7258 6.65053 48.7502 6.66366 48.8627C6.71429 49.3071 6.77054 49.7516 6.82868 50.1941C6.8418 50.2954 6.80055 50.3273 6.71054 50.3385C6.50426 50.3648 6.29799 50.406 6.08984 50.4248C5.72042 50.4585 5.68667 50.4267 5.64167 50.0497C5.62854 49.9335 5.59291 49.8285 5.45414 49.8547C5.32476 49.8791 5.15224 49.8772 5.18224 50.0966C5.25912 50.6498 5.33413 51.203 5.40164 51.7581C5.41477 51.8556 5.45227 51.8781 5.54415 51.88C5.81419 51.8875 5.82544 51.88 5.81981 51.6193V51.6212ZM7.98756 31.4041C8.07007 31.3797 8.09632 31.3685 8.12445 31.3629C9.06393 31.1978 10.0015 31.0159 10.9429 30.8753C11.3179 30.819 11.5523 30.6915 11.648 30.3015C11.7192 30.0127 11.7511 30.0239 11.4623 29.9095C10.6485 29.5907 9.83652 29.2719 9.02455 28.9494C8.67951 28.8125 8.67201 28.8069 8.78452 28.4468C8.84266 28.2612 8.73202 28.2406 8.60638 28.1899C8.47511 28.1374 8.41323 28.1393 8.35885 28.2931C8.20133 28.7281 8.03444 29.1613 7.84879 29.5851C7.77378 29.7558 7.81691 29.8139 7.97068 29.8889C8.20696 30.0033 8.23321 29.8308 8.28947 29.6901C8.39823 29.4201 8.45824 29.392 8.72639 29.497C9.17832 29.6733 9.63212 29.8439 10.0822 30.0277C10.1853 30.0708 10.3147 30.0839 10.3953 30.2039C10.3128 30.2283 10.2434 30.2583 10.1703 30.2715C9.30396 30.4234 8.43761 30.5752 7.57126 30.7178C7.44937 30.7384 7.38186 30.7834 7.33873 30.8903C7.17934 31.301 7.01807 31.7116 6.85493 32.1205C6.81742 32.2161 6.83618 32.2686 6.93556 32.3117C7.19434 32.4242 7.20559 32.4261 7.31811 32.1486C7.39499 31.9554 7.5075 31.8767 7.71565 31.9648C8.03819 32.1017 8.36635 32.2273 8.69264 32.3549C9.06018 32.4993 9.43147 32.638 9.79901 32.7862C10.0765 32.8987 10.1047 32.9662 10.0109 33.2419C9.99966 33.2775 9.99404 33.3169 9.97528 33.3487C9.8684 33.525 10.0203 33.5475 10.1215 33.5925C10.2322 33.6432 10.3222 33.6619 10.3803 33.5006C10.5453 33.0525 10.7254 32.6099 10.911 32.1692C10.9898 31.9817 10.9541 31.8992 10.7535 31.8298C10.5866 31.7717 10.5622 31.856 10.5153 31.9629C10.3466 32.3455 10.3447 32.3436 9.95466 32.1898C9.664 32.0736 9.36959 31.9648 9.07706 31.8504C8.72639 31.7117 8.3776 31.5691 7.98193 31.4079L7.98756 31.4041ZM83.6749 50.1341C83.6037 50.2598 83.5043 50.286 83.418 50.3217C82.6098 50.6536 81.8109 51.008 80.9877 51.3005C80.6127 51.4337 80.4102 51.6231 80.4045 52.0169C80.4045 52.0319 80.397 52.045 80.3952 52.06C80.3764 52.21 80.3952 52.3075 80.5883 52.3375C81.479 52.4726 82.3679 52.6282 83.2567 52.7745C83.628 52.8345 83.6637 52.8682 83.6093 53.2377C83.5774 53.4552 83.7387 53.3877 83.8324 53.4233C83.9506 53.4683 84.02 53.4308 84.0406 53.3052C84.1156 52.842 84.1943 52.3788 84.2637 51.9156C84.2787 51.8087 84.3294 51.6643 84.1325 51.6456C83.9806 51.6306 83.8606 51.6006 83.8306 51.835C83.7855 52.1857 83.673 52.2382 83.3186 52.1744C83.1573 52.1463 82.9961 52.1219 82.8329 52.0938C82.441 52.0281 82.0491 51.9625 81.6253 51.8912C81.7303 51.7675 81.8428 51.7468 81.9403 51.7056C82.7073 51.3905 83.4743 51.0811 84.2412 50.7661C84.3444 50.7248 84.4606 50.6854 84.4813 50.5542C84.5469 50.1266 84.6031 49.6991 84.6744 49.2734C84.6988 49.1234 84.6706 49.0465 84.5075 49.0352C84.3612 49.024 84.2581 49.0108 84.2431 49.2228C84.2206 49.5303 84.11 49.6091 83.8699 49.5697C83.1874 49.4553 82.5029 49.339 81.8203 49.2228C81.3628 49.1459 81.359 49.144 81.3909 48.6846C81.3984 48.5702 81.4003 48.4895 81.2559 48.497C81.1396 48.5027 80.9915 48.3883 80.9577 48.6283C80.8865 49.129 80.7927 49.6278 80.7064 50.1266C80.6783 50.2898 80.8021 50.3104 80.909 50.3404C81.0252 50.3723 81.119 50.3404 81.1527 50.2129C81.1734 50.1341 81.1884 50.0535 81.2053 49.9729C81.2334 49.8285 81.3215 49.7722 81.4622 49.7947C82.1897 49.9091 82.9173 50.0235 83.6712 50.1416L83.6749 50.1341ZM71.8892 16.5484C71.9548 16.644 71.9098 16.7134 71.8929 16.7846C71.681 17.6473 71.4691 18.508 71.2591 19.3706C71.1222 19.9332 71.1297 19.9276 71.5273 20.3345C71.6529 20.462 71.7279 20.462 71.8517 20.3345C72.4555 19.7194 73.0668 19.1137 73.6763 18.5042C74.0026 18.178 74.0044 18.1742 74.3964 18.433C74.5389 18.5268 74.5801 18.3955 74.6514 18.3355C74.7208 18.2773 74.7958 18.2117 74.6983 18.1142C74.3382 17.7541 73.9782 17.3941 73.6181 17.034C73.5469 16.9609 73.4831 16.9665 73.4044 17.0322C73.2 17.1972 73.1962 17.2235 73.3912 17.426C73.6013 17.6454 73.6013 17.7354 73.3894 17.9492C73.0256 18.3148 72.6599 18.6805 72.2924 19.0443C72.2417 19.095 72.2005 19.1662 72.1142 19.1643C72.0561 19.0912 72.1011 19.0218 72.118 18.9506C72.3205 18.1161 72.5211 17.2816 72.7293 16.4508C72.7705 16.2821 72.7593 16.1564 72.6243 16.0289C72.3392 15.7626 72.0673 15.4851 71.7973 15.2038C71.6923 15.095 71.621 15.0838 71.5048 15.1963C71.3735 15.3238 71.3623 15.4063 71.501 15.5395C71.7242 15.7514 71.7167 15.847 71.5048 16.0589C71.0191 16.5465 70.5297 17.0341 70.0421 17.5216C69.7233 17.8404 69.7158 17.8479 69.4083 17.5366C69.2751 17.4016 69.2039 17.4597 69.0989 17.561C68.9882 17.666 68.9751 17.741 69.0933 17.8535C69.4327 18.1817 69.7627 18.5193 70.0965 18.853C70.284 19.0406 70.3028 19.0349 70.4734 18.838C70.6234 18.6655 70.4509 18.5999 70.3721 18.5136C70.1677 18.2923 70.1621 18.2511 70.374 18.0373C70.7547 17.6548 71.1354 17.2722 71.5179 16.8934C71.6342 16.779 71.7336 16.6459 71.8911 16.554L71.8892 16.5484ZM6.98807 37.6468C6.27736 37.6806 5.7373 37.9356 5.44102 38.5976C5.30788 38.8957 5.246 39.2052 5.20474 39.524C5.12598 40.1222 5.0341 40.7185 4.95909 41.3148C4.94596 41.4161 4.89346 41.5586 5.09973 41.5792C5.27037 41.5942 5.39601 41.5867 5.39976 41.3786C5.40351 41.1179 5.54791 41.0467 5.78043 41.0785C5.85357 41.0879 5.93045 41.0842 6.00358 41.0935C6.6299 41.1779 7.2581 41.2642 7.88442 41.3504C8.22383 41.3973 8.35697 41.4761 8.25384 41.8193C8.21633 41.9449 8.26884 42.0312 8.40948 42.0218C8.52199 42.0143 8.68701 42.1193 8.70389 41.8755C8.72264 41.5942 8.78265 41.3148 8.81265 41.0335C8.87641 40.4072 9.05268 39.7902 8.97017 39.1508C8.91579 38.7307 8.76202 38.3688 8.41698 38.0931C7.98756 37.7518 7.47937 37.6993 6.99182 37.6468H6.98807ZM41.777 4.85429C41.0869 4.85991 40.5413 4.98555 40.1043 5.39811C39.5324 5.93631 39.4143 6.60577 39.568 7.35025C39.6749 7.85844 39.9318 8.2635 40.3706 8.54103C40.8975 8.87483 41.4714 8.92171 42.0714 8.80544C42.4859 8.72481 42.8646 8.56166 43.1534 8.25787C43.8266 7.54902 43.8454 6.46138 43.3428 5.68877C42.9584 5.09807 42.3677 4.85804 41.777 4.85241V4.85429ZM81.3421 53.6596C80.9634 53.6652 80.8546 53.7027 80.6389 53.7815C79.7145 54.1153 79.2738 55.3642 79.3863 56.1874C79.5607 57.4645 80.9408 58.0177 81.9141 57.7795C83.1855 57.4682 83.6918 55.848 83.2867 54.8616C82.9323 53.999 82.2179 53.6877 81.3403 53.6615L81.3421 53.6596ZM6.72929 46.6143C7.42124 46.663 8.04194 46.333 8.37573 45.8398C8.68139 45.386 8.75827 44.8797 8.74514 44.3452C8.72452 43.4789 8.13195 42.7175 7.28998 42.5319C6.52114 42.3631 5.80856 42.4756 5.25537 43.0869C4.79782 43.5951 4.69281 44.2083 4.76219 44.8815C4.87658 45.9823 5.74855 46.6687 6.72929 46.6162V46.6143ZM52.7395 9.55179C53.304 9.57805 53.7934 9.39615 54.1741 8.98547C54.6541 8.4679 54.7798 7.82469 54.6972 7.1496C54.6429 6.71829 54.416 6.35824 54.0747 6.06945C53.724 5.77316 53.319 5.64002 52.8745 5.56688C52.0176 5.42436 51.2919 5.7169 50.8362 6.45388C50.4536 7.07271 50.3955 8.03096 50.8662 8.67793C51.3294 9.31551 51.9857 9.53304 52.7358 9.55179H52.7395ZM36.6333 9.59117C36.999 9.62493 37.3646 9.51991 37.7153 9.36614C38.5385 9.00235 38.9586 8.13035 38.7767 7.21523C38.6979 6.81768 38.5573 6.45013 38.2723 6.15946C37.7528 5.62877 37.1115 5.49 36.397 5.62502C35.3394 5.82379 34.5912 6.55139 34.6381 7.63154C34.6868 8.77544 35.4707 9.64556 36.6314 9.59117H36.6333ZM74.7339 65.9331C74.6889 66.4169 75.6265 67.0789 76.4235 66.6045C76.7197 66.4282 76.9448 66.1844 77.1942 65.9594C77.393 65.7794 77.5692 65.5693 77.8205 65.4587C78.1149 65.3293 78.4599 65.5768 78.3981 65.8825C78.3381 66.1807 78.1937 66.4394 77.9405 66.6288C77.5823 66.8951 77.1942 66.9064 76.791 66.7657C76.5735 66.6907 76.5697 66.8895 76.4891 66.9833C76.386 67.1052 76.5116 67.1558 76.5847 67.2046C76.851 67.3827 77.1229 67.5533 77.3948 67.7259C77.4792 67.7784 77.5636 67.8909 77.6686 67.7934C77.768 67.7015 77.843 67.5796 77.768 67.4333C77.7099 67.3208 77.7399 67.2646 77.858 67.2177C78.3624 67.0114 78.6718 66.6251 78.8369 66.1169C79.0094 65.5825 78.8556 65.093 78.4337 64.8117C77.9743 64.5023 77.528 64.5454 77.0592 64.928C76.8079 65.1324 76.5866 65.3631 76.356 65.5862C76.2209 65.7156 76.0784 65.8375 75.9022 65.9087C75.6209 66.0231 75.3377 65.8281 75.3133 65.5281C75.2796 65.1174 75.8459 64.3935 76.4178 64.3785C76.6316 64.3729 76.8341 64.4104 77.031 64.4836C77.2373 64.5586 77.2617 64.3692 77.3404 64.2679C77.4305 64.1516 77.3311 64.1029 77.2448 64.0466C76.9129 63.831 76.5847 63.6097 76.2509 63.3959C76.1909 63.3584 76.1141 63.2703 76.0409 63.3809C75.9753 63.4822 75.8328 63.5853 75.9434 63.7128C76.1253 63.9191 75.9865 63.9622 75.8253 64.0447C75.1952 64.3617 74.7977 64.8474 74.732 65.9313L74.7339 65.9331ZM80.2095 61.0462C80.1495 61.0425 80.0895 61.0443 80.0314 61.0331C79.827 60.9956 79.8345 61.1831 79.7782 61.2863C79.7107 61.41 79.8251 61.4532 79.9151 61.4925C80.2245 61.6257 80.5321 61.7588 80.8415 61.8863C80.9183 61.9182 81.0234 61.9932 81.0852 61.8957C81.1452 61.8038 81.2315 61.6951 81.1396 61.5675C81.0234 61.4081 81.1152 61.3256 81.2446 61.2244C81.7866 60.8024 82.0491 60.2492 81.9235 59.561C81.7941 58.8503 80.8452 58.4396 80.2714 58.9141C79.9526 59.1766 79.737 59.5141 79.4876 59.8273C79.3375 60.013 79.2138 60.223 78.9963 60.3411C78.7168 60.493 78.3943 60.3205 78.3793 60.0036C78.3568 59.5498 78.5481 59.1953 78.9062 58.9253C79.2025 58.7003 79.5401 58.6815 79.8889 58.7397C80.0914 58.7734 80.0876 58.5971 80.1514 58.494C80.2114 58.3946 80.1608 58.329 80.0595 58.2859C79.6882 58.1283 79.3207 57.9633 78.9494 57.8095C78.8819 57.7814 78.7806 57.6858 78.7281 57.832C78.6868 57.9483 78.5499 58.0664 78.7131 58.1902C78.8706 58.3102 78.82 58.3871 78.6793 58.4827C78.1074 58.8709 77.7961 59.4016 77.8299 60.1086C77.8505 60.5474 78.053 60.8774 78.4543 61.0706C78.8237 61.2487 79.1894 61.2487 79.5382 61.0068C79.7632 60.8531 79.9432 60.658 80.1045 60.4368C80.307 60.1592 80.4927 59.8704 80.7383 59.6267C80.8902 59.4748 81.0534 59.4391 81.2446 59.5498C81.4322 59.6585 81.4884 59.8329 81.4565 60.0261C81.359 60.6093 80.8827 61.1025 80.2151 61.0462H80.2095ZM22.046 12.4884C22.046 13.1485 22.558 13.6286 23.1843 13.5442C23.4656 13.5067 23.7393 13.4317 24.0038 13.3248C24.2457 13.2273 24.4857 13.1204 24.7445 13.0698C24.9564 13.0285 25.1383 13.0679 25.2808 13.2573C25.4158 13.4392 25.3952 13.6173 25.2695 13.773C24.8889 14.2493 24.2025 14.5175 23.6193 14.1237C23.5218 14.058 23.4337 13.9736 23.3437 13.8968C23.1693 13.7467 23.0774 13.9343 22.9593 13.9961C22.8299 14.0618 22.9218 14.1499 22.9668 14.2193C23.1768 14.5456 23.3924 14.8681 23.6062 15.1926C23.655 15.2676 23.6981 15.3707 23.8087 15.3163C23.9194 15.2619 24.0713 15.2001 24.0263 15.0444C23.9625 14.8231 24.0713 14.8194 24.2382 14.8044C24.6582 14.7687 25.0614 14.6712 25.4045 14.4012C25.8246 14.0693 26.0534 13.653 25.9521 13.111C25.819 12.4078 25.2245 12.0665 24.4651 12.2672C24.0113 12.3872 23.5725 12.5578 23.1262 12.706C22.9499 12.7641 22.813 12.6816 22.708 12.5634C22.5917 12.4322 22.5542 12.2578 22.6611 12.1059C22.8711 11.8115 23.1449 11.6089 23.5256 11.5677C23.8987 11.5283 24.2007 11.6708 24.4632 11.909C24.632 12.0628 24.7182 11.9015 24.827 11.8396C24.9526 11.7683 24.8889 11.684 24.8307 11.5977C24.6263 11.2939 24.4238 10.9882 24.2307 10.6788C24.1763 10.5926 24.1181 10.5832 24.045 10.6282C23.9456 10.6919 23.8331 10.7482 23.8444 10.8982C23.8537 11.0089 23.7994 11.0501 23.6887 11.067C23.4693 11.1026 23.2443 11.1176 23.0324 11.202C22.4942 11.4158 21.9898 11.9409 22.046 12.4866V12.4884ZM12.7 61.8601C12.7 61.7851 12.7056 61.7101 12.7 61.635C12.6493 61.0725 12.4374 60.5962 11.9536 60.2699C11.3104 59.8367 10.2153 60.208 10.2078 61.0912C10.2059 61.3538 10.2228 61.6088 10.2809 61.8638C10.3616 62.2257 10.5116 62.5764 10.4872 62.959C10.4778 63.1184 10.4066 63.2215 10.2622 63.2871C10.1178 63.3547 9.98466 63.349 9.86465 63.2459C9.75213 63.1484 9.64149 63.049 9.56836 62.9121C9.28145 62.3683 9.37334 61.8413 9.85902 61.4231C10.0259 61.2787 9.87777 61.185 9.84027 61.0743C9.80464 60.9675 9.72775 60.945 9.62649 60.9975C9.30771 61.1606 8.98517 61.32 8.66826 61.4888C8.60263 61.5244 8.49761 61.56 8.53137 61.6669C8.56325 61.7719 8.597 61.8957 8.73764 61.9032C8.92892 61.9145 8.97017 62.0289 8.95892 62.1939C8.95329 62.2914 8.95142 62.3889 8.95892 62.4864C9.01517 63.0977 9.30021 63.5628 9.85339 63.8403C10.4272 64.1273 11.3798 63.6959 11.3179 62.8915C11.2861 62.4695 11.1998 62.0664 11.1004 61.6613C11.0592 61.4944 11.0254 61.3275 11.0367 61.1512C11.0517 60.9412 11.1623 60.8081 11.3498 60.7255C11.5336 60.6449 11.6649 60.7331 11.7886 60.8549C12.3437 61.3988 12.4056 62.2257 11.7192 62.7602C11.543 62.8971 11.678 63.0096 11.7267 63.1315C11.7811 63.2703 11.8767 63.2496 11.9818 63.1934C12.3324 63.0096 12.6831 62.8258 13.0338 62.6421C13.1106 62.6008 13.2157 62.5727 13.1556 62.4489C13.105 62.3439 13.0713 62.1789 12.9231 62.222C12.6381 62.3045 12.6812 62.1395 12.7 61.9726C12.7037 61.9351 12.7 61.8976 12.7 61.8601ZM58.487 8.14535C58.457 8.29537 58.4383 8.4679 58.382 8.62917C58.3183 8.81482 58.427 8.84482 58.5564 8.89358C58.6933 8.94421 58.7721 8.93859 58.8208 8.77356C58.9296 8.40789 59.044 8.04409 59.1865 7.69154C59.2596 7.50964 59.2221 7.44214 59.0477 7.384C58.097 7.06896 57.15 6.74829 56.2012 6.42762C56.0605 6.38074 55.9443 6.30198 55.8524 6.53076C55.7624 6.75204 55.8768 6.78205 56.0249 6.84393C56.308 6.96207 56.3212 6.99958 56.2274 7.28274C56.0061 7.95033 55.7849 8.61604 55.558 9.28176C55.4305 9.65681 55.3854 9.69056 55.0273 9.5668C54.8229 9.49741 54.8266 9.6193 54.7779 9.73557C54.7179 9.87434 54.7385 9.95122 54.8941 10.0019C55.4136 10.1669 55.9311 10.3413 56.4468 10.5175C56.5875 10.5663 56.6568 10.5476 56.7112 10.3919C56.7694 10.2194 56.7506 10.1387 56.565 10.0806C56.2237 9.97185 56.1974 9.91372 56.2987 9.60055C56.3774 9.35864 56.4693 9.12236 56.5537 8.88233C56.5781 8.81482 56.6025 8.75669 56.6887 8.75669C56.8762 8.75669 57.0638 8.92546 57.0844 9.12236C57.0975 9.24238 57.0825 9.36052 57.045 9.47678C56.9813 9.67931 57.1294 9.70744 57.2663 9.75995C57.4276 9.82183 57.4594 9.71494 57.4969 9.6043C57.6488 9.14299 57.7913 8.67793 57.9601 8.22224C58.037 8.01409 57.9695 7.94845 57.7801 7.89595C57.5813 7.84156 57.5513 7.98408 57.4913 8.0966C57.3432 8.37601 57.2213 8.42102 56.925 8.33475C56.7994 8.29913 56.7656 8.23724 56.8031 8.12473C56.8875 7.86969 56.9738 7.61466 57.0563 7.35775C57.0863 7.26586 57.1388 7.22086 57.24 7.25649C57.5494 7.36713 57.8701 7.44214 58.1645 7.59403C58.3839 7.70655 58.4552 7.90157 58.4852 8.14723L58.487 8.14535ZM12.3643 26.5528C12.4074 26.5528 12.4374 26.5491 12.4674 26.5528C12.8612 26.6203 13.0769 26.6147 12.7562 27.0835C12.6981 27.1679 12.6925 27.2373 12.7956 27.3086C13.0225 27.4642 13.0675 27.4605 13.2006 27.2148C13.4407 26.776 13.6713 26.3316 13.9151 25.8946C13.9826 25.7746 13.9957 25.694 13.8513 25.6283C13.7295 25.5721 13.6113 25.4708 13.5251 25.6733C13.4501 25.8477 13.3019 25.8834 13.1331 25.859C12.218 25.7296 11.3048 25.5908 10.3897 25.4727C10.2191 25.4502 10.0147 25.3283 9.87027 25.4577C9.694 25.6152 9.57211 25.8421 9.52711 26.0746C9.49898 26.2209 9.66775 26.3278 9.76338 26.4347C10.3653 27.1079 10.9766 27.7755 11.5842 28.4431C11.7492 28.6231 11.8336 28.8238 11.6949 29.0507C11.5917 29.2176 11.723 29.2382 11.8149 29.2888C11.9218 29.347 12.0249 29.4107 12.1055 29.2401C12.2143 29.0113 12.3418 28.79 12.4618 28.5669C12.5706 28.3624 12.6868 28.1618 12.7862 27.9536C12.88 27.7586 12.6756 27.7699 12.5931 27.6986C12.5087 27.6274 12.4562 27.6536 12.3981 27.7436C12.1187 28.1881 12.1149 28.1862 11.7717 27.7849C11.7661 27.7792 11.7624 27.7736 11.7567 27.768C11.6442 27.6499 11.6311 27.5336 11.7211 27.3892C11.8599 27.1679 11.9874 26.9391 12.1074 26.7066C12.1674 26.5903 12.2199 26.4872 12.3643 26.5528ZM77.4961 26.8641C77.6255 26.8491 77.7061 26.9054 77.7642 27.0216C77.8711 27.2354 77.9761 27.4511 78.1018 27.6536C78.2199 27.8468 78.2218 27.9818 78.038 28.1505C77.693 28.4693 77.6986 28.4881 77.4586 28.068C77.3611 27.8974 77.2654 27.993 77.1604 28.0362C77.0554 28.0812 76.9785 28.1262 77.0554 28.2687C77.3161 28.7563 77.5673 29.2494 77.8167 29.7426C77.8805 29.8702 77.9593 29.857 78.0493 29.7933C78.1355 29.7333 78.3362 29.7258 78.233 29.557C78.0905 29.3207 78.1993 29.1576 78.3418 28.9982C78.9906 28.2668 79.6451 27.5392 80.2977 26.8116C80.3727 26.7272 80.4702 26.6428 80.4045 26.5191C80.2939 26.3128 80.2508 26.0634 80.0407 25.919C80.0201 25.904 79.9807 25.9115 79.9526 25.9152C79.1125 26.0371 78.2724 26.1665 77.4323 26.2828C77.0573 26.3353 76.6485 26.5266 76.3747 26.0465C76.3109 25.934 76.1891 26.0578 76.1047 26.1084C76.0297 26.1534 75.9659 26.1965 76.0222 26.3034C76.2528 26.7385 76.4816 27.1754 76.7104 27.6123C76.7629 27.7117 76.8323 27.7267 76.9335 27.6761C77.1492 27.5711 77.1679 27.5261 77.0554 27.3067C76.9429 27.0854 76.9598 26.9635 77.121 26.9223C77.2429 26.8904 77.3704 26.881 77.4961 26.8622V26.8641ZM11.7061 64.3298C11.3686 64.3842 11.0498 64.5136 10.8491 64.838C10.6935 65.0893 10.6897 65.3687 10.7797 65.635C11.0779 66.5107 11.7061 67.1952 12.1637 67.979C12.1862 68.0165 12.2218 68.0372 12.278 68.024C12.4918 67.9678 12.565 67.8121 12.4637 67.619C12.308 67.3283 12.3118 67.3002 12.5912 67.1183C13.1725 66.7395 13.7557 66.3644 14.3445 65.9931C14.6971 65.7719 14.7102 65.7719 14.939 66.1094C15.0684 66.3007 15.1527 66.1319 15.2521 66.0963C15.3609 66.0569 15.4021 65.9894 15.3253 65.8712C15.0102 65.3893 14.7046 64.9036 14.3914 64.4217C14.3614 64.3748 14.3333 64.3148 14.2564 64.3223C14.0239 64.3448 13.9264 64.5398 14.0501 64.7405C14.0858 64.7967 14.1158 64.8586 14.1439 64.9186C14.1964 65.0293 14.1776 65.1155 14.0689 65.1868C13.8363 65.3349 13.6057 65.4868 13.3769 65.6443C13.2494 65.7306 13.1669 65.7025 13.0863 65.5787C12.9156 65.3162 12.7393 65.0555 12.5575 64.8005C12.3549 64.5173 12.0774 64.3579 11.7061 64.3298ZM81.0646 45.9992C81.0646 46.1192 81.0684 46.2392 81.0646 46.3592C81.0571 46.513 81.1265 46.573 81.2784 46.5712C81.4209 46.5712 81.4715 46.513 81.4847 46.3705C81.5015 46.2017 81.4772 45.9711 81.7209 45.9486C81.9797 45.9242 82.2441 45.9111 82.5048 45.9636C82.7842 46.0198 82.8142 46.0498 82.7673 46.3292C82.7148 46.6424 82.7429 46.95 82.7654 47.265C82.8179 47.9982 83.4761 48.2551 84.065 48.1107C84.5394 47.9945 84.6857 47.5988 84.7588 47.1844C84.8938 46.4324 84.8413 45.6654 84.8975 44.9078C84.9088 44.7578 84.8657 44.6771 84.6894 44.664C84.5038 44.6509 84.4587 44.7409 84.4381 44.8909C84.3969 45.1985 84.3837 45.2191 84.0762 45.2078C83.3749 45.1853 82.6754 45.146 81.9741 45.1216C81.5934 45.1085 81.5859 45.1178 81.5709 44.7334C81.5634 44.5703 81.4865 44.5309 81.344 44.5327C81.209 44.5327 81.0984 44.5515 81.1096 44.724C81.1359 45.1516 81.0646 45.5735 81.0646 45.9992ZM8.13757 35.8616C8.35885 35.916 8.56887 35.9666 8.7789 36.021C9.20832 36.1316 9.23645 36.1672 9.12956 36.5873C9.08643 36.758 9.11831 36.8292 9.29458 36.8705C9.4671 36.9117 9.52148 36.848 9.55899 36.6961C9.69775 36.1391 9.84589 35.584 9.99216 35.0271C10.0278 34.8902 10.054 34.7721 9.85714 34.7233C9.68087 34.6802 9.58711 34.7102 9.56274 34.9015C9.55336 34.9821 9.51586 35.059 9.48773 35.1359C9.43522 35.2765 9.34709 35.3328 9.19144 35.2859C8.97017 35.2202 8.74327 35.1752 8.51824 35.119C8.4001 35.089 8.30259 35.029 8.22383 34.9296C7.87129 34.4851 7.515 34.0463 7.16059 33.6019C7.05183 33.465 6.95994 33.33 7.02182 33.1331C7.07433 32.9643 6.91119 32.9681 6.81555 32.9343C6.71804 32.9006 6.6224 32.9062 6.59052 33.0375C6.47239 33.5006 6.35425 33.962 6.23423 34.4251C6.2061 34.532 6.24924 34.5977 6.34675 34.637C6.56052 34.7214 6.61303 34.6952 6.68053 34.4664C6.70491 34.3783 6.72554 34.2845 6.82493 34.2564C6.93181 34.2282 6.98807 34.3164 7.04432 34.3839C7.22059 34.5958 7.38374 34.8208 7.56563 35.0271C7.68002 35.1565 7.63877 35.2165 7.50563 35.269C7.26185 35.3628 7.01995 35.4603 6.77242 35.5484C6.68616 35.5784 6.58865 35.6609 6.50426 35.5747C6.42175 35.4922 6.45176 35.3796 6.48176 35.2784C6.51739 35.1546 6.50989 35.0702 6.34862 35.0346C6.2061 35.0027 6.09734 34.984 6.05234 35.1565C5.91357 35.6909 5.77668 36.2254 5.63979 36.7598C5.61166 36.8705 5.63417 36.9624 5.7598 36.9755C5.86482 36.9849 6.00358 37.1124 6.06359 36.8911C6.12735 36.6586 6.29987 36.5217 6.52864 36.4448C6.76867 36.3642 7.00307 36.2648 7.2431 36.1785C7.54501 36.0697 7.84879 35.9647 8.14507 35.8616H8.13757ZM10.4516 58.1189C10.7029 58.1508 10.7235 58.3515 10.7891 58.4959C10.8435 58.614 10.8585 58.7153 11.0329 58.6384C11.1773 58.5746 11.2898 58.5409 11.2129 58.344C10.9991 57.7945 10.791 57.2432 10.5941 56.6881C10.521 56.4837 10.4085 56.5119 10.2472 56.5662C10.0597 56.6281 10.1309 56.7388 10.1684 56.8494C10.1853 56.8982 10.2059 56.9469 10.2228 56.9957C10.2997 57.2113 10.2566 57.3145 10.0447 57.397C9.82902 57.4814 9.61149 57.5601 9.39584 57.6426C9.30021 57.6783 9.20645 57.6745 9.10894 57.6464C8.55012 57.4851 7.98943 57.3276 7.43249 57.1607C7.2881 57.1176 7.14559 57.0482 7.09683 56.8888C7.02182 56.6488 6.87368 56.7913 6.75554 56.8194C6.59802 56.8588 6.65241 56.9694 6.69178 57.0688C6.84743 57.4814 7.0087 57.8902 7.15496 58.3065C7.21122 58.4659 7.26935 58.5128 7.44562 58.4565C7.63689 58.3946 7.62939 58.3009 7.56751 58.1583C7.54501 58.104 7.5225 58.0458 7.51688 57.9877C7.50375 57.8658 7.55063 57.8002 7.68377 57.8377C7.99881 57.9277 8.31384 58.0196 8.63076 58.1077C8.75827 58.1433 8.78265 58.1977 8.70014 58.3121C8.54825 58.524 8.40948 58.7472 8.26509 58.9628C8.20883 59.0472 8.16383 59.1691 8.04569 59.1635C7.91067 59.156 7.87692 59.0191 7.84879 58.9178C7.80191 58.7453 7.70065 58.7603 7.57501 58.8072C7.44 58.8578 7.37061 58.9141 7.44187 59.0885C7.64439 59.5854 7.82629 60.0917 8.00818 60.598C8.05694 60.7349 8.11882 60.7706 8.25571 60.7162C8.37385 60.6693 8.49574 60.643 8.42261 60.4724C8.34385 60.2886 8.3851 60.1217 8.49574 59.9661C8.79765 59.531 9.10331 59.0997 9.40147 58.6609C9.66212 58.2783 10.1122 58.2952 10.4478 58.1189H10.4516ZM84.8994 43.6326C84.9294 43.4732 84.8375 43.2782 84.8544 43.0757C84.8713 42.8638 84.8094 42.6612 84.8075 42.4512C84.8075 42.3425 84.7532 42.2918 84.6425 42.2824C84.4062 42.2599 84.3744 42.2899 84.3894 42.545C84.4044 42.785 84.3219 42.8731 84.1568 42.7775C83.8718 42.6144 83.5999 42.4306 83.3205 42.2581C83.2324 42.2037 83.2286 42.1418 83.3017 42.0799C83.5474 41.8755 83.793 41.6674 84.0481 41.4723C84.1737 41.3748 84.2693 41.4255 84.2975 41.5886C84.305 41.6317 84.2994 41.6786 84.3069 41.7236C84.3312 41.8849 84.4494 41.8905 84.5769 41.8905C84.7119 41.8905 84.77 41.8268 84.7625 41.6974C84.7494 41.5117 84.7344 41.3261 84.7194 41.1404C84.6894 40.7766 84.6538 40.4128 84.6331 40.049C84.6256 39.9065 84.5525 39.8953 84.4437 39.899C84.3369 39.9028 84.2168 39.8934 84.2168 40.0453C84.2168 40.3416 84.0387 40.5197 83.8212 40.6829C83.5643 40.876 83.3261 41.0898 83.0673 41.2792C82.8761 41.418 82.7279 41.6374 82.4917 41.688C82.2235 41.7443 81.9441 41.7555 81.6666 41.7461C81.4847 41.7405 81.4097 41.6542 81.3947 41.4892C81.389 41.4217 81.3984 41.3523 81.3871 41.2867C81.3684 41.1873 81.3628 41.0729 81.1996 41.1029C81.0665 41.1254 80.924 41.1029 80.9296 41.3129C80.9352 41.538 80.9784 41.7574 80.9821 41.9824C80.9915 42.3687 81.0384 42.755 81.0684 43.1413C81.0759 43.2295 81.1246 43.2688 81.2109 43.2838C81.4565 43.3232 81.5184 43.2651 81.4865 43.0232C81.4415 42.6931 81.5222 42.5919 81.8522 42.5637C81.9047 42.56 81.9535 42.5394 82.006 42.5356C82.3173 42.5131 82.6248 42.4812 82.9079 42.6819C83.2305 42.9107 83.5774 43.1038 83.9037 43.3251C84.1493 43.492 84.4512 43.6026 84.5056 43.9702C84.5244 44.0996 84.6988 44.0471 84.8038 44.0433C84.9276 44.0396 84.905 43.942 84.9013 43.8577C84.8975 43.7977 84.9013 43.7376 84.9013 43.6326H84.8994ZM61.7255 11.6483C61.7724 11.0295 62.0556 10.5307 62.5019 10.1106C62.7982 9.83308 63.1376 9.72057 63.5276 9.86309C63.9139 10.0056 64.1539 10.27 64.2046 10.6994C64.229 10.9001 64.1933 11.0876 64.1408 11.2695C64.0771 11.4871 64.2458 11.5002 64.3583 11.5658C64.4971 11.6465 64.5384 11.5377 64.589 11.442C64.7578 11.1176 64.9303 10.7951 65.0991 10.4688C65.1403 10.39 65.2453 10.3019 65.1272 10.2156C65.0259 10.1406 64.9153 10.0262 64.7709 10.1425C64.634 10.2531 64.559 10.2269 64.469 10.0675C64.1071 9.42428 63.2895 9.15987 62.7475 9.233C61.5624 9.39427 60.8198 10.4707 60.9511 11.6089C61.0542 12.4997 61.8793 13.2048 62.7138 13.231C63.2295 13.2479 63.627 12.9966 63.9327 12.5916C63.9945 12.5091 64.1258 12.4341 63.9964 12.3122C63.8352 12.1584 63.6495 12.1471 63.5407 12.2653C63.3438 12.4791 63.1188 12.6478 62.8207 12.6797C62.3012 12.7378 61.6674 12.2859 61.7274 11.6446L61.7255 11.6483ZM76.1159 24.9214C75.5196 25.0114 74.8933 24.1638 75.2346 23.5431C75.5909 22.8961 76.1534 22.5079 76.8885 22.4141C77.6048 22.3223 78.1562 22.9917 77.9536 23.6818C77.8974 23.8712 77.7999 24.0456 77.6442 24.1675C77.4473 24.3213 77.5261 24.4469 77.6386 24.5988C77.7792 24.7863 77.873 24.6213 77.9705 24.5594C78.2612 24.3757 78.5462 24.1844 78.8294 23.9894C78.9025 23.9387 79.0319 23.905 78.9662 23.7737C78.9006 23.6462 78.8481 23.4737 78.6475 23.5337C78.4956 23.5806 78.4656 23.513 78.4618 23.3837C78.4618 23.3255 78.4318 23.2674 78.4262 23.2093C78.3287 22.3354 77.558 21.6434 76.5585 21.6603C75.6978 21.6753 74.9289 22.2397 74.6233 23.0555C74.3213 23.8562 74.6233 24.6063 75.1464 25.1014C75.6527 25.5815 76.2528 25.5627 76.8585 25.2889C76.9279 25.257 77.076 25.2589 77.016 25.1014C76.9279 24.8726 76.7872 24.7638 76.6391 24.822C76.4703 24.8876 76.2997 24.9364 76.1197 24.9232L76.1159 24.9214ZM5.84606 53.9821C5.85544 54.5578 6.01108 54.9967 6.36737 55.3398C6.85305 55.8105 7.43624 55.9924 8.1132 55.8837C9.59649 55.6436 10.2678 54.2241 9.57024 52.947C9.30208 52.4557 8.8164 52.3057 8.29697 52.2869C7.8863 52.2738 7.83191 52.3582 7.9388 52.6695C7.99881 52.8476 8.13758 52.8214 8.26884 52.8214C8.71889 52.8251 9.09018 53.0689 9.21582 53.4421C9.36584 53.8903 9.25708 54.3459 8.87641 54.6047C8.3551 54.961 7.77191 55.1354 7.13809 55.0042C6.403 54.8523 6.05234 54.0215 6.47801 53.4646C6.62428 53.2733 6.80805 53.1214 7.03495 53.0239C7.22247 52.9433 7.10996 52.8007 7.08933 52.677C7.06495 52.5326 6.98057 52.5494 6.87368 52.5776C6.51927 52.6713 6.16485 52.7557 5.81044 52.8457C5.70917 52.872 5.56103 52.8476 5.58729 53.0239C5.60979 53.172 5.62291 53.3333 5.84231 53.3164C5.9792 53.3052 5.98108 53.3858 5.9492 53.4908C5.89294 53.6765 5.83481 53.864 5.84981 53.9784L5.84606 53.9821ZM27.8461 12.7397C28.0542 12.7697 28.2755 12.7078 28.4968 12.6291C29.4269 12.2897 29.7607 11.5358 29.485 10.6038C29.4344 10.435 29.3669 10.4275 29.2093 10.4857C28.9618 10.5776 28.9899 10.7388 29.0331 10.932C29.1212 11.322 29.0331 11.6652 28.7087 11.9127C28.3149 12.2128 27.8836 12.2578 27.5217 11.9859C26.9085 11.5227 26.5972 10.8963 26.6441 10.1125C26.6816 9.45241 27.5573 8.98359 28.1536 9.3924C28.3036 9.49554 28.448 9.6043 28.5493 9.75245C28.6843 9.94935 28.7968 9.7862 28.9131 9.74307C29.0556 9.68869 28.9918 9.59305 28.9487 9.50491C28.7818 9.17112 28.6149 8.83545 28.448 8.50165C28.3392 8.28412 28.2774 8.27475 28.0767 8.41352C27.9848 8.47727 27.9736 8.56166 27.9886 8.6498C28.0148 8.80169 27.9473 8.82982 27.8161 8.81294C27.1635 8.72856 26.6403 8.98734 26.2446 9.47678C25.8883 9.91934 25.7721 10.4425 25.8696 11.0126C26.029 11.9446 26.8466 12.7941 27.8479 12.7435L27.8461 12.7397ZM18.0087 16.072C18.0087 15.6164 18.3031 15.2413 18.7682 15.1194C19.1545 15.02 19.4751 15.1776 19.762 15.4007C19.9495 15.5451 20.0077 15.382 20.1089 15.3013C20.2308 15.2038 20.1652 15.1307 20.0846 15.0444C19.8352 14.7781 19.5933 14.5025 19.3457 14.2343C19.2838 14.1668 19.2332 14.0074 19.1113 14.118C19.0157 14.2043 18.7907 14.2549 18.9275 14.4762C18.9894 14.5775 18.9876 14.6487 18.8319 14.6656C17.8849 14.7706 17.1799 15.7964 17.3542 16.7903C17.583 18.0973 19.2707 19.1812 20.6115 18.0786C21.2678 17.5404 21.3991 16.5652 20.8571 15.9164C20.8196 15.8714 20.7859 15.817 20.7109 15.8433C20.5346 15.9033 20.4258 16.1583 20.5084 16.329C20.604 16.524 20.7071 16.7284 20.6827 16.9459C20.6077 17.6604 19.867 18.0598 19.2126 17.7635C18.8957 17.6191 18.6575 17.3828 18.4419 17.1259C18.1943 16.8315 17.9956 16.5071 18.0087 16.072ZM66.4473 15.0257C66.3254 15.0125 66.2204 14.9713 66.1192 14.9225C65.8566 14.7912 65.626 14.615 65.3878 14.4481C65.2697 14.3656 65.2547 14.3112 65.3447 14.1837C65.761 13.5911 66.1623 12.9873 66.5711 12.3909C66.9161 11.8884 66.9068 11.9802 67.278 12.2222C67.4524 12.3347 67.4731 12.1809 67.5462 12.1003C67.6325 12.0046 67.6475 11.9259 67.5256 11.8452C67.068 11.5358 66.6086 11.2301 66.1585 10.9076C66.0104 10.8007 65.9373 10.8288 65.8379 10.9676C65.7329 11.1139 65.7591 11.1908 65.9054 11.2845C66.1717 11.4571 66.1792 11.5358 66.0048 11.7871C65.5997 12.3703 65.1984 12.9535 64.7953 13.5386C64.574 13.8611 64.544 13.8799 64.2365 13.6567C64.0264 13.5048 64.0077 13.698 63.9195 13.7861C63.7977 13.9061 63.8895 13.968 63.9795 14.0299C64.829 14.6131 65.6822 15.1888 66.528 15.7795C66.6967 15.8976 66.7886 15.8526 66.8861 15.7082C67.1018 15.3857 67.3231 15.065 67.5406 14.7462C67.6137 14.6394 67.7 14.5475 67.5237 14.4406C67.3831 14.3562 67.2705 14.2756 67.1599 14.4668C67.1374 14.5062 67.1149 14.5456 67.0849 14.5775C66.8955 14.765 66.7417 15.0013 66.4492 15.0294L66.4473 15.0257ZM81.239 29.2438C81.2465 29.422 81.1321 29.4688 81.0215 29.512C80.3539 29.7708 79.6863 30.0295 79.0169 30.2865C78.6475 30.4271 78.6231 30.4215 78.4656 30.0558C78.3831 29.8627 78.2687 29.9639 78.1543 29.9939C78.023 30.0277 77.9911 30.0989 78.0418 30.2264C78.4243 31.2072 78.8031 32.188 79.18 33.1706C79.2325 33.3075 79.3132 33.3356 79.4388 33.285C79.8401 33.1237 80.2414 32.9606 80.6464 32.8068C80.7589 32.7637 80.774 32.7055 80.7365 32.6005C80.6746 32.4261 80.5996 32.3061 80.3839 32.4224C80.3014 32.4674 80.2001 32.4805 80.1045 32.5011C79.6995 32.5949 79.4594 32.488 79.2813 32.1148C79.1688 31.8804 79.0881 31.6291 78.9794 31.3929C78.9119 31.2485 78.9437 31.1866 79.0919 31.1303C79.8176 30.8547 80.5396 30.5677 81.2634 30.2883C81.5409 30.1814 81.6328 30.2264 81.7434 30.504C81.7566 30.5377 81.7716 30.5734 81.7866 30.6071C81.8728 30.7909 81.9966 30.6746 82.1091 30.6484C82.2497 30.6146 82.2329 30.5302 82.1916 30.4252C81.9928 29.917 81.7978 29.4088 81.6028 28.9006C81.5465 28.7563 81.4884 28.6831 81.3046 28.7638C81.1415 28.835 81.119 28.9044 81.1828 29.0488C81.2128 29.1163 81.2259 29.1913 81.239 29.2401V29.2438ZM47.8321 7.78343C47.8321 7.59215 47.8321 7.43463 47.8321 7.27711C47.8321 7.16085 47.8133 7.06896 47.6671 7.06333C47.5377 7.05771 47.4233 7.06896 47.4008 7.22836C47.3895 7.30149 47.3783 7.3765 47.3727 7.44964C47.337 7.97471 47.0876 8.21099 46.5626 8.23349C46.3657 8.24287 46.1763 8.17161 45.9831 8.18849C45.7731 8.20724 45.7187 8.1191 45.715 7.91845C45.7018 7.22836 45.7881 6.54389 45.7675 5.8538C45.7544 5.38686 45.7994 5.35123 46.2475 5.31747C46.255 5.31747 46.2625 5.31747 46.27 5.31747C46.4332 5.31747 46.4388 5.20496 46.4388 5.08494C46.4388 4.9593 46.4219 4.85241 46.2625 4.85991C45.715 4.88992 45.1712 4.80365 44.6255 4.80928C44.4398 4.81116 44.3929 4.89554 44.4023 5.06056C44.4154 5.27247 44.5842 5.26309 44.7136 5.26872C44.9105 5.27622 44.9761 5.38123 44.9855 5.55188C44.9893 5.62689 44.993 5.7019 44.9855 5.77691C44.9011 6.42387 44.963 7.07646 44.9049 7.7253C44.8711 8.0966 44.8768 8.13035 44.5186 8.13973C44.3367 8.14536 44.3142 8.23912 44.3123 8.38539C44.3123 8.53541 44.3648 8.61042 44.5223 8.60292C45.1149 8.56916 45.7018 8.67043 46.2944 8.64792C46.7145 8.63105 47.1289 8.71918 47.5489 8.69668C47.6971 8.68918 47.7721 8.65917 47.7983 8.48853C47.8377 8.24099 47.8265 7.99533 47.834 7.78343H47.8321ZM77.0929 62.5914C77.1548 62.6196 77.2167 62.6421 77.2767 62.6739C77.9086 63.0115 78.5387 63.3528 79.1725 63.6866C79.5269 63.8741 79.5494 63.9172 79.3563 64.266C79.2832 64.3992 79.3094 64.4723 79.4463 64.5211C79.5513 64.5586 79.6413 64.6973 79.7463 64.4929C79.9939 64.0072 80.2564 63.5309 80.5302 63.0584C80.6371 62.8727 80.5602 62.7977 80.4139 62.7077C80.2376 62.5989 80.2001 62.7246 80.1383 62.839C79.9901 63.109 79.9095 63.139 79.6488 63.0002C79.0413 62.6796 78.4393 62.3495 77.8317 62.027C77.4305 61.8151 77.4192 61.8057 77.6199 61.4063C77.6892 61.2675 77.6292 61.215 77.5167 61.1719C77.4098 61.1325 77.3048 60.9956 77.2036 61.1887C76.9523 61.6726 76.701 62.1564 76.4347 62.6308C76.3335 62.8127 76.401 62.8915 76.5491 62.9834C76.7235 63.0902 76.7685 62.9721 76.8266 62.854C76.8829 62.7377 76.9673 62.6458 77.0929 62.5877V62.5914ZM71.0678 14.6975C71.0754 14.6356 71.0435 14.6075 71.006 14.5775C70.569 14.2174 70.1321 13.8555 69.6933 13.4955C69.6033 13.4204 69.517 13.3192 69.4064 13.4917C69.322 13.6211 69.2414 13.6999 69.4233 13.8311C69.6877 14.0243 69.6933 14.1087 69.4908 14.3618C69.0464 14.915 68.6001 15.4645 68.135 15.9989C67.8894 16.2821 67.8762 16.3271 67.5574 16.0702C67.5293 16.0477 67.4956 16.027 67.4618 16.012C67.2874 15.9352 67.2837 16.1302 67.1955 16.1883C67.1262 16.2352 67.1449 16.2933 67.2143 16.3496C67.6606 16.7115 68.1106 17.0678 68.5401 17.4485C68.7388 17.6248 68.7951 17.441 68.8889 17.3528C69.0164 17.231 68.8945 17.1822 68.8101 17.1184C68.5588 16.9253 68.5401 16.7996 68.7201 16.584C69.1795 16.0345 69.6371 15.4832 70.0946 14.9338C70.3459 14.6319 70.3853 14.6262 70.6872 14.8625C70.7359 14.9 70.7772 14.9975 70.8503 14.9413C70.9385 14.8756 71.0229 14.7987 71.0678 14.7012V14.6975ZM72.628 20.9608C72.5155 20.9946 72.4424 21.0865 72.3749 21.1709C72.3205 21.2384 72.4049 21.2909 72.4443 21.3396C72.7987 21.7822 73.1531 22.2247 73.5075 22.6654C73.5544 22.7254 73.6106 22.7461 73.6856 22.7123C73.8975 22.6148 73.9332 22.4835 73.7944 22.2941C73.6069 22.0372 73.5919 22.0203 73.8338 21.8159C74.4301 21.3078 75.0414 20.8164 75.6471 20.3214C75.7615 20.2276 75.8721 20.2651 75.964 20.3626C76.0147 20.417 76.0559 20.4789 76.1028 20.5389C76.2284 20.702 76.3109 20.5408 76.3991 20.492C76.5022 20.4339 76.5153 20.3476 76.4347 20.2501C76.0672 19.8075 75.6996 19.3669 75.3396 18.9187C75.274 18.8362 75.2346 18.8193 75.1427 18.883C74.912 19.0443 74.9045 19.0518 75.0677 19.2731C75.2608 19.5356 75.2589 19.5788 75.0095 19.785C74.4395 20.2539 73.8657 20.7208 73.2919 21.1859C73.0875 21.3509 72.9974 21.334 72.8324 21.1184C72.7799 21.049 72.7349 20.9646 72.628 20.9571V20.9608ZM16.3623 17.3547C16.3304 17.2385 16.2347 17.1822 16.1391 17.1222C16.0472 17.0622 16.0247 17.1409 15.9816 17.1878C15.5953 17.606 15.2128 18.0242 14.8227 18.4386C14.7383 18.5268 14.7214 18.5905 14.8171 18.6805C14.9465 18.8043 15.0571 18.868 15.2034 18.688C15.3065 18.5586 15.4265 18.4011 15.6253 18.5868C16.1841 19.1062 16.7504 19.6163 17.3074 20.1357C17.5586 20.372 17.5624 20.4133 17.3186 20.6589C17.1761 20.8014 17.2399 20.8727 17.343 20.9852C17.4724 21.1277 17.553 21.0621 17.6505 20.9571C18.0143 20.5595 18.3781 20.1638 18.7457 19.7719C18.8357 19.6744 18.83 19.6069 18.7419 19.5038C18.6106 19.3519 18.5188 19.3575 18.3837 19.5038C18.1512 19.7532 18.0893 19.7438 17.8362 19.5038C17.7218 19.3969 17.6074 19.29 17.4911 19.185C17.0542 18.7987 16.6304 18.3974 16.2029 18.0017C16.0622 17.8704 16.051 17.7354 16.1935 17.5985C16.2647 17.531 16.3173 17.4504 16.3585 17.3547H16.3623Z" fill="black"/>
<path id="Vector_2" d="M45.0305 32.8481C55.286 32.8481 65.5416 32.8481 75.7971 32.8481C76.0634 32.8481 76.2434 32.9724 76.3372 33.2212C77.2485 35.6459 77.8561 38.1419 78.1936 40.711C78.443 42.6125 78.518 44.5196 78.4374 46.4305C78.2724 50.436 77.4192 54.2972 75.8665 57.9989C75.7615 58.2465 75.6227 58.3027 75.3752 58.3027C55.1566 58.2971 34.9362 58.299 14.7177 58.299C14.4014 58.299 14.1839 58.1546 14.0651 57.8658C12.9437 55.1729 12.2011 52.3769 11.8073 49.4872C11.5373 47.5144 11.4604 45.5304 11.5448 43.5445C11.6967 39.9853 12.3905 36.5292 13.6544 33.1931C13.7419 32.9643 13.9063 32.8493 14.1476 32.8481C24.4406 32.8481 34.7337 32.8481 45.0267 32.8481H45.0305ZM44.0535 44.7165C44.0835 43.4995 44.0066 42.0087 44.0966 40.5197C44.1266 40.019 44.2748 39.8277 44.7717 39.7284C45.1505 39.6515 45.533 39.7002 45.9137 39.6946C46.105 39.6927 46.1856 39.6327 46.18 39.4339C46.1706 39.1039 46.18 38.7738 46.1762 38.4438C46.1762 38.155 46.165 38.1456 45.8668 38.1456C44.7792 38.1456 43.6935 38.1456 42.6058 38.1456C41.4732 38.1456 40.3425 38.1494 39.2098 38.1419C39.0148 38.1419 38.9417 38.2094 38.9473 38.4044C38.9567 38.7495 38.9548 39.0945 38.9473 39.4396C38.9435 39.6215 39.0073 39.6983 39.1967 39.6927C39.5492 39.6833 39.9018 39.6833 40.2543 39.6927C40.83 39.7077 41.0682 39.8634 41.1507 40.2816C41.1825 40.4428 41.2051 40.6078 41.2051 40.771C41.2107 41.7686 41.2051 42.7644 41.2107 43.762C41.2107 43.9383 41.145 44.0002 40.9725 43.9964C40.6125 43.9889 40.2524 43.9964 39.8924 43.9946C38.4897 43.9946 37.089 43.9946 35.6863 43.9946C35.5494 43.9946 35.4125 44.0114 35.4144 43.7995C35.42 42.7269 35.3994 41.6542 35.4238 40.5835C35.4388 39.9159 35.6975 39.7002 36.3689 39.6927C36.7214 39.689 37.074 39.6871 37.4265 39.6927C37.5953 39.6965 37.674 39.6402 37.6703 39.4602C37.6628 39.1001 37.6628 38.7401 37.6703 38.38C37.674 38.2038 37.6028 38.1438 37.4302 38.1438C35.1519 38.1475 32.8716 38.1475 30.5932 38.1438C30.4376 38.1438 30.3813 38.1963 30.3851 38.3519C30.3926 38.727 30.3944 39.102 30.3851 39.4771C30.3813 39.6496 30.4488 39.6965 30.6101 39.6927C30.9476 39.6852 31.287 39.6627 31.6208 39.6965C32.3165 39.7677 32.4028 39.8652 32.5116 40.4259C32.5303 40.5197 32.5228 40.621 32.5228 40.7166C32.5228 43.5651 32.5228 46.4136 32.5228 49.2621C32.5228 49.3221 32.5228 49.3822 32.5228 49.4422C32.4966 50.0216 32.2772 50.2485 31.6977 50.2841C31.3321 50.3067 30.9664 50.3235 30.6007 50.3292C30.4526 50.331 30.3813 50.3685 30.3851 50.5317C30.3944 50.8992 30.3926 51.2668 30.3851 51.6343C30.3832 51.7787 30.432 51.8331 30.5801 51.8331C32.866 51.8294 35.1519 51.8294 37.4396 51.8331C37.6009 51.8331 37.6721 51.7787 37.6703 51.6118C37.6646 51.2593 37.6646 50.9067 37.6703 50.5542C37.674 50.3873 37.6009 50.3217 37.4396 50.3329C37.0346 50.3629 36.6333 50.2823 36.2301 50.2841C35.8269 50.2841 35.5738 50.1079 35.4894 49.7891C35.4519 49.6466 35.42 49.4947 35.42 49.3484C35.4144 48.1857 35.42 47.025 35.4144 45.8623C35.4144 45.6898 35.4707 45.6223 35.6469 45.6241C37.4227 45.6279 39.2004 45.6279 40.9763 45.6241C41.1525 45.6241 41.2126 45.6917 41.2088 45.8642C41.1807 47.1 41.2594 48.3358 41.1638 49.5697C41.1319 49.986 41.01 50.166 40.6069 50.2391C40.1437 50.3235 39.6711 50.3404 39.2004 50.331C39.0167 50.3273 38.9435 50.3948 38.9473 50.5804C38.9548 50.9105 38.9567 51.2405 38.9473 51.5706C38.9417 51.7618 39.0054 51.8519 39.2061 51.835C39.3242 51.8256 39.4461 51.835 39.5661 51.835C41.6645 51.835 43.7647 51.835 45.8631 51.835C46.1706 51.835 46.1762 51.8294 46.1762 51.5181C46.1762 51.203 46.1706 50.888 46.1762 50.5729C46.18 50.4004 46.1106 50.3348 45.9362 50.3329C45.6006 50.3292 45.2649 50.3067 44.9292 50.2898C44.361 50.2598 44.1473 50.076 44.1023 49.5528C44.0741 49.2265 44.0554 48.8965 44.0535 48.5683C44.0479 47.3756 44.0516 46.1848 44.0516 44.7184L44.0535 44.7165ZM26.1752 51.8331C26.5878 51.8331 27.0003 51.8331 27.4129 51.8331C28.0954 51.8331 28.7761 51.8331 29.4587 51.8331C29.5862 51.8331 29.7044 51.8294 29.7044 51.6531C29.7044 51.2705 29.7044 50.888 29.7044 50.5054C29.7044 50.4117 29.6687 50.346 29.5656 50.3367C29.3875 50.3198 29.2074 50.286 29.0312 50.2916C28.493 50.3123 28.1086 50.0872 27.876 49.6034C27.8085 49.4628 27.7466 49.3165 27.6904 49.1702C27.0997 47.6588 26.5953 46.1155 26.0271 44.5946C25.247 42.5075 24.3956 40.4485 23.6962 38.3313C23.6512 38.1944 23.5762 38.1419 23.4355 38.1419C22.6029 38.1456 21.7722 38.1456 20.9396 38.1419C20.8046 38.1419 20.7409 38.185 20.6996 38.3182C20.5646 38.7532 20.4183 39.1845 20.2664 39.6158C19.6607 41.3373 19.0475 43.0588 18.4437 44.7822C18.1924 45.5023 17.9243 46.2149 17.7068 46.9481C17.4986 47.6494 17.2342 48.3339 16.9829 49.0202C16.7992 49.5209 16.5629 49.9841 16.0153 50.1885C15.6928 50.3085 15.3515 50.2766 15.0196 50.3235C14.8583 50.346 14.7964 50.4004 14.7983 50.5598C14.8039 50.9049 14.8058 51.2499 14.7983 51.595C14.7945 51.7694 14.8639 51.8331 15.0383 51.8312C16.9717 51.8275 18.9069 51.8275 20.8402 51.8312C20.9978 51.8312 21.0765 51.7825 21.0728 51.6118C21.0653 51.2593 21.0653 50.9067 21.0728 50.5542C21.0765 50.3892 21.0109 50.3179 20.8477 50.3292C20.4052 50.361 19.9664 50.286 19.5257 50.2804C19.0119 50.2748 18.8338 50.0254 18.9932 49.5378C19.2013 48.9058 19.4263 48.2776 19.6382 47.6475C19.6832 47.5163 19.7526 47.46 19.897 47.4619C21.2303 47.4675 22.5654 47.4656 23.8987 47.4619C24.0393 47.4619 24.1162 47.5144 24.1631 47.6475C24.3206 48.092 24.4913 48.5308 24.6507 48.9752C24.7219 49.1721 24.8082 49.3634 24.8494 49.5716C24.9226 49.941 24.7969 50.1491 24.435 50.2373C24.3413 50.2598 24.2437 50.2748 24.1481 50.2804C23.7299 50.3085 23.3118 50.3479 22.8936 50.3273C22.7229 50.3198 22.6742 50.4042 22.6761 50.5617C22.6817 50.8917 22.6892 51.2218 22.6742 51.5518C22.6648 51.775 22.7511 51.8331 22.963 51.8312C24.0356 51.8237 25.1063 51.8275 26.179 51.8275L26.1752 51.8331ZM66.6967 38.1475C65.4516 38.1475 64.2083 38.1513 62.9632 38.1438C62.7681 38.1438 62.6931 38.2075 62.6987 38.4044C62.7081 38.742 62.71 39.0795 62.6987 39.4171C62.6912 39.6177 62.7588 39.704 62.9688 39.6946C63.2688 39.6815 63.5688 39.6852 63.8689 39.6946C64.4727 39.7096 64.6883 39.8877 64.7709 40.4372C64.7859 40.5328 64.7802 40.6322 64.7802 40.7297C64.7802 43.5707 64.7802 46.4118 64.7802 49.2528C64.7802 49.3203 64.7877 49.3878 64.7784 49.4553C64.6846 50.1529 64.6096 50.1941 63.9758 50.2841C63.6514 50.3292 63.3194 50.3348 62.9913 50.3329C62.7794 50.3329 62.6912 50.3948 62.7006 50.6142C62.7137 50.9292 62.7137 51.2443 62.7006 51.5593C62.6912 51.7787 62.7775 51.8425 62.9894 51.8406C64.017 51.8312 65.0428 51.8369 66.0704 51.8369C67.2705 51.8369 68.4688 51.8331 69.6689 51.8406C69.8639 51.8406 69.9389 51.775 69.9333 51.5799C69.9239 51.2499 69.9258 50.9199 69.9333 50.5898C69.9371 50.4098 69.8733 50.3367 69.6858 50.3348C69.2901 50.331 68.8944 50.3104 68.4988 50.2898C68.045 50.2654 67.8143 50.1098 67.7374 49.7647C67.6999 49.5903 67.6699 49.414 67.6699 49.2321C67.6737 48.182 67.6699 47.1337 67.6718 46.0836C67.6718 45.596 67.6212 45.6391 68.1144 45.6298C69.5789 45.5998 71.0491 45.7273 72.5042 45.4554C73.4475 45.2791 74.1938 44.8253 74.7564 44.0396C75.4277 43.1038 75.3696 42.0405 75.2233 41.011C75.0639 39.884 74.2913 39.1752 73.2674 38.7326C72.268 38.3032 71.2122 38.17 70.1377 38.155C68.9901 38.14 67.8443 38.1513 66.6967 38.1513V38.1475ZM54.4459 51.8331C55.6761 51.8331 56.9043 51.8294 58.1345 51.8369C58.3408 51.8369 58.4158 51.7712 58.4064 51.5631C58.3933 51.2255 58.3989 50.888 58.4045 50.5504C58.4064 50.4004 58.352 50.3273 58.1945 50.3329C57.7294 50.3479 57.2681 50.3085 56.805 50.2916C56.1599 50.2654 55.9011 50.0291 55.8955 49.384C55.888 48.3489 55.8955 47.3156 55.8917 46.2805C55.8917 46.1548 55.9255 46.0517 56.0024 45.9504C56.4374 45.3616 56.8687 44.769 57.2963 44.1727C58.2489 42.8506 59.2202 41.5436 60.1935 40.2384C60.3885 39.9759 60.6548 39.7977 60.9885 39.7302C61.2042 39.6852 61.4217 39.6796 61.6374 39.6927C61.8586 39.7059 61.9262 39.6158 61.9168 39.4039C61.9037 39.0664 61.9055 38.7288 61.9168 38.3932C61.9224 38.2075 61.853 38.1438 61.6674 38.1438C59.7415 38.1475 57.8138 38.1475 55.888 38.1438C55.6967 38.1438 55.6404 38.2207 55.6461 38.3988C55.6554 38.7363 55.6592 39.0739 55.6461 39.4096C55.6367 39.629 55.7173 39.7002 55.933 39.6927C56.3005 39.6796 56.6681 39.6815 57.0337 39.6927C57.5194 39.7077 57.6882 40.0096 57.4538 40.4316C57.3563 40.6078 57.2569 40.786 57.1387 40.9491C56.443 41.9036 55.7417 42.8525 55.0441 43.807C54.9429 43.9458 54.8791 43.9552 54.7685 43.8033C54.264 43.1001 53.7971 42.3706 53.2758 41.6786C52.9776 41.2848 52.6495 40.9098 52.447 40.4541C52.2801 40.0753 52.3795 39.8034 52.7807 39.7302C53.1464 39.6627 53.5121 39.704 53.8777 39.6946C54.2209 39.6852 54.2209 39.6927 54.2209 39.3402C54.2209 39.0251 54.2134 38.7101 54.2228 38.395C54.2284 38.2094 54.159 38.1456 53.9734 38.1456C51.7625 38.1494 49.5516 38.1494 47.3408 38.1456C47.1495 38.1456 47.0932 38.2225 47.0988 38.4007C47.1082 38.7457 47.1101 39.0908 47.0988 39.4358C47.0932 39.6346 47.1701 39.6983 47.3633 39.6965C47.6745 39.6927 47.9877 39.6665 48.2952 39.7846C48.8184 39.989 49.1616 40.3884 49.4691 40.8235C50.1292 41.7574 50.7574 42.7119 51.3781 43.672C51.8581 44.4127 52.3663 45.1366 52.8689 45.8623C52.9889 46.0367 53.0395 46.2167 53.0377 46.4286C53.0301 47.3438 53.032 48.257 53.0377 49.1721C53.0377 49.3615 53.0095 49.5453 52.9776 49.7291C52.9251 50.0272 52.7507 50.2073 52.4413 50.2466C51.8844 50.316 51.3237 50.346 50.763 50.3329C50.5924 50.3292 50.5174 50.3892 50.523 50.5673C50.5324 50.8974 50.5361 51.2274 50.523 51.5556C50.5136 51.7768 50.598 51.8369 50.8099 51.8369C52.0232 51.8294 53.2383 51.8331 54.4534 51.8331H54.4459Z" fill="black"/>
<path id="Vector_3" d="M73.2431 28.2424C72.2455 28.1637 71.1935 28.0774 70.1396 27.9968C68.4069 27.8636 66.6817 27.6536 64.9584 27.4286C63.6364 27.2561 62.3181 27.0573 61.0036 26.836C58.5639 26.4272 56.1374 25.9603 53.7296 25.3958C52.7901 25.1764 51.8694 24.8689 50.9412 24.5988C48.9909 24.0306 47.0538 23.4174 45.1674 22.6617C43.5059 21.996 41.8464 21.319 40.2337 20.5389C40.018 20.4339 39.8062 20.3232 39.5905 20.2164C39.3617 20.102 39.3561 20.072 39.5324 19.8788C40.4531 18.8624 41.3588 17.831 42.2439 16.7846C43.611 15.1719 44.9761 13.5592 46.3281 11.9352C46.5232 11.7008 46.7482 11.6671 47.0013 11.6858C47.5752 11.7271 48.149 11.774 48.719 11.8452C49.4447 11.9352 50.1723 12.0271 50.8905 12.1603C52.3101 12.4247 53.7109 12.7697 55.0873 13.2104C55.7342 13.4186 56.3699 13.6624 57.0056 13.9043C58.4083 14.4387 59.749 15.1007 61.0617 15.8189C62.0649 16.3683 63.0232 16.9965 63.9776 17.6285C65.4309 18.5905 66.7342 19.7344 68.0019 20.9196C68.7238 21.5928 69.3951 22.3166 70.0477 23.0555C70.6703 23.7606 71.2666 24.4901 71.8198 25.2514C72.463 26.1347 73.063 27.046 73.62 27.9855C73.7494 28.2049 73.7231 28.2424 73.4587 28.2424C73.4062 28.2424 73.3537 28.2424 73.2449 28.2424H73.2431Z" fill="black"/>
<path id="Vector_4" d="M15.9178 60.6505C17.7555 60.8812 19.6345 61.065 21.5022 61.3556C22.9911 61.5863 24.4782 61.8263 25.9577 62.0982C27.6023 62.4002 29.2337 62.7546 30.8633 63.1259C32.1853 63.4278 33.5017 63.756 34.8143 64.0973C36.3614 64.4986 37.8578 65.0574 39.3673 65.5806C41.025 66.1544 42.6715 66.7657 44.2635 67.5027C45.7937 68.2116 47.3408 68.8848 48.8222 69.693C49.0134 69.7962 49.2028 69.903 49.3922 70.0099C49.606 70.1281 49.6098 70.1487 49.4354 70.3325C48.6497 71.1576 47.8508 71.9714 47.0782 72.8078C45.4974 74.5218 43.926 76.2433 42.3639 77.9741C42.167 78.1917 41.9608 78.2629 41.6926 78.2254C41.1394 78.1504 40.5825 78.1016 40.0293 78.0135C39.403 77.9141 38.7785 77.8054 38.1578 77.676C36.1945 77.2634 34.2818 76.6821 32.4272 75.917C30.4882 75.1162 28.6411 74.1392 26.8859 72.9916C25.8489 72.3127 24.8288 71.6076 23.8687 70.8238C22.7211 69.8843 21.6541 68.8548 20.6377 67.7746C20.0152 67.1127 19.4132 66.4245 18.8506 65.71C18.0537 64.6936 17.2961 63.6472 16.6398 62.5333C16.3285 62.0064 16.0191 61.4775 15.7153 60.9468C15.6684 60.8662 15.5765 60.7724 15.6272 60.6862C15.6759 60.6018 15.794 60.6693 15.9178 60.6543V60.6505Z" fill="black"/>
<path id="Vector_5" d="M44.8036 11.6596C44.9142 11.6858 45.0568 11.6089 45.1055 11.7177C45.1524 11.8227 45.0211 11.8959 44.9555 11.9727C43.1722 14.0655 41.4451 16.2089 39.6318 18.2773C39.133 18.8474 38.6285 19.41 38.1297 19.9819C37.524 20.6758 36.7121 21.1071 36.0032 21.6678C34.9625 22.4929 33.7286 22.9317 32.5135 23.3987C30.3232 24.2388 28.1123 25.0226 25.8921 25.7802C24.7013 26.1872 23.4843 26.5135 22.2729 26.8585C20.6884 27.3104 19.1207 27.8243 17.5511 28.3268C17.0579 28.4843 16.5629 28.6344 16.0566 28.7413C15.9947 28.7544 15.9178 28.8013 15.8709 28.73C15.8278 28.6644 15.8916 28.6044 15.9178 28.5444C16.1428 28.0212 16.4973 27.5767 16.786 27.091C16.9923 26.7422 17.2042 26.3953 17.4367 26.069C17.5342 25.9321 17.5924 25.7427 17.7593 25.649C17.8512 25.5983 17.8193 25.4877 17.8549 25.4089C17.9337 25.2327 18.1362 25.1989 18.2262 25.0283C18.3593 24.7751 18.59 24.5782 18.7325 24.3363C18.9407 23.9856 19.2613 23.7475 19.5013 23.4324C20.0395 22.7217 20.6865 22.1029 21.3034 21.4615C21.7103 21.0377 22.1173 20.6064 22.5898 20.2482C22.5954 20.2445 22.6029 20.2389 22.6048 20.2332C22.7098 19.9219 23.0811 19.8919 23.2386 19.6425C23.4168 19.3612 23.7431 19.29 23.9737 19.0818C24.2063 18.8718 24.4613 18.6861 24.7107 18.4949C25.6202 17.7973 26.5615 17.1484 27.5385 16.5502C28.5342 15.9408 29.5581 15.382 30.612 14.8756C31.6527 14.3749 32.7122 13.9268 33.7998 13.5461C35.0056 13.1242 36.2245 12.7416 37.4771 12.4772C38.201 12.3234 38.9211 12.1715 39.6524 12.059C40.8225 11.8809 41.9945 11.7758 43.1778 11.744C43.7235 11.729 44.2729 11.7496 44.8036 11.6633V11.6596Z" fill="black"/>
<path id="Vector_6" d="M45.6343 78.3173C44.8692 78.3173 44.3216 78.3192 43.776 78.3154C43.6935 78.3154 43.5734 78.3623 43.5359 78.2592C43.5059 78.1785 43.6072 78.1204 43.6616 78.0604C44.7792 76.8283 45.9025 75.6001 47.0182 74.3661C48.2577 72.9916 49.5291 71.6451 50.8118 70.3118C51.093 70.0193 51.4025 69.7605 51.7456 69.5411C52.1488 69.2823 52.5595 69.0292 52.9439 68.7441C54.0503 67.9265 55.3385 67.5158 56.6155 67.0845C58.7158 66.3738 60.8348 65.7118 62.9594 65.0761C64.769 64.5361 66.6179 64.1404 68.4444 63.6622C69.6333 63.3528 70.8128 63.0059 71.9998 62.6852C72.3973 62.5783 72.8024 62.4958 73.2037 62.4058C73.2656 62.3927 73.3462 62.3551 73.395 62.417C73.4456 62.4808 73.3856 62.5464 73.3518 62.6008C72.7968 63.469 72.2248 64.3223 71.6004 65.1455C71.0622 65.8525 70.5015 66.5407 69.9146 67.2027C69.1532 68.0578 68.3469 68.8717 67.4993 69.6443C66.9573 70.1374 66.4079 70.6194 65.8378 71.0788C65.2453 71.557 64.6152 71.9864 63.9926 72.4234C62.5168 73.4604 60.9604 74.3661 59.3346 75.1425C57.6957 75.9263 56.0098 76.5958 54.2528 77.074C53.5758 77.2578 52.9045 77.4659 52.2182 77.6084C51.2918 77.8016 50.3617 77.9816 49.4222 78.0998C48.0927 78.2648 46.7613 78.3642 45.638 78.321L45.6343 78.3173Z" fill="black"/>
<path id="Vector_7" d="M44.9817 32.2086C34.8087 32.2086 24.6357 32.2086 14.4626 32.2086C14.3464 32.2086 14.1813 32.2667 14.1232 32.1655C14.052 32.0454 14.1832 31.9179 14.2301 31.7942C14.2601 31.7154 14.3239 31.6816 14.4082 31.6835C14.4833 31.6835 14.5583 31.6835 14.6333 31.6835C34.8743 31.6835 55.1172 31.6835 75.3583 31.6835C75.7296 31.6835 75.7746 31.7192 75.8721 32.0436C75.9077 32.1636 75.8777 32.2142 75.7521 32.2123C75.6621 32.2123 75.5721 32.2123 75.4821 32.2123C65.3165 32.2123 55.151 32.2123 44.9855 32.2123L44.9817 32.2086Z" fill="black"/>
<path id="Vector_8" d="M8.49946 39.7452C8.53884 39.9646 8.46008 40.1747 8.45445 40.3922C8.4507 40.5291 8.40382 40.6116 8.2163 40.5853C7.39121 40.4635 6.56424 40.3659 5.73727 40.2572C5.62288 40.2422 5.54975 40.2009 5.58163 40.0509C5.63038 39.8259 5.64163 39.5933 5.68664 39.3683C5.77477 38.9445 6.04105 38.6857 6.46298 38.5995C6.98616 38.4944 7.49622 38.5619 7.96502 38.802C8.33444 38.9895 8.56509 39.2952 8.49758 39.7471L8.49946 39.7452Z" fill="black"/>
<path id="Vector_9" d="M42.7859 7.00333C42.7821 7.45339 42.6902 7.87907 42.3133 8.16223C41.7432 8.58979 40.9275 8.44727 40.5919 7.67279C40.3987 7.22648 40.3462 6.75017 40.4568 6.2701C40.5881 5.70378 40.9857 5.34936 41.5013 5.32123C42.0358 5.29122 42.4596 5.60064 42.649 6.16884C42.739 6.43888 42.7896 6.71829 42.7859 7.0052V7.00333Z" fill="black"/>
<path id="Vector_10" d="M79.8569 55.7186C79.8926 54.886 80.4739 54.4097 81.2596 54.5147C81.6272 54.5635 81.9722 54.6704 82.2928 54.856C82.8235 55.1617 83.0429 55.6961 82.8573 56.2193C82.6829 56.7163 82.2122 57.0726 81.5165 56.96C81.074 56.8888 80.6558 56.7744 80.2995 56.4912C80.0295 56.2775 79.8757 55.9962 79.8551 55.7186H79.8569Z" fill="black"/>
<path id="Vector_11" d="M8.28195 44.4015C8.28008 45.131 7.89378 45.5679 7.25246 45.6879C6.78366 45.776 6.32048 45.7404 5.8723 45.5623C5.47663 45.4047 5.1616 44.9566 5.19348 44.544C5.22723 44.0846 5.38475 43.6908 5.90606 43.5089C6.51175 43.297 7.11932 43.2932 7.70814 43.5876C8.10193 43.7864 8.2707 44.1221 8.28195 44.3996V44.4015Z" fill="black"/>
<path id="Vector_12" d="M53.8478 7.26774C53.8421 7.67654 53.7502 8.0666 53.5646 8.4304C53.3246 8.90296 52.837 9.15424 52.3945 9.07173C51.7663 8.95547 51.4437 8.48103 51.4269 7.97846C51.4081 7.45151 51.4925 6.95645 51.7944 6.51201C52.0869 6.08258 52.5426 5.91756 53.0414 6.06383C53.499 6.19697 53.8309 6.62828 53.8478 7.10834C53.8478 7.16085 53.8478 7.21336 53.8478 7.26586V7.26774Z" fill="black"/>
<path id="Vector_13" d="M35.5063 7.42901C35.5063 6.48013 36.0651 5.97944 36.8808 6.08821C37.1715 6.12759 37.3871 6.30011 37.5409 6.54202C37.9159 7.12897 38.0603 7.76281 37.8353 8.43602C37.6909 8.87108 37.3252 9.06798 36.8921 9.12049C36.517 9.16737 36.2151 9.0136 35.9713 8.72294C35.6263 8.31038 35.5363 7.81906 35.5044 7.42714L35.5063 7.42901Z" fill="black"/>
<path id="Vector_14" d="M10.6691 26.2828C10.9691 26.3278 11.2692 26.3766 11.5692 26.4178C11.6948 26.4347 11.6686 26.506 11.6329 26.5735C11.5486 26.7385 11.4548 26.8979 11.3685 27.0629C11.3085 27.1773 11.241 27.1698 11.1641 27.0854C10.956 26.8623 10.7497 26.6391 10.5416 26.4159C10.5172 26.3897 10.4797 26.3578 10.5041 26.3203C10.5434 26.2603 10.611 26.2903 10.6672 26.2809L10.6691 26.2828Z" fill="black"/>
<path id="Vector_15" d="M79.2625 26.5978C79.2813 26.6053 79.3263 26.6072 79.345 26.6316C79.3713 26.6653 79.3356 26.701 79.3113 26.7291C79.1106 26.9598 78.9119 27.1923 78.7093 27.423C78.6268 27.5186 78.5556 27.528 78.4918 27.3986C78.413 27.2373 78.3212 27.0835 78.2368 26.926C78.188 26.8341 78.2105 26.7685 78.3155 26.7404C78.3362 26.7347 78.3605 26.7366 78.383 26.7329C78.6699 26.6897 78.9569 26.6466 79.2625 26.5997V26.5978Z" fill="black"/>
<path id="Vector_16" d="M11.9405 65.1136C12.1317 65.1437 12.2724 65.2262 12.3755 65.3612C12.503 65.5262 12.6212 65.6987 12.7449 65.8675C12.8124 65.9594 12.7956 66.025 12.698 66.085C12.4449 66.2425 12.1936 66.4057 11.9461 66.5707C11.8636 66.6251 11.8111 66.6082 11.7586 66.5332C11.6123 66.3251 11.4773 66.1094 11.3929 65.8675C11.271 65.5168 11.5842 65.1024 11.9386 65.1155L11.9405 65.1136Z" fill="black"/>
<path id="Vector_17" d="M83.193 46.4136C83.1873 45.9354 83.1873 45.9429 83.6674 46.0142C83.8437 46.0405 84.0256 46.0292 84.2056 46.0292C84.32 46.0292 84.3875 46.063 84.3912 46.1942C84.3968 46.4493 84.3912 46.7024 84.3106 46.9481C84.2225 47.2125 84.0574 47.3288 83.7705 47.3231C83.5117 47.3175 83.3017 47.1619 83.2361 46.9256C83.2192 46.8674 83.1986 46.8093 83.1948 46.7512C83.1892 46.6387 83.193 46.5261 83.193 46.4136Z" fill="black"/>
<path id="Vector_18" d="M21.8266 41.2023C22.0348 41.7555 22.226 42.2562 22.4136 42.7569C22.7717 43.7076 23.1299 44.6603 23.4881 45.611C23.5743 45.8379 23.5556 45.8736 23.3118 45.8736C22.3911 45.8754 21.4703 45.8754 20.5477 45.8736C20.3039 45.8736 20.2758 45.8323 20.349 45.611C20.8103 44.199 21.2753 42.7869 21.7404 41.3748C21.7535 41.3336 21.7779 41.2961 21.8266 41.2004V41.2023Z" fill="black"/>
<path id="Vector_19" d="M68.7163 39.6908C69.592 39.6796 70.3871 39.7096 71.1616 39.9553C71.8948 40.1878 72.253 40.7072 72.3186 41.4442C72.3467 41.763 72.3449 42.0893 72.3092 42.4081C72.2192 43.2351 71.7035 43.6908 70.9347 43.9008C70.3253 44.0677 69.7008 44.1071 69.0726 44.1258C68.6994 44.1371 68.3244 44.1183 67.9494 44.1314C67.7356 44.1389 67.6643 44.0658 67.6662 43.8502C67.6756 42.7944 67.67 41.7386 67.67 40.6829C67.67 40.4278 67.6756 40.1728 67.67 39.9196C67.6643 39.7565 67.7281 39.6871 67.8931 39.6908C68.1931 39.6965 68.4913 39.6908 68.7182 39.6908H68.7163Z" fill="black"/>
</g>
</svg>
