<svg width="200" height="200" viewBox="0 0 200 200" fill="none" xmlns="http://www.w3.org/2000/svg">
<g id="_&#208;&#160;&#208;&#142;&#208;&#160;&#194;&#187;&#208;&#160;&#209;&#149;&#208;&#160;&#226;&#132;&#150;_1">
<path id="Vector" d="M104.531 199.986H95.534C94.8631 199.844 94.1755 199.89 93.5004 199.849C90.6793 199.669 87.8748 199.348 85.0786 198.936C80.4323 198.248 75.8609 197.219 71.3646 195.877C63.8512 193.635 56.7046 190.539 49.9121 186.618C43.353 182.83 37.3065 178.341 31.7642 173.178C27.5262 169.232 23.6675 164.936 20.1796 160.31C14.0414 152.163 9.24916 143.295 5.81961 133.69C3.63602 127.58 2.07335 121.317 1.1024 114.9C0.548173 111.212 0.156462 107.511 0.0606179 103.79C-0.026892 100.348 -0.0518948 96.9013 0.210635 93.455C0.406491 90.8839 0.656519 88.3252 1.01489 85.7748C1.68997 80.9742 2.72342 76.2527 4.10274 71.6104C8.29489 57.5085 15.2582 44.936 24.9509 33.8804C28.5805 29.7381 32.5518 25.946 36.8231 22.4663C44.6407 16.0988 53.225 11.0273 62.5677 7.25179C70.2686 4.13887 78.2362 2.03025 86.4704 0.909266C89.7166 0.46754 92.9795 0.134162 96.2507 0.0549848C100.176 -0.0366942 104.106 -0.0575303 108.027 0.309186C110.344 0.525881 112.653 0.771748 114.957 1.10929C119.603 1.79272 124.175 2.82202 128.671 4.16387C136.201 6.41001 143.364 9.51042 150.169 13.4401C156.728 17.2323 162.771 21.7204 168.313 26.8836C171.813 30.1465 175.055 33.6553 178.056 37.3892C182.64 43.0983 186.548 49.2408 189.786 55.8041C193.32 62.9718 195.958 70.4561 197.687 78.2572C198.796 83.262 199.546 88.3169 199.858 93.4426C199.9 94.1385 199.867 94.8386 200 95.5303V104.527C199.979 104.673 199.942 104.823 199.942 104.969C199.908 106.899 199.717 108.82 199.512 110.737C199.192 113.712 198.733 116.662 198.15 119.6C196.391 128.447 193.487 136.903 189.436 144.962C185.261 153.267 180.031 160.847 173.739 167.698C169.947 171.832 165.838 175.616 161.412 179.058C153.774 184.988 145.452 189.718 136.439 193.227C126.842 196.965 116.907 199.198 106.619 199.853C105.927 199.899 105.223 199.853 104.535 199.994L104.531 199.986ZM100.155 24.9667C79.5405 25.3084 61.7843 32.3802 47.2076 46.8529C32.4935 61.4591 25.3802 79.3698 25.0009 100.031C25.1926 141.72 58.5964 175.124 100.176 175.02C141.364 174.92 174.693 142.082 174.964 100.106C174.614 80.47 168.288 63.101 154.737 48.7574C139.956 33.1053 121.583 25.3459 100.151 24.9667H100.155ZM5.11119 100.389C5.18203 102.148 5.04868 104.323 5.19453 106.498C5.30288 108.086 5.45706 109.674 5.64042 111.249C5.99879 114.295 6.59053 117.312 7.15726 120.325C7.64898 122.922 8.49074 125.434 9.17832 127.985C9.62004 129.618 10.3535 131.164 10.8368 132.781C11.3661 134.544 12.237 136.161 12.8329 137.89C13.3205 139.315 14.1039 140.624 14.7415 141.991C15.5415 143.72 16.4792 145.387 17.4293 147.041C18.4502 148.817 19.5545 150.546 20.6213 152.296C20.6796 152.396 20.7296 152.53 20.863 152.517C21.1797 152.488 21.5547 151.588 21.3755 151.309C18.6294 147.1 16.2583 142.687 14.2164 138.099C12.6912 134.665 11.3786 131.156 10.2868 127.56C8.79494 122.63 7.67815 117.625 7.00724 112.512C6.64053 109.716 6.40717 106.911 6.24882 104.098C6.16131 102.577 6.21965 101.048 6.23632 99.5225C6.25299 98.1432 6.22382 96.7638 6.31133 95.3845C6.3905 94.1593 6.44051 92.93 6.55719 91.709C6.76971 89.467 7.05725 87.2334 7.41979 85.0081C8.12403 80.6783 9.14915 76.4236 10.4451 72.2397C11.6994 68.1891 13.2288 64.2428 15.0415 60.4131C16.8125 56.6709 18.7794 53.0371 21.038 49.5616C22.7049 46.9988 24.4676 44.511 26.3594 42.1106C28.0138 40.0104 29.7432 37.9726 31.585 36.039C33.1019 34.4513 34.652 32.8969 36.2689 31.405C37.6857 30.0965 39.1234 28.8214 40.6152 27.6045C43.5239 25.2375 46.5701 23.0497 49.7371 21.037C53.2333 18.8158 56.8712 16.8656 60.6217 15.1112C64.4971 13.3026 68.4809 11.7857 72.5689 10.5481C77.4652 9.06453 82.4408 7.96021 87.5206 7.29346C90.3167 6.92674 93.1212 6.69338 95.934 6.53502C97.455 6.44751 98.9844 6.52252 100.51 6.51419C102.472 6.50585 104.427 6.55169 106.385 6.70171C107.69 6.80173 108.998 6.88924 110.298 7.04342C112.453 7.30179 114.599 7.606 116.736 8.00189C120.524 8.70198 124.262 9.61877 127.933 10.7731C131.105 11.7691 134.209 12.9317 137.26 14.2652C140.535 15.6988 143.731 17.2906 146.823 19.0825C150.274 21.0786 153.578 23.2998 156.749 25.7168C159.287 27.6504 161.733 29.6923 164.038 31.8926C166.909 34.6388 169.667 37.4975 172.18 40.5896C173.885 42.6899 175.531 44.836 177.06 47.0655C178.968 49.845 180.744 52.7079 182.331 55.6833C183.919 58.6587 185.382 61.6966 186.653 64.822C188.078 68.3142 189.303 71.8771 190.282 75.5193C191.07 78.4489 191.753 81.4076 192.249 84.4038C192.57 86.3666 192.824 88.3377 193.058 90.3088C193.295 92.3049 193.403 94.3052 193.52 96.3054C193.608 97.8265 193.528 99.3558 193.541 100.881C193.566 103.244 193.441 105.594 193.258 107.949C193.124 109.636 192.941 111.316 192.716 112.987C192.316 115.979 191.749 118.942 191.036 121.876C190.132 125.622 189.028 129.306 187.669 132.919C186.828 135.156 185.919 137.365 184.902 139.532C183.79 141.912 182.623 144.262 181.302 146.529C180.494 147.921 179.648 149.292 178.818 150.671C178.731 150.813 178.606 150.946 178.748 151.121C178.956 151.38 179.177 151.63 179.385 151.884C179.523 152.055 179.581 152.017 179.706 151.838C180.744 150.375 181.615 148.817 182.511 147.271C183.627 145.333 184.715 143.378 185.615 141.32C186.236 139.899 186.94 138.511 187.557 137.082C188.574 134.723 189.378 132.294 190.282 129.893C190.941 128.143 191.303 126.309 191.853 124.53C192.395 122.784 192.808 121 193.149 119.204C193.558 117.058 193.899 114.895 194.22 112.737C194.445 111.228 194.624 109.716 194.749 108.195C194.858 106.894 194.958 105.59 194.949 104.273C194.916 100.731 195.049 97.1889 194.87 93.6509C194.77 91.6798 194.529 89.7254 194.283 87.7668C193.941 85.0498 193.395 82.3661 192.908 79.674C192.449 77.1404 191.591 74.6984 190.953 72.2022C190.453 70.2478 189.607 68.4017 189.007 66.4764C188.557 65.0429 187.849 63.701 187.315 62.2925C186.723 60.7298 185.932 59.2379 185.186 57.7461C184.215 55.8041 183.194 53.8872 182.077 52.0203C181.11 50.4034 180.135 48.7865 179.085 47.2238C178.098 45.757 177.068 44.3193 176.01 42.8941C175.131 41.7106 174.205 40.5688 173.276 39.4353C172.559 38.5602 171.822 37.6934 171.051 36.8516C169.759 35.4472 168.496 34.0137 167.13 32.6802C165.342 30.93 163.546 29.1881 161.587 27.6254C160.787 26.9878 160.087 26.2377 159.233 25.6584C158.512 25.1667 157.879 24.5416 157.166 24.0332C155.224 22.6497 153.282 21.2662 151.278 19.9702C149.778 18.9992 148.244 18.0824 146.69 17.2115C144.798 16.1488 142.906 15.0778 140.902 14.2194C139.576 13.6526 138.31 12.9609 136.955 12.4525C135.697 11.9816 134.501 11.3357 133.23 10.9273C130.88 10.173 128.592 9.22705 126.179 8.65197C123.7 8.06023 121.27 7.27679 118.741 6.8559C115.72 6.35166 112.715 5.74742 109.656 5.46821C107.956 5.31403 106.26 5.09316 104.552 5.09316C101.285 5.09316 98.0218 5.08899 94.7547 5.09733C94.1255 5.09733 93.4921 5.139 92.867 5.20568C90.9251 5.41404 88.9791 5.61407 87.0413 5.87243C84.8869 6.15997 82.7617 6.6017 80.6239 6.96008C77.9778 7.40597 75.4067 8.22692 72.8189 8.94785C70.8728 9.48959 68.9643 10.1772 67.0599 10.8648C65.5181 11.4232 63.9971 12.0441 62.4927 12.6984C60.7425 13.461 59.0007 14.2444 57.3005 15.1028C56.3712 15.5737 55.4752 16.1196 54.5293 16.5655C53.3875 17.1031 52.3582 17.8282 51.2539 18.4325C50.0538 19.0825 48.9162 19.8702 47.7619 20.6119C47.0493 21.0661 46.4034 21.6246 45.6908 22.0746C43.7864 23.2831 42.0404 24.7083 40.2735 26.1002C39.3734 26.8086 38.5108 27.5795 37.6441 28.3421C36.0064 29.7756 34.4145 31.2592 32.8602 32.7802C31.8059 33.8137 30.8349 34.9305 29.8182 36.0015C28.7264 37.1516 27.6846 38.3518 26.697 39.5853C25.8219 40.6771 24.9301 41.7606 24.0925 42.8941C23.0382 44.3193 22.0173 45.7653 21.013 47.2197C19.7754 49.0157 18.6419 50.8868 17.5709 52.7871C16.4833 54.7207 15.379 56.6501 14.4914 58.692C13.8664 60.1297 13.1538 61.5299 12.5287 62.9759C11.5161 65.3179 10.7118 67.7308 9.82006 70.1144C9.22833 71.6938 8.90746 73.3482 8.40323 74.9484C7.5573 77.6488 7.02391 80.42 6.53219 83.1953C6.11131 85.5582 5.72376 87.9293 5.49457 90.3255C5.34872 91.859 5.1612 93.3925 5.12786 94.9344C5.09036 96.6138 5.11953 98.2932 5.11953 100.389H5.11119ZM152.528 179.479C151.545 177.912 150.644 176.458 149.719 175.02C149.486 174.658 149.461 174.345 149.64 173.953C150.319 172.453 150.974 170.94 151.628 169.432C151.678 169.319 151.807 169.182 151.703 169.069C151.603 168.961 151.453 169.061 151.328 169.094C149.753 169.507 148.173 169.903 146.606 170.34C146.177 170.461 145.898 170.361 145.581 170.074C144.41 169.015 143.21 167.982 142.018 166.944C141.927 166.865 141.839 166.707 141.689 166.79C141.589 166.844 141.573 166.986 141.564 167.102C141.431 168.74 141.285 170.374 141.164 172.016C141.139 172.349 141.035 172.566 140.739 172.732C139.368 173.52 138.005 174.324 136.647 175.124C136.472 175.229 136.251 175.283 136.151 175.529C137.726 176.149 139.26 176.775 140.814 177.354C141.36 177.558 141.668 177.837 141.777 178.454C142.068 180.083 142.443 181.696 142.789 183.321C143.035 183.275 143.114 183.096 143.227 182.963C144.24 181.75 145.252 180.533 146.248 179.308C146.461 179.046 146.686 178.925 147.015 178.954C147.957 179.046 148.898 179.125 149.84 179.217C150.694 179.296 151.549 179.383 152.532 179.479H152.528ZM63.122 175.187C62.8428 175.016 62.6719 174.912 62.5052 174.812C61.1426 174.012 59.7799 173.212 58.4131 172.416C58.2047 172.295 58.038 172.161 58.0172 171.886C57.888 170.232 57.7463 168.578 57.613 166.923C57.6005 166.757 57.6255 166.552 57.463 166.477C57.3088 166.411 57.2046 166.594 57.0963 166.686C55.9045 167.723 54.7127 168.761 53.5334 169.815C53.2583 170.061 53.0125 170.153 52.6374 170.049C51.0497 169.615 49.4579 169.211 47.866 168.799C47.7285 168.761 47.5618 168.64 47.4535 168.782C47.3743 168.89 47.4993 169.032 47.5493 169.149C48.2078 170.657 48.8662 172.166 49.5412 173.67C49.7079 174.045 49.6913 174.349 49.4621 174.695C48.9745 175.429 48.5161 176.183 48.0494 176.929C47.6035 177.641 47.1535 178.358 46.6826 179.108C47.1118 179.217 47.466 179.071 47.8202 179.046C49.1245 178.942 50.4288 178.792 51.7332 178.679C52.129 178.646 52.5457 178.529 52.8791 178.946C53.7084 179.988 54.5585 181.013 55.4211 182.025C55.7128 182.367 55.942 182.78 56.3754 183.05C56.7462 181.296 57.1213 179.596 57.4588 177.887C57.5338 177.508 57.7297 177.304 58.0589 177.175C58.9256 176.837 59.7924 176.5 60.655 176.162C61.4384 175.854 62.2219 175.541 63.122 175.187ZM108.544 184.801C108.256 184.684 108.052 184.651 107.84 184.621C106.277 184.401 104.718 184.163 103.156 183.955C102.822 183.909 102.664 183.742 102.531 183.475C101.81 182.05 101.076 180.629 100.343 179.212C100.268 179.071 100.235 178.846 100.051 178.842C99.8553 178.833 99.8345 179.067 99.7636 179.208C99.0552 180.621 98.3468 182.038 97.6467 183.455C97.505 183.742 97.3383 183.921 96.9841 183.963C95.7965 184.096 94.613 184.271 93.4296 184.434C92.8212 184.517 92.2086 184.601 91.6002 184.684C91.5794 184.734 91.5585 184.784 91.5335 184.834C91.6335 184.896 91.746 184.942 91.8294 185.022C93.017 186.163 94.1922 187.322 95.3965 188.447C95.7423 188.772 95.8382 189.093 95.7507 189.547C95.4673 191.064 95.2089 192.589 94.9464 194.11C94.9214 194.252 94.788 194.423 94.9381 194.527C95.0756 194.627 95.2173 194.473 95.3423 194.406C96.7383 193.664 98.1426 192.935 99.5261 192.172C99.922 191.956 100.234 191.956 100.635 192.172C102.018 192.939 103.418 193.669 104.818 194.41C104.943 194.477 105.081 194.635 105.223 194.523C105.368 194.41 105.231 194.244 105.206 194.102C104.927 192.514 104.66 190.926 104.352 189.343C104.281 188.98 104.36 188.747 104.618 188.509C105.606 187.593 106.581 186.659 107.564 185.734C107.877 185.442 108.185 185.147 108.544 184.809V184.801ZM31.06 46.132C31.0891 46.1028 31.1225 46.0737 31.1516 46.0445C31.21 46.0653 31.2725 46.0778 31.3225 46.1112C32.4601 46.9446 33.6019 47.7697 34.7312 48.6115C35.5522 49.2241 35.5563 49.2408 34.9813 50.1284C34.7312 50.5118 35.0938 50.5701 35.2646 50.7326C35.4355 50.8952 35.6105 51.0202 35.8022 50.7576C36.5356 49.7533 37.2732 48.749 38.0066 47.7489C38.1733 47.5239 38.1399 47.3655 37.8732 47.2405C37.6399 47.1322 37.4399 46.7821 37.169 47.1613C36.6856 47.8364 36.6606 47.9698 35.8063 47.3197C35.7147 47.2488 35.6105 47.1905 35.5188 47.1238C34.327 46.2529 33.1352 45.3861 31.9434 44.5151C31.6392 44.2943 31.5517 44.0317 31.7976 43.7109C31.8767 43.6067 31.9392 43.4817 32.0267 43.3858C32.2018 43.1941 32.2143 43.0024 31.9684 42.9066C31.7434 42.8191 31.5642 42.3273 31.2392 42.7649C30.6183 43.6025 30.0099 44.4526 29.3848 45.2902C29.2264 45.5028 29.2681 45.6736 29.4015 45.8778C29.989 46.7821 30.5683 47.6906 31.1475 48.599C31.4434 49.0616 31.735 49.5241 32.0309 49.9825C32.1809 50.2117 32.0768 50.2867 31.8517 50.2534C31.7059 50.2326 31.5684 50.1659 31.4225 50.1201C30.0265 49.6867 28.6347 49.2574 27.2429 48.8199C26.9887 48.7407 26.797 48.7699 26.6345 48.9949C26.0427 49.8158 25.4552 50.641 24.8426 51.4452C24.6051 51.7578 24.6301 51.9661 24.9468 52.187C25.2468 52.3954 25.4385 52.3995 25.6719 52.0578C26.0344 51.5161 26.1761 51.5036 26.7136 51.8911C28.0013 52.8246 29.2848 53.7705 30.5599 54.7207C31.21 55.2041 31.21 55.2457 30.7724 55.9083C30.6974 56.0208 30.5224 56.0959 30.6141 56.2875C30.8266 56.7334 31.3683 56.796 31.66 56.4042C32.2226 55.6458 32.7727 54.8749 33.3519 54.1289C33.6269 53.7747 33.6019 53.5663 33.2144 53.3038C32.8352 53.0454 32.7018 53.2538 32.5101 53.4997C32.0768 54.0622 31.9976 54.0747 31.4267 53.6664C30.7141 53.1538 30.014 52.6204 29.3056 52.0995C28.7347 51.6828 28.1305 51.3119 27.6137 50.7951C27.8346 50.6368 28.0013 50.7618 28.1638 50.8118C30.0849 51.3952 32.0017 51.987 33.9228 52.5662C34.127 52.6287 34.3437 52.7787 34.5395 52.487C34.7271 52.2078 34.8521 51.9786 34.6229 51.6411C34.0978 50.8743 33.6144 50.0784 33.1102 49.2991C32.4268 48.2406 31.7434 47.1863 31.0558 46.1278L31.06 46.132ZM75.8359 21.5912C75.2983 21.5912 75.24 21.1787 75.1317 20.8828C74.5983 19.4368 74.0857 17.9782 73.5773 16.5239C73.3064 15.7446 73.3148 15.7029 74.119 15.4154C74.5066 15.2737 74.4524 15.0695 74.3566 14.7653C74.2565 14.4403 74.1274 14.3402 73.7857 14.4694C72.6355 14.9028 71.4812 15.3112 70.3228 15.7196C70.0561 15.8154 69.9894 15.9488 70.0644 16.2447C70.1769 16.7072 70.3853 16.7739 70.8062 16.6155C71.5146 16.3488 71.5812 16.3947 71.8688 17.0989C72.0438 17.5282 72.198 17.9657 72.3605 18.4033C72.4522 18.645 72.398 18.8033 72.1271 18.8909C71.5271 19.0867 70.9395 19.3076 70.3394 19.5118C69.056 19.9452 69.0643 19.941 68.6142 18.6742C68.2434 17.6323 68.1309 17.5407 69.2393 17.1531C69.6602 17.0073 69.4018 16.7281 69.3602 16.4947C69.3102 16.2238 69.156 16.1363 68.8893 16.2322C67.7183 16.6531 66.5515 17.0823 65.3764 17.4865C64.9597 17.6323 65.0555 17.8657 65.1472 18.1824C65.2555 18.5658 65.4472 18.5283 65.7431 18.4283C66.4057 18.2074 66.5682 18.3033 66.8099 18.9742C67.3433 20.4577 67.885 21.9371 68.4226 23.4206C68.6392 24.0165 68.5392 24.2666 67.935 24.4749C67.6016 24.5875 67.4683 24.7208 67.61 25.0792C67.7475 25.4334 67.9058 25.5709 68.31 25.4126C69.3893 24.9875 70.4853 24.5916 71.5812 24.2166C71.9563 24.0874 71.998 23.9124 71.9021 23.554C71.7604 23.0122 71.4437 23.2081 71.1354 23.3123C70.4645 23.5331 70.3478 23.479 70.1102 22.8247C69.9519 22.3872 69.8144 21.9413 69.6269 21.5162C69.4393 21.0911 69.5852 20.8703 69.9936 20.7328C70.8437 20.4452 71.6938 20.1619 72.5313 19.8451C72.8022 19.741 72.8814 19.8576 72.9522 20.0702C73.1064 20.5077 73.2648 20.9453 73.4148 21.3829C73.7398 22.3163 73.7398 22.3246 72.8106 22.7164C72.5397 22.8289 72.4397 22.9706 72.5897 23.2456C72.7147 23.4706 72.7022 23.8332 73.1523 23.654C73.7815 23.404 74.4357 23.2039 75.0775 22.9747C75.6234 22.7789 76.1651 22.5705 76.711 22.3705C76.9694 22.2746 76.9985 22.133 76.9152 21.8704C76.7818 21.4537 76.586 21.287 76.1609 21.4995C76.0443 21.5579 75.9109 21.5745 75.8359 21.5954V21.5912ZM182.661 84.6122C182.748 84.9206 182.531 84.9997 182.315 85.0456C181.894 85.1373 181.469 85.1998 181.044 85.2831C180.06 85.4748 179.985 85.4415 179.769 84.4622C179.694 84.1163 179.469 84.1246 179.243 84.1913C179.043 84.2496 178.706 84.2038 178.793 84.6247C179.052 85.8582 179.293 87.0917 179.523 88.3335C179.581 88.6461 179.748 88.6961 180.014 88.6794C180.514 88.6502 180.519 88.3377 180.46 87.9585C180.373 87.3501 180.473 87.2084 181.035 87.0959C182.615 86.7875 184.198 86.5124 185.769 86.1707C186.553 85.9999 186.669 86.1332 186.811 86.8708C186.899 87.3251 187.136 87.2209 187.415 87.1917C187.74 87.1584 187.836 87.0209 187.769 86.6958C187.519 85.479 187.286 84.258 187.053 83.037C186.982 82.6578 186.753 82.6911 186.457 82.7494C186.157 82.8078 185.982 82.8911 186.098 83.237C186.14 83.362 186.111 83.5037 186.144 83.6329C186.248 84.0538 186.044 84.2663 185.669 84.3538C185.169 84.4663 184.661 84.558 184.161 84.6664C183.852 84.733 183.715 84.6247 183.656 84.308C183.511 83.5079 183.331 82.7161 183.173 81.9202C183.036 81.2242 183.04 81.2242 183.765 81.0701C184.057 81.0075 184.348 80.9409 184.64 80.8867C185.507 80.7283 185.569 80.7533 185.748 81.6076C185.844 82.0743 186.098 82.0702 186.465 81.991C186.882 81.8993 186.765 81.6243 186.715 81.3701C186.498 80.2658 186.265 79.1615 186.069 78.053C186.007 77.6904 185.944 77.4612 185.486 77.5571C185.057 77.6446 185.002 77.853 185.094 78.2363C185.227 78.7906 185.098 78.9573 184.548 79.0698C182.99 79.3823 181.427 79.6907 179.869 80.0074C179.068 80.1699 178.998 80.1366 178.748 79.349C178.652 79.0448 178.502 78.9364 178.156 79.0323C177.831 79.124 177.706 79.2323 177.781 79.5782C178.018 80.695 178.231 81.8201 178.452 82.9411C178.56 83.487 178.66 83.5245 179.198 83.4079C179.694 83.2995 179.452 82.9828 179.41 82.7494C179.331 82.3244 179.343 81.9702 179.852 81.8577C180.464 81.7243 181.085 81.6118 181.702 81.4826C181.927 81.4368 182.027 81.4993 182.073 81.7368C182.26 82.6953 182.465 83.6496 182.665 84.608L182.661 84.6122ZM12.9329 114.712C12.9204 114.008 12.9829 113.908 13.7455 113.808C15.2248 113.612 16.7042 113.437 18.1877 113.287C19.0919 113.195 19.0961 113.224 19.342 114.066C19.4045 114.275 19.4753 114.404 19.7462 114.391C20.2712 114.366 20.3879 114.258 20.3171 113.72C20.2921 113.524 20.2504 113.329 20.2296 113.133C20.1212 112.212 20.0296 111.287 19.9004 110.37C19.8712 110.153 19.8587 109.82 19.4753 109.886C19.1545 109.941 18.7836 109.957 18.9003 110.47C18.9336 110.612 18.8961 110.77 18.9003 110.92C18.9169 111.232 18.7294 111.395 18.4627 111.437C17.8751 111.528 17.2792 111.582 16.6875 111.662C16.35 111.703 16.1833 111.528 16.1458 111.228C16.0333 110.341 15.9333 109.453 15.8291 108.561C15.7916 108.228 15.9249 108.086 16.2791 108.078C16.675 108.074 17.0751 108.02 17.4668 107.953C18.4252 107.786 18.5752 107.874 18.7002 108.828C18.7419 109.153 18.9294 109.228 19.1836 109.165C19.4128 109.107 19.7545 109.136 19.7003 108.715C19.5378 107.453 19.3711 106.186 19.2336 104.919C19.1878 104.498 18.9419 104.623 18.7002 104.652C18.446 104.682 18.146 104.661 18.246 105.052C18.421 105.74 18.3877 106.053 17.3334 106.165C16.0666 106.298 14.804 106.473 13.5371 106.632C13.1913 106.673 12.8454 106.74 12.4995 106.744C11.8995 106.744 11.8995 106.232 11.8536 105.848C11.7828 105.282 11.4036 105.615 11.1702 105.573C10.8785 105.523 10.8743 105.728 10.9035 105.961C11.0494 107.211 11.1827 108.465 11.3244 109.716C11.3577 109.999 11.5411 110.111 11.8203 110.074C12.287 110.011 12.3829 109.857 12.2828 109.349C12.1912 108.87 12.3537 108.578 12.8037 108.507C13.3413 108.42 13.8872 108.365 14.4289 108.303C14.6331 108.278 14.779 108.332 14.8081 108.582C14.9206 109.57 15.0457 110.557 15.1748 111.541C15.204 111.766 15.1123 111.837 14.9123 111.862C14.4539 111.92 13.9955 112.012 13.533 112.053C12.7121 112.128 12.637 112.058 12.537 111.22C12.5079 110.962 12.4287 110.728 12.1203 110.787C11.8328 110.841 11.4494 110.837 11.5161 111.324C11.6869 112.553 11.8536 113.783 12.0036 115.016C12.0328 115.233 12.1162 115.283 12.3203 115.287C12.9204 115.304 12.9454 115.287 12.9329 114.708V114.712ZM17.7501 69.7852C17.9335 69.731 17.9918 69.706 18.0543 69.6935C20.1421 69.3268 22.2256 68.9226 24.3175 68.61C25.151 68.485 25.6719 68.2017 25.8844 67.3349C26.0427 66.6931 26.1136 66.7181 25.4718 66.4639C23.6633 65.7555 21.8589 65.0471 20.0546 64.3303C19.2878 64.0261 19.2711 64.0136 19.5212 63.2135C19.6503 62.8009 19.4045 62.7551 19.1253 62.6426C18.8336 62.5259 18.6961 62.5301 18.5752 62.8718C18.2252 63.8386 17.8543 64.8012 17.4418 65.743C17.2751 66.1222 17.3709 66.2514 17.7126 66.4181C18.2377 66.6723 18.296 66.2889 18.421 65.9763C18.6627 65.3763 18.7961 65.3138 19.392 65.5471C20.3963 65.9389 21.4047 66.3181 22.4048 66.7265C22.634 66.8223 22.9215 66.8515 23.1007 67.1182C22.9174 67.1723 22.7632 67.239 22.6007 67.2682C20.6755 67.6057 18.7502 67.9433 16.825 68.26C16.5542 68.3058 16.4041 68.4058 16.3083 68.6434C15.9541 69.556 15.5957 70.4686 15.2332 71.3771C15.1498 71.5896 15.1915 71.7063 15.4124 71.8021C15.9874 72.0522 16.0124 72.0563 16.2625 71.4396C16.4333 71.0104 16.6833 70.8353 17.1459 71.0312C17.8626 71.3354 18.5919 71.6146 19.317 71.898C20.1337 72.2189 20.9588 72.5272 21.7756 72.8564C22.3923 73.1065 22.4548 73.2565 22.2465 73.8691C22.2215 73.9483 22.209 74.0358 22.1673 74.1066C21.9298 74.4983 22.2673 74.5483 22.4923 74.6484C22.7382 74.7609 22.9382 74.8025 23.0674 74.4442C23.4341 73.4482 23.8342 72.4647 24.2467 71.4854C24.4217 71.0687 24.3425 70.8853 23.8967 70.7312C23.5258 70.602 23.4716 70.7895 23.3674 71.027C22.9924 71.8771 22.9882 71.873 22.1215 71.5313C21.4755 71.2729 20.8213 71.0312 20.1712 70.777C19.392 70.4686 18.6169 70.1519 17.7376 69.7935L17.7501 69.7852ZM185.944 111.407C185.786 111.687 185.565 111.745 185.373 111.824C183.577 112.562 181.802 113.349 179.973 113.999C179.139 114.295 178.689 114.716 178.677 115.591C178.677 115.625 178.66 115.654 178.656 115.687C178.614 116.021 178.656 116.237 179.085 116.304C181.065 116.604 183.04 116.95 185.015 117.275C185.84 117.408 185.919 117.483 185.798 118.304C185.728 118.788 186.086 118.638 186.294 118.717C186.557 118.817 186.711 118.733 186.757 118.454C186.924 117.425 187.099 116.396 187.253 115.366C187.286 115.129 187.399 114.808 186.961 114.766C186.623 114.733 186.357 114.666 186.29 115.187C186.19 115.966 185.94 116.083 185.152 115.941C184.794 115.879 184.436 115.825 184.073 115.762C183.202 115.616 182.331 115.471 181.39 115.312C181.623 115.037 181.873 114.991 182.09 114.9C183.794 114.2 185.498 113.512 187.203 112.812C187.432 112.72 187.69 112.633 187.736 112.341C187.882 111.391 188.007 110.441 188.165 109.495C188.219 109.161 188.157 108.99 187.794 108.965C187.469 108.94 187.24 108.911 187.207 109.382C187.157 110.066 186.911 110.241 186.378 110.153C184.861 109.899 183.34 109.641 181.823 109.382C180.806 109.211 180.798 109.207 180.869 108.186C180.885 107.932 180.889 107.753 180.569 107.769C180.31 107.782 179.981 107.528 179.906 108.061C179.748 109.174 179.539 110.282 179.348 111.391C179.285 111.753 179.56 111.799 179.798 111.866C180.056 111.937 180.264 111.866 180.339 111.582C180.385 111.407 180.419 111.228 180.456 111.049C180.519 110.728 180.714 110.603 181.027 110.653C182.644 110.907 184.261 111.162 185.936 111.424L185.944 111.407ZM159.754 36.7724C159.9 36.985 159.8 37.1391 159.762 37.2975C159.291 39.2144 158.82 41.1272 158.354 43.0441C158.049 44.2943 158.066 44.2818 158.95 45.1861C159.229 45.4694 159.395 45.4694 159.67 45.1861C161.012 43.8192 162.371 42.4732 163.725 41.1188C164.45 40.3937 164.454 40.3854 165.325 40.9605C165.642 41.1688 165.734 40.8771 165.892 40.7438C166.046 40.6146 166.213 40.4688 165.996 40.2521C165.196 39.452 164.396 38.6518 163.596 37.8517C163.438 37.6892 163.296 37.7017 163.121 37.8476C162.667 38.2143 162.658 38.2726 163.092 38.7227C163.558 39.2103 163.558 39.4103 163.087 39.8853C162.279 40.698 161.466 41.5106 160.65 42.319C160.537 42.4315 160.446 42.5899 160.254 42.5857C160.125 42.4232 160.225 42.269 160.262 42.1106C160.712 40.2562 161.158 38.4018 161.621 36.5557C161.712 36.1807 161.687 35.9015 161.387 35.6181C160.754 35.0264 160.15 34.4096 159.55 33.7845C159.316 33.5428 159.158 33.5178 158.899 33.7679C158.608 34.0512 158.583 34.2346 158.891 34.5305C159.387 35.0014 159.37 35.2139 158.899 35.6848C157.82 36.7683 156.733 37.8517 155.649 38.9352C154.941 39.6436 154.924 39.6603 154.241 38.9686C153.945 38.6685 153.786 38.7977 153.553 39.0227C153.307 39.2561 153.278 39.4228 153.541 39.6728C154.295 40.4021 155.028 41.1522 155.77 41.8939C156.187 42.3107 156.228 42.2982 156.608 41.8606C156.941 41.4772 156.558 41.3314 156.383 41.1397C155.928 40.6479 155.916 40.5563 156.387 40.0812C157.233 39.2311 158.079 38.381 158.929 37.5392C159.187 37.285 159.408 36.9891 159.758 36.7849L159.754 36.7724ZM15.529 83.6579C13.9497 83.7329 12.7496 84.2997 12.0912 85.7707C11.7953 86.4333 11.6578 87.1209 11.5661 87.8293C11.3911 89.1586 11.1869 90.4838 11.0202 91.809C10.991 92.034 10.8743 92.3507 11.3327 92.3966C11.7119 92.4299 11.9911 92.4132 11.9995 91.9507C12.0078 91.3714 12.3287 91.2131 12.8454 91.2839C13.0079 91.3048 13.1788 91.2964 13.3413 91.3173C14.7331 91.5048 16.1291 91.6965 17.5209 91.8882C18.2752 91.9923 18.5711 92.1674 18.3419 92.93C18.2585 93.2092 18.3752 93.4009 18.6877 93.38C18.9378 93.3634 19.3045 93.5967 19.342 93.055C19.3836 92.4299 19.517 91.809 19.5837 91.1839C19.7254 89.7921 20.1171 88.421 19.9337 87C19.8129 86.0666 19.4712 85.2623 18.7044 84.6497C17.7501 83.8913 16.6208 83.7746 15.5374 83.6579H15.529ZM92.8378 10.7856C91.3043 10.7981 90.0917 11.0773 89.1207 11.9941C87.8498 13.1901 87.5872 14.6778 87.9289 16.3322C88.1665 17.4615 88.7374 18.3616 89.7125 18.9784C90.8834 19.7201 92.1586 19.8243 93.4921 19.5659C94.413 19.3868 95.2548 19.0242 95.8965 18.3491C97.3925 16.7739 97.4342 14.3569 96.3174 12.64C95.4631 11.3273 94.1505 10.7939 92.8378 10.7814V10.7856ZM180.76 119.242C179.919 119.254 179.677 119.338 179.198 119.513C177.143 120.254 176.164 123.03 176.414 124.859C176.802 127.697 179.869 128.926 182.031 128.397C184.857 127.705 185.982 124.105 185.082 121.913C184.294 119.996 182.706 119.304 180.756 119.246L180.76 119.242ZM14.954 103.586C16.4916 103.694 17.871 102.96 18.6127 101.865C19.292 100.856 19.4628 99.7309 19.4337 98.5432C19.3878 96.618 18.071 94.9261 16.2 94.5135C14.4914 94.1385 12.9079 94.3885 11.6786 95.747C10.6618 96.8763 10.4285 98.239 10.5826 99.7351C10.8368 102.181 12.7746 103.706 14.954 103.59V103.586ZM117.199 21.2245C118.453 21.2828 119.541 20.8786 120.387 19.966C121.454 18.8158 121.733 17.3865 121.549 15.8863C121.429 14.9278 120.924 14.1277 120.166 13.486C119.387 12.8275 118.487 12.5317 117.499 12.3691C115.595 12.0524 113.982 12.7025 112.969 14.3402C112.119 15.7154 111.99 17.8449 113.036 19.2826C114.065 20.6994 115.524 21.1828 117.191 21.2245H117.199ZM81.4074 21.312C82.22 21.387 83.0325 21.1537 83.8118 20.8119C85.6412 20.0035 86.5746 18.0657 86.1704 16.0321C85.9954 15.1487 85.6828 14.3319 85.0494 13.686C83.8951 12.5067 82.47 12.1983 80.8823 12.4983C78.532 12.9401 76.8693 14.5569 76.9735 16.9573C77.0819 19.4993 78.8237 21.4329 81.4032 21.312H81.4074ZM166.075 146.516C165.975 147.591 168.059 149.063 169.83 148.008C170.488 147.616 170.988 147.075 171.543 146.575C171.984 146.175 172.376 145.708 172.934 145.462C173.589 145.174 174.355 145.725 174.218 146.404C174.085 147.066 173.764 147.641 173.201 148.062C172.405 148.654 171.543 148.679 170.647 148.367C170.163 148.2 170.155 148.642 169.976 148.85C169.747 149.121 170.026 149.233 170.188 149.342C170.78 149.738 171.384 150.117 171.988 150.5C172.176 150.617 172.364 150.867 172.597 150.65C172.818 150.446 172.984 150.175 172.818 149.85C172.689 149.6 172.755 149.475 173.018 149.371C174.139 148.913 174.826 148.054 175.193 146.925C175.576 145.737 175.235 144.649 174.297 144.024C173.276 143.337 172.284 143.433 171.243 144.283C170.684 144.737 170.192 145.25 169.68 145.745C169.38 146.033 169.063 146.304 168.671 146.462C168.046 146.716 167.417 146.283 167.363 145.616C167.288 144.704 168.546 143.095 169.817 143.062C170.292 143.049 170.743 143.133 171.18 143.295C171.638 143.462 171.693 143.041 171.868 142.816C172.068 142.557 171.847 142.449 171.655 142.324C170.918 141.845 170.188 141.353 169.447 140.878C169.313 140.795 169.142 140.599 168.98 140.845C168.834 141.07 168.517 141.299 168.763 141.582C169.167 142.041 168.859 142.137 168.501 142.32C167.1 143.024 166.217 144.104 166.071 146.512L166.075 146.516ZM178.243 135.657C178.11 135.648 177.977 135.652 177.847 135.627C177.393 135.544 177.41 135.961 177.285 136.19C177.135 136.465 177.389 136.561 177.589 136.648C178.277 136.944 178.96 137.24 179.648 137.523C179.819 137.594 180.052 137.761 180.189 137.544C180.323 137.34 180.514 137.098 180.31 136.815C180.052 136.461 180.256 136.277 180.544 136.052C181.748 135.115 182.331 133.885 182.052 132.356C181.765 130.777 179.656 129.864 178.381 130.918C177.672 131.502 177.193 132.252 176.639 132.948C176.306 133.36 176.031 133.827 175.547 134.09C174.926 134.427 174.21 134.044 174.176 133.34C174.126 132.331 174.551 131.544 175.347 130.943C176.006 130.443 176.756 130.402 177.531 130.531C177.981 130.606 177.973 130.214 178.114 129.985C178.248 129.764 178.135 129.618 177.91 129.522C177.085 129.172 176.268 128.806 175.443 128.464C175.293 128.401 175.068 128.189 174.951 128.514C174.86 128.772 174.555 129.035 174.918 129.31C175.268 129.577 175.156 129.747 174.843 129.96C173.572 130.823 172.88 132.002 172.955 133.573C173.001 134.548 173.451 135.282 174.343 135.711C175.164 136.107 175.976 136.107 176.752 135.569C177.252 135.227 177.652 134.794 178.01 134.302C178.46 133.685 178.873 133.044 179.419 132.502C179.756 132.164 180.119 132.085 180.544 132.331C180.96 132.573 181.085 132.96 181.015 133.39C180.798 134.686 179.739 135.782 178.256 135.657H178.243ZM48.9912 27.7504C48.9912 29.2172 50.1288 30.2841 51.5206 30.0965C52.1457 30.0132 52.7541 29.8465 53.3417 29.609C53.8792 29.3923 54.4126 29.1547 54.9877 29.0422C55.4586 28.9505 55.8628 29.038 56.1795 29.4589C56.4795 29.8632 56.4337 30.259 56.1545 30.6049C55.3086 31.6634 53.7834 32.2593 52.4874 31.3842C52.2707 31.2383 52.0749 31.0508 51.8748 30.88C51.4873 30.5466 51.2831 30.9633 51.0206 31.1008C50.733 31.2467 50.9372 31.4425 51.0372 31.5967C51.504 32.3218 51.9832 33.0386 52.4582 33.7595C52.5666 33.9262 52.6624 34.1554 52.9083 34.0346C53.1541 33.9137 53.4917 33.7762 53.3917 33.4303C53.25 32.9386 53.4917 32.9302 53.8626 32.8969C54.796 32.8177 55.6919 32.601 56.4545 32.0009C57.388 31.2634 57.8964 30.3382 57.6713 29.1339C57.3755 27.5712 56.0545 26.8127 54.3668 27.2586C53.3583 27.5253 52.3832 27.9046 51.3914 28.2338C50.9997 28.363 50.6955 28.1796 50.4622 27.9171C50.2038 27.6254 50.1205 27.2378 50.358 26.9003C50.8247 26.246 51.4331 25.7959 52.2791 25.7043C53.1083 25.6168 53.7792 25.9335 54.3626 26.4627C54.7377 26.8044 54.9294 26.446 55.1711 26.3085C55.4502 26.1502 55.3086 25.9626 55.1794 25.7709C54.7252 25.0959 54.2751 24.4166 53.8459 23.729C53.725 23.5373 53.5959 23.5165 53.4334 23.6165C53.2125 23.7582 52.9625 23.8832 52.9875 24.2166C53.0083 24.4624 52.8875 24.5541 52.6416 24.5916C52.154 24.6708 51.654 24.7041 51.1831 24.8917C49.9871 25.3667 48.8662 26.5335 48.9912 27.7462V27.7504ZM28.2221 137.465C28.2221 137.298 28.2347 137.132 28.2221 136.965C28.1096 135.715 27.6388 134.656 26.5636 133.931C25.1343 132.969 22.7007 133.794 22.684 135.757C22.6799 136.34 22.7174 136.907 22.8465 137.473C23.0257 138.278 23.3591 139.057 23.3049 139.907C23.2841 140.261 23.1257 140.491 22.8049 140.636C22.484 140.786 22.1881 140.774 21.9214 140.545C21.6714 140.328 21.4255 140.107 21.263 139.803C20.6255 138.594 20.8296 137.423 21.9089 136.494C22.2798 136.173 21.9506 135.965 21.8673 135.719C21.7881 135.482 21.6172 135.432 21.3922 135.548C20.6838 135.911 19.967 136.265 19.2628 136.64C19.1169 136.719 18.8836 136.798 18.9586 137.036C19.0294 137.269 19.1044 137.544 19.417 137.561C19.842 137.586 19.9337 137.84 19.9087 138.207C19.8962 138.424 19.892 138.64 19.9087 138.857C20.0337 140.215 20.6671 141.249 21.8964 141.866C23.1716 142.503 25.2885 141.545 25.151 139.757C25.0801 138.819 24.8884 137.924 24.6676 137.023C24.5759 136.653 24.5009 136.282 24.5259 135.89C24.5592 135.423 24.8051 135.127 25.2218 134.944C25.6302 134.765 25.9219 134.961 26.1969 135.231C27.4304 136.44 27.5679 138.278 26.0427 139.465C25.651 139.77 25.9511 140.02 26.0594 140.291C26.1803 140.599 26.3928 140.553 26.6261 140.428C27.4054 140.02 28.1846 139.611 28.9639 139.203C29.1348 139.111 29.3681 139.049 29.2348 138.774C29.1223 138.54 29.0472 138.174 28.718 138.269C28.0846 138.453 28.1805 138.086 28.2221 137.715C28.2305 137.632 28.2221 137.548 28.2221 137.465ZM129.971 18.0991C129.905 18.4325 129.863 18.8158 129.738 19.1742C129.596 19.5868 129.838 19.6535 130.125 19.7618C130.43 19.8743 130.605 19.8618 130.713 19.4951C130.955 18.6825 131.209 17.874 131.526 17.0906C131.688 16.6864 131.605 16.5364 131.217 16.4072C129.104 15.7071 127 14.9945 124.891 14.2819C124.579 14.1777 124.321 14.0027 124.116 14.5111C123.916 15.0028 124.171 15.0695 124.5 15.207C125.129 15.4696 125.158 15.5529 124.95 16.1822C124.458 17.6657 123.966 19.1451 123.462 20.6244C123.179 21.4579 123.079 21.5329 122.283 21.2578C121.829 21.1036 121.837 21.3745 121.729 21.6329C121.595 21.9413 121.641 22.1121 121.987 22.2246C123.141 22.5914 124.291 22.9789 125.437 23.3706C125.75 23.479 125.904 23.4373 126.025 23.0914C126.154 22.708 126.112 22.5288 125.7 22.3997C124.941 22.158 124.883 22.0288 125.108 21.3328C125.283 20.7953 125.487 20.2702 125.675 19.7368C125.729 19.5868 125.783 19.4576 125.975 19.4576C126.392 19.4576 126.808 19.8326 126.854 20.2702C126.883 20.5369 126.85 20.7994 126.767 21.0578C126.625 21.5079 126.954 21.5704 127.258 21.6871C127.617 21.8246 127.688 21.587 127.771 21.3412C128.109 20.316 128.425 19.2826 128.8 18.2699C128.971 17.8074 128.821 17.6615 128.4 17.5448C127.958 17.424 127.892 17.7407 127.758 17.9907C127.429 18.6116 127.158 18.7117 126.5 18.52C126.221 18.4408 126.146 18.3033 126.229 18.0532C126.417 17.4865 126.608 16.9198 126.792 16.3488C126.858 16.1446 126.975 16.0446 127.2 16.1238C127.888 16.3697 128.6 16.5364 129.254 16.8739C129.742 17.1239 129.9 17.5573 129.967 18.1032L129.971 18.0991ZM27.4762 59.0046C27.5721 59.0046 27.6388 58.9963 27.7054 59.0046C28.5805 59.1546 29.0597 59.1421 28.3472 60.1839C28.218 60.3714 28.2055 60.5256 28.4347 60.684C28.9389 61.0299 29.0389 61.0215 29.3348 60.4756C29.8682 59.5005 30.3807 58.5128 30.9225 57.5419C31.0725 57.2752 31.1016 57.096 30.7808 56.9501C30.5099 56.8251 30.2474 56.6001 30.0557 57.0502C29.889 57.4377 29.5598 57.5169 29.1848 57.4627C27.1512 57.1752 25.1218 56.8668 23.0882 56.6043C22.709 56.5542 22.2548 56.2834 21.9339 56.5709C21.5422 56.921 21.2714 57.4252 21.1713 57.9419C21.1088 58.267 21.4839 58.5045 21.6964 58.742C23.0341 60.2381 24.3925 61.7216 25.7427 63.2051C26.1094 63.6052 26.2969 64.0511 25.9886 64.5553C25.7594 64.9262 26.0511 64.9721 26.2553 65.0846C26.4928 65.2138 26.722 65.3554 26.9012 64.9762C27.1429 64.4678 27.4262 63.9761 27.6929 63.4802C27.9346 63.026 28.193 62.5801 28.4138 62.1175C28.6222 61.6841 28.168 61.7091 27.9846 61.5508C27.7971 61.3924 27.6804 61.4507 27.5512 61.6508C26.9303 62.6384 26.922 62.6342 26.1594 61.7424C26.1469 61.7299 26.1386 61.7174 26.1261 61.7049C25.8761 61.4424 25.8469 61.184 26.0469 60.8632C26.3553 60.3714 26.6386 59.863 26.9053 59.3463C27.0387 59.0879 27.1554 58.8587 27.4762 59.0046ZM172.214 59.6963C172.501 59.663 172.68 59.788 172.809 60.0464C173.047 60.5215 173.28 61.0007 173.56 61.4507C173.822 61.88 173.826 62.18 173.418 62.5551C172.651 63.2635 172.664 63.3052 172.13 62.3717C171.913 61.9925 171.701 62.205 171.468 62.3009C171.234 62.4009 171.063 62.5009 171.234 62.8176C171.813 63.9011 172.372 64.9971 172.926 66.093C173.068 66.3764 173.243 66.3472 173.443 66.2056C173.635 66.0722 174.08 66.0555 173.851 65.6805C173.535 65.1554 173.776 64.7929 174.093 64.4386C175.535 62.8134 176.989 61.1965 178.439 59.5797C178.606 59.3921 178.823 59.2046 178.677 58.9296C178.431 58.4712 178.335 57.9169 177.868 57.5961C177.822 57.5627 177.735 57.5794 177.672 57.5877C175.806 57.8586 173.939 58.1461 172.072 58.4045C171.238 58.5212 170.33 58.9462 169.722 57.8794C169.58 57.6294 169.309 57.9044 169.121 58.0169C168.955 58.117 168.813 58.2128 168.938 58.4503C169.451 59.4171 169.959 60.3881 170.467 61.3591C170.584 61.5799 170.738 61.6133 170.963 61.5007C171.443 61.2674 171.484 61.1674 171.234 60.6798C170.984 60.1881 171.022 59.9172 171.38 59.8255C171.651 59.7547 171.934 59.7338 172.214 59.6922V59.6963ZM26.0136 142.953C25.2635 143.074 24.5551 143.362 24.1092 144.083C23.7633 144.641 23.755 145.262 23.955 145.854C24.6176 147.8 26.0136 149.321 27.0303 151.063C27.0804 151.146 27.1595 151.192 27.2845 151.163C27.7596 151.038 27.9221 150.692 27.6971 150.263C27.3512 149.617 27.3596 149.554 27.9805 149.15C29.2723 148.308 30.5683 147.475 31.8767 146.65C32.6602 146.158 32.6893 146.158 33.1977 146.908C33.4852 147.333 33.6728 146.958 33.8936 146.879C34.1353 146.791 34.227 146.641 34.0561 146.379C33.3561 145.308 32.6768 144.229 31.9809 143.158C31.9142 143.053 31.8517 142.92 31.6809 142.937C31.1642 142.987 30.9475 143.42 31.2225 143.866C31.3017 143.991 31.3683 144.129 31.4308 144.262C31.5475 144.508 31.5059 144.699 31.2642 144.858C30.7474 145.187 30.2349 145.525 29.7265 145.875C29.4431 146.066 29.2598 146.004 29.0806 145.729C28.7014 145.145 28.3097 144.566 27.9054 143.999C27.4554 143.37 26.8387 143.016 26.0136 142.953ZM180.144 102.219C180.144 102.485 180.152 102.752 180.144 103.019C180.127 103.361 180.281 103.494 180.619 103.49C180.935 103.49 181.048 103.361 181.077 103.044C181.115 102.669 181.06 102.156 181.602 102.106C182.177 102.052 182.765 102.023 183.344 102.14C183.965 102.265 184.032 102.331 183.927 102.952C183.811 103.648 183.873 104.332 183.923 105.032C184.04 106.661 185.503 107.232 186.811 106.911C187.865 106.653 188.19 105.773 188.353 104.852C188.653 103.181 188.536 101.477 188.661 99.7934C188.686 99.46 188.59 99.2808 188.199 99.2517C187.786 99.2225 187.686 99.4225 187.64 99.7559C187.549 100.439 187.519 100.485 186.836 100.46C185.277 100.41 183.723 100.323 182.165 100.268C181.319 100.239 181.302 100.26 181.269 99.4058C181.252 99.0433 181.081 98.9558 180.764 98.96C180.464 98.96 180.219 99.0016 180.244 99.385C180.302 100.335 180.144 101.273 180.144 102.219ZM18.0835 79.6907C18.5752 79.8115 19.0419 79.9241 19.5087 80.0449C20.4629 80.2908 20.5254 80.37 20.2879 81.3034C20.1921 81.6826 20.2629 81.841 20.6546 81.9327C21.038 82.0243 21.1588 81.8827 21.2422 81.5451C21.5506 80.3074 21.8798 79.0739 22.2048 77.8363C22.284 77.5321 22.3423 77.2695 21.9048 77.1612C21.5131 77.0653 21.3047 77.132 21.2505 77.5571C21.2297 77.7363 21.1463 77.9071 21.0838 78.078C20.9672 78.3905 20.7713 78.5155 20.4254 78.4114C19.9337 78.2655 19.4295 78.1655 18.9294 78.0405C18.6669 77.9738 18.4502 77.8404 18.2752 77.6196C17.4918 76.632 16.7 75.6568 15.9124 74.6692C15.6707 74.365 15.4665 74.0649 15.604 73.6274C15.7207 73.2523 15.3582 73.2607 15.1457 73.1857C14.929 73.1106 14.7164 73.1231 14.6456 73.4148C14.3831 74.4442 14.1205 75.4693 13.8539 76.4986C13.7913 76.7361 13.8872 76.882 14.1039 76.9695C14.5789 77.157 14.6956 77.0987 14.8456 76.5903C14.8998 76.3944 14.9456 76.1861 15.1665 76.1236C15.404 76.061 15.529 76.2569 15.6541 76.4069C16.0458 76.8778 16.4083 77.3779 16.8125 77.8363C17.0667 78.1238 16.975 78.2572 16.6792 78.3739C16.1374 78.5822 15.5999 78.7989 15.0498 78.9948C14.8581 79.0614 14.6414 79.2448 14.4539 79.0531C14.2706 78.8698 14.3372 78.6197 14.4039 78.3947C14.4831 78.1197 14.4664 77.9321 14.108 77.853C13.7913 77.7821 13.5496 77.7404 13.4496 78.1238C13.1413 79.3115 12.8371 80.4991 12.5329 81.6868C12.4704 81.9327 12.5204 82.1369 12.7996 82.166C13.0329 82.1869 13.3413 82.4702 13.4746 81.9785C13.6163 81.4618 13.9997 81.1576 14.5081 80.9867C15.0415 80.8075 15.5624 80.5866 16.0958 80.395C16.7667 80.1533 17.4418 79.9199 18.1002 79.6907H18.0835ZM23.2257 129.152C23.7841 129.222 23.83 129.668 23.9758 129.989C24.0967 130.252 24.13 130.477 24.5176 130.306C24.8384 130.164 25.0885 130.089 24.9176 129.652C24.4426 128.431 23.98 127.205 23.5425 125.972C23.3799 125.518 23.1299 125.58 22.7715 125.701C22.3548 125.839 22.5132 126.084 22.5965 126.33C22.634 126.439 22.6799 126.547 22.7174 126.655C22.8882 127.135 22.7924 127.364 22.3215 127.547C21.8423 127.735 21.3589 127.91 20.8797 128.093C20.6671 128.172 20.4588 128.164 20.2421 128.101C19.0003 127.743 17.7543 127.393 16.5167 127.022C16.1958 126.926 15.8791 126.772 15.7707 126.418C15.6041 125.884 15.2748 126.201 15.0123 126.264C14.6623 126.351 14.7831 126.597 14.8706 126.818C15.2165 127.735 15.5749 128.643 15.8999 129.568C16.0249 129.922 16.1541 130.027 16.5458 129.902C16.9709 129.764 16.9542 129.556 16.8167 129.239C16.7667 129.118 16.7167 128.989 16.7042 128.86C16.675 128.589 16.7792 128.443 17.0751 128.526C17.7751 128.726 18.4752 128.931 19.1795 129.127C19.4628 129.206 19.517 129.327 19.3336 129.581C18.9961 130.052 18.6877 130.548 18.3669 131.027C18.2418 131.214 18.1418 131.485 17.8793 131.473C17.5793 131.456 17.5043 131.152 17.4418 130.927C17.3376 130.543 17.1126 130.577 16.8334 130.681C16.5333 130.793 16.3791 130.918 16.5375 131.306C16.9875 132.41 17.3918 133.535 17.796 134.661C17.9043 134.965 18.0418 135.044 18.346 134.923C18.6086 134.819 18.8794 134.761 18.7169 134.381C18.5419 133.973 18.6336 133.602 18.8794 133.256C19.5503 132.289 20.2296 131.331 20.8922 130.356C21.4714 129.506 22.4715 129.543 23.2174 129.152H23.2257ZM188.665 96.9597C188.732 96.6055 188.528 96.1721 188.565 95.722C188.603 95.2511 188.465 94.8011 188.461 94.3343C188.461 94.0926 188.34 93.9801 188.094 93.9593C187.569 93.9093 187.499 93.976 187.532 94.5427C187.565 95.0761 187.382 95.272 187.015 95.0594C186.382 94.6969 185.778 94.2885 185.157 93.9051C184.961 93.7843 184.952 93.6467 185.115 93.5092C185.661 93.055 186.207 92.5924 186.773 92.159C187.053 91.9423 187.265 92.0549 187.328 92.4174C187.344 92.5133 187.332 92.6174 187.349 92.7174C187.403 93.0758 187.665 93.0883 187.949 93.0883C188.249 93.0883 188.378 92.9466 188.361 92.6591C188.332 92.2466 188.299 91.834 188.265 91.4214C188.199 90.613 188.119 89.8046 188.074 88.9961C188.057 88.6794 187.894 88.6544 187.653 88.6627C187.415 88.6711 187.149 88.6502 187.149 88.9878C187.149 89.6462 186.753 90.0421 186.269 90.4046C185.698 90.8339 185.169 91.3089 184.594 91.7298C184.169 92.0382 183.84 92.5258 183.315 92.6383C182.719 92.7633 182.098 92.7883 181.481 92.7675C181.077 92.755 180.91 92.5633 180.877 92.1965C180.865 92.0465 180.885 91.8923 180.86 91.7465C180.819 91.5256 180.806 91.2714 180.444 91.3381C180.148 91.3881 179.831 91.3381 179.844 91.8048C179.856 92.3049 179.952 92.7925 179.96 93.2925C179.981 94.151 180.085 95.0094 180.152 95.8679C180.169 96.0637 180.277 96.1512 180.469 96.1846C181.015 96.2721 181.152 96.1429 181.081 95.6053C180.981 94.8719 181.16 94.6469 181.894 94.5844C182.01 94.576 182.119 94.5302 182.235 94.5219C182.927 94.4719 183.611 94.401 184.24 94.8469C184.957 95.3553 185.728 95.7845 186.453 96.2763C186.999 96.6471 187.669 96.893 187.79 97.7098C187.832 97.9973 188.219 97.8806 188.453 97.8723C188.728 97.864 188.678 97.6473 188.67 97.4598C188.661 97.3264 188.67 97.193 188.67 96.9597H188.665ZM137.168 25.8835C137.272 24.5083 137.901 23.3998 138.893 22.4663C139.551 21.8496 140.306 21.5995 141.172 21.9163C142.031 22.233 142.564 22.8205 142.677 23.7748C142.731 24.2207 142.652 24.6375 142.535 25.0417C142.393 25.5251 142.769 25.5542 143.019 25.7001C143.327 25.8793 143.419 25.6376 143.531 25.4251C143.906 24.7041 144.29 23.9874 144.665 23.2623C144.756 23.0872 144.99 22.8914 144.727 22.6997C144.502 22.533 144.256 22.2788 143.935 22.5372C143.631 22.783 143.464 22.7247 143.264 22.3705C142.46 20.9411 140.643 20.3535 139.439 20.5161C136.805 20.8745 135.155 23.2664 135.447 25.7959C135.676 27.7754 137.51 29.3423 139.364 29.4006C140.51 29.4381 141.393 28.8797 142.073 27.9796C142.21 27.7962 142.502 27.6295 142.214 27.3587C141.856 27.0169 141.443 26.9919 141.202 27.2545C140.764 27.7295 140.264 28.1046 139.601 28.1754C138.447 28.3046 137.039 27.3003 137.172 25.8751L137.168 25.8835ZM169.146 55.3791C167.821 55.5791 166.43 53.6955 167.188 52.3162C167.98 50.8785 169.23 50.0159 170.863 49.8075C172.455 49.6033 173.68 51.091 173.23 52.6246C173.105 53.0454 172.889 53.433 172.543 53.7039C172.105 54.0456 172.28 54.3248 172.53 54.6623C172.843 55.079 173.051 54.7123 173.268 54.5748C173.914 54.1664 174.547 53.7414 175.176 53.308C175.339 53.1955 175.626 53.1205 175.481 52.8288C175.335 52.5454 175.218 52.162 174.772 52.2953C174.435 52.3995 174.368 52.2495 174.36 51.962C174.36 51.8328 174.293 51.7036 174.28 51.5744C174.064 49.6325 172.351 48.0948 170.13 48.1323C168.217 48.1656 166.509 49.42 165.829 51.2327C165.159 53.0121 165.829 54.679 166.992 55.7791C168.117 56.846 169.451 56.8043 170.797 56.1959C170.951 56.125 171.28 56.1292 171.147 55.7791C170.951 55.2707 170.638 55.029 170.309 55.1582C169.934 55.3041 169.555 55.4124 169.155 55.3833L169.146 55.3791ZM12.9913 119.959C13.0121 121.238 13.358 122.213 14.1497 122.976C15.229 124.022 16.525 124.426 18.0293 124.184C21.3255 123.651 22.8174 120.496 21.2672 117.658C20.6713 116.566 19.592 116.233 18.4377 116.191C17.5251 116.162 17.4043 116.35 17.6418 117.042C17.7751 117.437 18.0835 117.379 18.3752 117.379C19.3753 117.387 20.2004 117.929 20.4796 118.758C20.813 119.754 20.5713 120.767 19.7254 121.342C18.5669 122.134 17.2709 122.521 15.8624 122.23C14.2289 121.892 13.4496 120.046 14.3956 118.808C14.7206 118.383 15.129 118.046 15.6332 117.829C16.0499 117.65 15.7999 117.333 15.7541 117.058C15.6999 116.737 15.5124 116.775 15.2748 116.837C14.4873 117.046 13.6997 117.233 12.9121 117.433C12.6871 117.492 12.3578 117.437 12.4162 117.829C12.4662 118.158 12.4954 118.517 12.9829 118.479C13.2871 118.454 13.2913 118.633 13.2204 118.867C13.0954 119.279 12.9663 119.696 12.9996 119.95L12.9913 119.959ZM61.8801 28.3088C62.3427 28.3755 62.8344 28.2379 63.3261 28.0629C65.393 27.3087 66.1348 25.6334 65.5222 23.5623C65.4097 23.1873 65.2597 23.1706 64.9097 23.2998C64.3596 23.504 64.4221 23.8624 64.5179 24.2916C64.7138 25.1584 64.5179 25.921 63.797 26.471C62.9219 27.1378 61.9635 27.2378 61.1592 26.6336C59.7966 25.6043 59.1048 24.2124 59.209 22.4705C59.2924 21.0036 61.2384 19.9618 62.5636 20.8703C62.8969 21.0995 63.2178 21.3412 63.4428 21.6704C63.7429 22.108 63.9929 21.7454 64.2512 21.6496C64.5679 21.5287 64.4263 21.3162 64.3304 21.1203C63.9595 20.3786 63.5887 19.6326 63.2178 18.8909C62.9761 18.4075 62.8386 18.3866 62.3927 18.695C62.1885 18.8367 62.1635 19.0242 62.1968 19.2201C62.2552 19.5576 62.1052 19.6201 61.8135 19.5826C60.3633 19.3951 59.2007 19.9702 58.3214 21.0578C57.5297 22.0413 57.2713 23.2039 57.488 24.4708C57.8422 26.5419 59.6591 28.4296 61.8843 28.3171L61.8801 28.3088ZM40.0193 35.7139C40.0193 34.7013 40.6736 33.8679 41.707 33.597C42.5654 33.3761 43.278 33.7262 43.9156 34.2221C44.3323 34.543 44.4615 34.1804 44.6865 34.0012C44.9574 33.7845 44.8115 33.622 44.6323 33.4303C44.0781 32.8386 43.5406 32.226 42.9905 31.6301C42.853 31.48 42.7405 31.1258 42.4696 31.3717C42.2571 31.5634 41.757 31.6759 42.0612 32.1676C42.1987 32.3927 42.1946 32.551 41.8487 32.5885C39.7443 32.8219 38.1774 35.1014 38.565 37.31C39.0734 40.2146 42.8238 42.6232 45.8033 40.1729C47.2618 38.9769 47.5535 36.8099 46.3492 35.3681C46.2659 35.2681 46.1909 35.1472 46.0242 35.2055C45.6325 35.3389 45.3908 35.9056 45.5741 36.2849C45.7866 36.7183 46.0158 37.1725 45.9617 37.6559C45.795 39.2436 44.149 40.1312 42.6946 39.4728C41.9904 39.1519 41.4612 38.6268 40.9819 38.0559C40.4319 37.4017 39.9902 36.6807 40.0193 35.7139ZM147.661 33.3886C147.39 33.3595 147.156 33.2678 146.931 33.1594C146.348 32.8677 145.836 32.476 145.306 32.1051C145.044 31.9218 145.01 31.8009 145.21 31.5175C146.136 30.2007 147.027 28.8589 147.936 27.5337C148.702 26.4169 148.682 26.6211 149.507 27.1586C149.894 27.4087 149.94 27.067 150.103 26.8878C150.294 26.6752 150.328 26.5002 150.057 26.321C149.04 25.6334 148.019 24.9542 147.019 24.2374C146.69 23.9999 146.527 24.0624 146.306 24.3708C146.073 24.6958 146.131 24.8667 146.456 25.075C147.048 25.4584 147.065 25.6334 146.677 26.1918C145.777 27.4878 144.885 28.7838 143.989 30.084C143.498 30.8008 143.431 30.8425 142.748 30.3466C142.281 30.009 142.239 30.4382 142.043 30.6341C141.773 30.9008 141.977 31.0383 142.177 31.1758C144.064 32.4718 145.961 33.7512 147.84 35.0639C148.215 35.3264 148.419 35.2264 148.636 34.9055C149.115 34.1887 149.607 33.4761 150.09 32.7677C150.253 32.5302 150.444 32.326 150.053 32.0885C149.74 31.9009 149.49 31.7217 149.244 32.1468C149.194 32.2343 149.144 32.3218 149.078 32.3927C148.657 32.8094 148.315 33.3345 147.665 33.397L147.661 33.3886ZM180.531 64.9846C180.548 65.3804 180.294 65.4846 180.048 65.5805C178.564 66.1555 177.081 66.7306 175.593 67.3015C174.772 67.6141 174.718 67.6016 174.368 66.789C174.185 66.3597 173.93 66.5848 173.676 66.6514C173.384 66.7264 173.314 66.8848 173.426 67.1682C174.276 69.3476 175.118 71.5271 175.956 73.7107C176.072 74.0149 176.251 74.0774 176.531 73.9649C177.422 73.6065 178.314 73.244 179.214 72.9023C179.464 72.8064 179.498 72.6773 179.414 72.4439C179.277 72.0563 179.11 71.7896 178.631 72.048C178.448 72.148 178.223 72.1772 178.01 72.223C177.11 72.4314 176.577 72.1939 176.181 71.3646C175.931 70.8437 175.751 70.2853 175.51 69.7602C175.36 69.4393 175.431 69.3018 175.76 69.1768C177.372 68.5642 178.977 67.9266 180.585 67.3057C181.202 67.0682 181.406 67.1682 181.652 67.7849C181.681 67.8599 181.715 67.9391 181.748 68.0141C181.94 68.4225 182.215 68.1641 182.465 68.1058C182.777 68.0308 182.74 67.8433 182.648 67.6099C182.206 66.4806 181.773 65.3513 181.34 64.2219C181.215 63.9011 181.085 63.7386 180.677 63.9177C180.314 64.0761 180.264 64.2303 180.406 64.5512C180.473 64.7012 180.502 64.8679 180.531 64.9762V64.9846ZM106.294 17.2948C106.294 16.8697 106.294 16.5197 106.294 16.1697C106.294 15.9113 106.252 15.7071 105.927 15.6946C105.639 15.6821 105.385 15.7071 105.335 16.0613C105.31 16.2238 105.285 16.3905 105.273 16.553C105.193 17.7199 104.639 18.2449 103.472 18.2949C103.035 18.3158 102.614 18.1574 102.185 18.1949C101.718 18.2366 101.597 18.0407 101.589 17.5948C101.56 16.0613 101.751 14.5403 101.706 13.0067C101.676 11.9691 101.776 11.8899 102.772 11.8149C102.789 11.8149 102.806 11.8149 102.822 11.8149C103.185 11.8149 103.197 11.5649 103.197 11.2982C103.197 11.019 103.16 10.7814 102.806 10.7981C101.589 10.8648 100.38 10.6731 99.1677 10.6856C98.7552 10.6897 98.651 10.8773 98.6718 11.244C98.701 11.7149 99.076 11.694 99.3636 11.7066C99.8011 11.7232 99.947 11.9566 99.9678 12.3358C99.9761 12.5025 99.9845 12.6692 99.9678 12.8359C99.7803 14.2736 99.9178 15.7238 99.7886 17.1656C99.7136 17.9907 99.7261 18.0657 98.9302 18.0866C98.526 18.0991 98.476 18.3074 98.4718 18.6325C98.4718 18.9659 98.5885 19.1326 98.9385 19.1159C100.255 19.0409 101.56 19.2659 102.876 19.2159C103.81 19.1784 104.731 19.3743 105.664 19.3242C105.993 19.3076 106.16 19.2409 106.219 18.8617C106.306 18.3116 106.281 17.7657 106.298 17.2948H106.294ZM171.318 139.09C171.455 139.153 171.593 139.203 171.726 139.274C173.13 140.024 174.53 140.782 175.939 141.524C176.727 141.941 176.777 142.037 176.347 142.812C176.185 143.108 176.243 143.27 176.547 143.378C176.781 143.462 176.981 143.77 177.214 143.316C177.764 142.237 178.348 141.178 178.956 140.128C179.193 139.715 179.023 139.549 178.698 139.349C178.306 139.107 178.223 139.386 178.085 139.64C177.756 140.241 177.577 140.307 176.997 139.999C175.647 139.286 174.31 138.553 172.959 137.836C172.068 137.365 172.043 137.344 172.489 136.457C172.643 136.148 172.509 136.032 172.259 135.936C172.022 135.848 171.788 135.544 171.563 135.973C171.005 137.048 170.447 138.124 169.855 139.178C169.63 139.582 169.78 139.757 170.109 139.961C170.497 140.199 170.597 139.936 170.726 139.674C170.851 139.415 171.038 139.211 171.318 139.082V139.09ZM157.929 32.6594C157.945 32.5219 157.874 32.4593 157.791 32.3927C156.82 31.5926 155.849 30.7883 154.874 29.9882C154.674 29.8215 154.482 29.5965 154.236 29.9798C154.049 30.2674 153.87 30.4424 154.274 30.7341C154.862 31.1633 154.874 31.3509 154.424 31.9134C153.436 33.1428 152.445 34.3638 151.411 35.5514C150.865 36.1807 150.836 36.2807 150.128 35.7098C150.065 35.6598 149.99 35.6139 149.915 35.5806C149.528 35.4097 149.519 35.8431 149.323 35.9723C149.169 36.0765 149.211 36.2057 149.365 36.3307C150.357 37.135 151.357 37.9267 152.311 38.7727C152.753 39.1644 152.878 38.756 153.086 38.5602C153.37 38.2893 153.099 38.1809 152.911 38.0393C152.353 37.61 152.311 37.3308 152.711 36.8516C153.732 35.6306 154.749 34.4054 155.766 33.1844C156.324 32.5135 156.412 32.501 157.083 33.0261C157.191 33.1094 157.283 33.3261 157.445 33.2011C157.641 33.0553 157.829 32.8844 157.929 32.6677V32.6594ZM161.396 46.5779C161.146 46.6529 160.983 46.8571 160.833 47.0446C160.712 47.1947 160.9 47.3113 160.987 47.4197C161.775 48.4032 162.562 49.3866 163.35 50.3659C163.454 50.4993 163.579 50.5451 163.746 50.4701C164.217 50.2534 164.296 49.9617 163.988 49.5408C163.571 48.9699 163.538 48.9324 164.075 48.4782C165.4 47.3488 166.759 46.257 168.105 45.1569C168.359 44.9485 168.605 45.0319 168.809 45.2486C168.921 45.3694 169.013 45.5069 169.117 45.6403C169.397 46.0028 169.58 45.6445 169.776 45.5361C170.005 45.4069 170.034 45.2152 169.855 44.9985C169.038 44.0151 168.221 43.0358 167.421 42.0398C167.275 41.8564 167.188 41.8189 166.984 41.9606C166.471 42.319 166.455 42.3357 166.817 42.8274C167.246 43.4108 167.242 43.5067 166.688 43.9651C165.421 45.0069 164.146 46.0445 162.871 47.078C162.417 47.4447 162.217 47.4072 161.85 46.928C161.733 46.7738 161.633 46.5862 161.396 46.5696V46.5779ZM36.3606 38.5643C36.2897 38.306 36.0772 38.1809 35.8647 38.0476C35.6605 37.9142 35.6105 38.0893 35.5146 38.1935C34.6562 39.1227 33.8061 40.052 32.9394 40.973C32.7518 41.1688 32.7143 41.3105 32.9269 41.5106C33.2144 41.7856 33.4602 41.9273 33.7853 41.5272C34.0145 41.2397 34.2812 40.8896 34.7229 41.3022C35.9647 42.4565 37.2232 43.59 38.4608 44.7443C39.0192 45.2694 39.0275 45.3611 38.4858 45.907C38.1691 46.2237 38.3108 46.382 38.54 46.6321C38.8275 46.9488 39.0067 46.8029 39.2234 46.5696C40.0318 45.6861 40.8402 44.8068 41.657 43.9359C41.857 43.7192 41.8445 43.5692 41.6487 43.34C41.357 43.0024 41.1528 43.0149 40.8527 43.34C40.336 43.8942 40.1985 43.8734 39.6359 43.34C39.3818 43.1024 39.1276 42.8649 38.8692 42.6315C37.8983 41.7731 36.9565 40.8813 36.0064 40.002C35.6938 39.7103 35.6688 39.4103 35.9855 39.1061C36.1439 38.9561 36.2606 38.7769 36.3522 38.5643H36.3606Z" fill="black"/>
<path id="Vector_2" d="M100.068 72.994C122.858 72.994 145.648 72.994 168.438 72.994C169.03 72.994 169.43 73.2704 169.638 73.8233C171.663 79.2115 173.014 84.7581 173.764 90.4672C174.318 94.6928 174.485 98.9308 174.305 103.177C173.939 112.078 172.043 120.659 168.592 128.885C168.359 129.435 168.05 129.56 167.5 129.56C122.57 129.547 77.636 129.552 32.7059 129.552C32.0031 129.552 31.5197 129.231 31.2558 128.589C28.7638 122.605 27.1136 116.392 26.2385 109.97C25.6385 105.586 25.4676 101.177 25.6551 96.7639C25.9927 88.8545 27.5345 81.1743 30.3432 73.7608C30.5376 73.2524 30.903 72.9968 31.4391 72.994C54.3126 72.994 77.186 72.994 100.059 72.994H100.068ZM97.8967 99.3684C97.9634 96.6639 97.7925 93.3509 97.9925 90.0421C98.0592 88.9295 98.3884 88.5044 99.4927 88.2836C100.334 88.1127 101.185 88.2211 102.03 88.2086C102.456 88.2044 102.635 88.071 102.622 87.6293C102.601 86.8959 102.622 86.1625 102.614 85.429C102.614 84.7873 102.589 84.7664 101.926 84.7664C99.5094 84.7664 97.0966 84.7664 94.6796 84.7664C92.1627 84.7664 89.6499 84.7748 87.133 84.7581C86.6996 84.7581 86.5371 84.9081 86.5496 85.3415C86.5704 86.1083 86.5662 86.8751 86.5496 87.6418C86.5412 88.046 86.6829 88.2169 87.1038 88.2044C87.8872 88.1836 88.6706 88.1836 89.4541 88.2044C90.7334 88.2377 91.2626 88.5836 91.4459 89.5129C91.5168 89.8713 91.5668 90.238 91.5668 90.6006C91.5793 92.8175 91.5668 95.0303 91.5793 97.2473C91.5793 97.639 91.4334 97.7765 91.0501 97.7682C90.25 97.7515 89.4499 97.7682 88.6498 97.764C85.5328 97.764 82.4199 97.764 79.3029 97.764C78.9987 97.764 78.6945 97.8015 78.6987 97.3306C78.7112 94.947 78.6653 92.5633 78.7195 90.1838C78.7528 88.7003 79.3279 88.2211 80.8197 88.2044C81.6032 88.1961 82.3866 88.1919 83.17 88.2044C83.5451 88.2127 83.7201 88.0877 83.7117 87.6877C83.6951 86.8876 83.6951 86.0874 83.7117 85.2873C83.7201 84.8956 83.5617 84.7623 83.1783 84.7623C78.1153 84.7706 73.048 84.7706 67.9849 84.7623C67.6391 84.7623 67.5141 84.879 67.5224 85.2248C67.5391 86.0583 67.5432 86.8917 67.5224 87.7252C67.5141 88.1086 67.6641 88.2127 68.0224 88.2044C68.7725 88.1877 69.5268 88.1377 70.2685 88.2127C71.8145 88.3711 72.0062 88.5878 72.2479 89.8338C72.2896 90.0421 72.2729 90.2672 72.2729 90.4797C72.2729 96.8097 72.2729 103.14 72.2729 109.47C72.2729 109.603 72.2729 109.736 72.2729 109.87C72.2146 111.157 71.727 111.662 70.4394 111.741C69.6268 111.791 68.8142 111.828 68.0016 111.841C67.6724 111.845 67.5141 111.928 67.5224 112.291C67.5432 113.108 67.5391 113.925 67.5224 114.741C67.5182 115.062 67.6266 115.183 67.9558 115.183C73.0355 115.175 78.1153 115.175 83.1992 115.183C83.5576 115.183 83.7159 115.062 83.7117 114.691C83.6992 113.908 83.6992 113.124 83.7117 112.341C83.7201 111.97 83.5576 111.824 83.1992 111.849C82.2991 111.916 81.4073 111.737 80.5114 111.741C79.6154 111.741 79.0529 111.349 78.8653 110.641C78.782 110.324 78.7112 109.986 78.7112 109.661C78.6987 107.078 78.7112 104.498 78.6987 101.915C78.6987 101.531 78.8237 101.381 79.2154 101.385C83.1617 101.394 87.1121 101.394 91.0584 101.385C91.4501 101.385 91.5835 101.535 91.5751 101.919C91.5126 104.665 91.6876 107.411 91.4751 110.153C91.4043 111.078 91.1334 111.478 90.2375 111.641C89.2082 111.828 88.1581 111.866 87.1121 111.845C86.7037 111.837 86.5412 111.987 86.5496 112.399C86.5662 113.133 86.5704 113.866 86.5496 114.6C86.5371 115.025 86.6787 115.225 87.1246 115.187C87.3872 115.166 87.658 115.187 87.9247 115.187C92.5877 115.187 97.2549 115.187 101.918 115.187C102.601 115.187 102.614 115.175 102.614 114.483C102.614 113.783 102.601 113.083 102.614 112.383C102.622 111.999 102.468 111.853 102.08 111.849C101.335 111.841 100.589 111.791 99.8427 111.753C98.5801 111.687 98.105 111.278 98.005 110.116C97.9425 109.391 97.9008 108.657 97.8967 107.928C97.8842 105.278 97.8925 102.631 97.8925 99.3726L97.8967 99.3684ZM58.1672 115.183C59.0839 115.183 60.0007 115.183 60.9175 115.183C62.4343 115.183 63.947 115.183 65.4638 115.183C65.7472 115.183 66.0097 115.175 66.0097 114.783C66.0097 113.933 66.0097 113.083 66.0097 112.233C66.0097 112.024 65.9305 111.878 65.7013 111.858C65.3055 111.82 64.9054 111.745 64.5137 111.758C63.3177 111.803 62.4635 111.303 61.9468 110.228C61.7967 109.916 61.6592 109.591 61.5342 109.266C60.2216 105.907 59.1006 102.477 57.838 99.0975C56.1044 94.4594 54.2125 89.8838 52.6582 85.179C52.5582 84.8748 52.3915 84.7581 52.079 84.7581C50.2288 84.7664 48.3827 84.7664 46.5325 84.7581C46.2325 84.7581 46.0908 84.8539 45.9991 85.1498C45.6991 86.1166 45.374 87.0751 45.0365 88.0335C43.6905 91.8591 42.3279 95.6846 40.986 99.5142C40.4276 101.114 39.8317 102.698 39.3484 104.327C38.8858 105.886 38.2982 107.407 37.7398 108.932C37.3315 110.045 36.8064 111.074 35.5896 111.528C34.8728 111.795 34.1144 111.724 33.3768 111.828C33.0185 111.878 32.881 111.999 32.8851 112.353C32.8976 113.12 32.9018 113.887 32.8851 114.654C32.8768 115.041 33.031 115.183 33.4185 115.179C37.7148 115.171 42.0153 115.171 46.3116 115.179C46.6617 115.179 46.8367 115.071 46.8284 114.691C46.8117 113.908 46.8117 113.124 46.8284 112.341C46.8367 111.974 46.6909 111.816 46.3283 111.841C45.3449 111.912 44.3698 111.745 43.3905 111.733C42.2487 111.72 41.8528 111.166 42.207 110.082C42.6696 108.678 43.1696 107.282 43.6405 105.882C43.7405 105.59 43.8947 105.465 44.2156 105.469C47.1784 105.482 50.1454 105.478 53.1083 105.469C53.4208 105.469 53.5916 105.586 53.6958 105.882C54.0459 106.869 54.4251 107.845 54.7793 108.832C54.9376 109.27 55.1293 109.695 55.221 110.157C55.3835 110.978 55.1043 111.441 54.3001 111.637C54.0917 111.687 53.875 111.72 53.6625 111.733C52.7332 111.795 51.8039 111.883 50.8747 111.837C50.4955 111.82 50.3871 112.008 50.3913 112.358C50.4038 113.091 50.4205 113.825 50.3871 114.558C50.3663 115.054 50.558 115.183 51.0289 115.179C53.4125 115.162 55.7919 115.171 58.1755 115.171L58.1672 115.183ZM148.215 84.7706C145.448 84.7706 142.685 84.7789 139.918 84.7623C139.485 84.7623 139.318 84.904 139.331 85.3415C139.351 86.0916 139.356 86.8417 139.331 87.5918C139.314 88.0377 139.464 88.2294 139.931 88.2086C140.597 88.1794 141.264 88.1877 141.931 88.2086C143.273 88.2419 143.752 88.6378 143.935 89.8588C143.969 90.0713 143.956 90.2922 143.956 90.5089C143.956 96.8222 143.956 103.136 143.956 109.449C143.956 109.599 143.973 109.749 143.952 109.899C143.744 111.449 143.577 111.541 142.168 111.741C141.447 111.841 140.71 111.853 139.981 111.849C139.51 111.849 139.314 111.987 139.335 112.474C139.364 113.174 139.364 113.875 139.335 114.575C139.314 115.062 139.506 115.204 139.976 115.2C142.26 115.179 144.539 115.191 146.823 115.191C149.49 115.191 152.153 115.183 154.82 115.2C155.253 115.2 155.42 115.054 155.407 114.62C155.387 113.887 155.391 113.154 155.407 112.42C155.416 112.02 155.274 111.858 154.857 111.853C153.978 111.845 153.099 111.799 152.22 111.753C151.211 111.699 150.699 111.353 150.528 110.587C150.444 110.199 150.378 109.807 150.378 109.403C150.386 107.069 150.378 104.74 150.382 102.406C150.382 101.323 150.269 101.419 151.365 101.398C154.62 101.331 157.887 101.615 161.121 101.01C163.217 100.619 164.875 99.6101 166.125 97.864C167.617 95.7846 167.488 93.4218 167.163 91.134C166.809 88.6295 165.092 87.0542 162.817 86.0708C160.595 85.1165 158.249 84.8206 155.862 84.7873C153.311 84.7539 150.765 84.7789 148.215 84.7789V84.7706ZM120.991 115.183C123.725 115.183 126.454 115.175 129.188 115.191C129.646 115.191 129.813 115.046 129.792 114.583C129.763 113.833 129.775 113.083 129.788 112.333C129.792 111.999 129.671 111.837 129.321 111.849C128.288 111.883 127.263 111.795 126.233 111.758C124.8 111.699 124.225 111.174 124.212 109.741C124.196 107.44 124.212 105.144 124.204 102.844C124.204 102.565 124.279 102.335 124.45 102.11C125.416 100.802 126.375 99.4851 127.325 98.1599C129.442 95.222 131.601 92.3175 133.763 89.4171C134.197 88.8336 134.788 88.4378 135.53 88.2877C136.009 88.1877 136.493 88.1752 136.972 88.2044C137.464 88.2336 137.614 88.0335 137.593 87.5626C137.564 86.8125 137.568 86.0624 137.593 85.3165C137.605 84.904 137.451 84.7623 137.039 84.7623C132.759 84.7706 128.475 84.7706 124.196 84.7623C123.77 84.7623 123.645 84.9331 123.658 85.329C123.679 86.0791 123.687 86.8292 123.658 87.5751C123.637 88.0627 123.816 88.2211 124.296 88.2044C125.112 88.1752 125.929 88.1794 126.742 88.2044C127.821 88.2377 128.196 88.9087 127.675 89.8463C127.458 90.238 127.238 90.6339 126.975 90.9964C125.429 93.1176 123.87 95.2262 122.32 97.3473C122.095 97.6557 121.954 97.6765 121.708 97.339C120.587 95.7762 119.549 94.1552 118.391 92.6175C117.728 91.7424 116.999 90.9089 116.549 89.8963C116.178 89.0545 116.399 88.4503 117.291 88.2877C118.103 88.1377 118.916 88.2294 119.728 88.2086C120.491 88.1877 120.491 88.2044 120.491 87.421C120.491 86.7209 120.474 86.0208 120.495 85.3207C120.508 84.9081 120.353 84.7664 119.941 84.7664C115.028 84.7748 110.115 84.7748 105.202 84.7664C104.777 84.7664 104.652 84.9373 104.664 85.3332C104.685 86.0999 104.689 86.8667 104.664 87.6335C104.652 88.0752 104.822 88.2169 105.252 88.2127C105.943 88.2044 106.639 88.1461 107.323 88.4086C108.485 88.8628 109.248 89.7504 109.931 90.7172C111.398 92.7925 112.794 94.9136 114.174 97.0473C115.24 98.6933 116.37 100.302 117.486 101.915C117.753 102.302 117.866 102.702 117.861 103.173C117.845 105.207 117.849 107.236 117.861 109.27C117.861 109.691 117.799 110.099 117.728 110.507C117.611 111.17 117.224 111.57 116.536 111.658C115.299 111.812 114.053 111.878 112.807 111.849C112.427 111.841 112.261 111.974 112.273 112.37C112.294 113.104 112.302 113.837 112.273 114.566C112.252 115.058 112.44 115.191 112.911 115.191C115.607 115.175 118.307 115.183 121.008 115.183H120.991Z" fill="black"/>
<path id="Vector_3" d="M162.762 62.7592C160.546 62.5842 158.208 62.3925 155.866 62.2133C152.015 61.9175 148.182 61.4507 144.352 60.9507C141.414 60.5673 138.485 60.1256 135.563 59.6338C130.142 58.7254 124.75 57.6877 119.399 56.4334C117.311 55.9458 115.265 55.2624 113.203 54.6623C108.869 53.3997 104.564 52.037 100.372 50.3576C96.6799 48.8782 92.992 47.3738 89.4083 45.6403C88.929 45.4069 88.4582 45.161 87.9789 44.9235C87.4705 44.6693 87.458 44.6026 87.8498 44.1734C89.8958 41.9148 91.9085 39.6228 93.8754 37.2975C96.9133 33.7137 99.947 30.1299 102.951 26.521C103.385 26.0001 103.885 25.9251 104.447 25.9668C105.723 26.0585 106.998 26.1627 108.265 26.321C109.877 26.521 111.494 26.7252 113.09 27.0211C116.245 27.6087 119.357 28.3755 122.416 29.3548C123.854 29.8173 125.267 30.3591 126.679 30.8966C129.796 32.0843 132.776 33.5553 135.693 35.1514C137.922 36.3724 140.052 37.7684 142.173 39.1727C145.402 41.3105 148.298 43.8525 151.115 46.4862C152.72 47.9823 154.211 49.5908 155.662 51.2327C157.045 52.7996 158.37 54.4206 159.6 56.1125C161.029 58.0753 162.362 60.1006 163.6 62.1883C163.888 62.6759 163.829 62.7592 163.242 62.7592C163.125 62.7592 163.008 62.7592 162.767 62.7592H162.762Z" fill="black"/>
<path id="Vector_4" d="M35.3729 134.777C39.4567 135.29 43.6321 135.698 47.7826 136.344C51.0913 136.857 54.3959 137.39 57.6837 137.994C61.3383 138.665 64.9637 139.453 68.585 140.278C71.5228 140.949 74.4481 141.678 77.3651 142.437C80.803 143.328 84.1284 144.57 87.4829 145.733C91.1667 147.008 94.8254 148.367 98.3633 150.004C101.764 151.58 105.202 153.076 108.494 154.872C108.919 155.101 109.34 155.338 109.76 155.576C110.236 155.838 110.244 155.884 109.856 156.293C108.11 158.126 106.335 159.935 104.618 161.793C101.105 165.602 97.6133 169.428 94.142 173.274C93.7045 173.758 93.2461 173.916 92.6502 173.833C91.4209 173.666 90.1833 173.558 88.9539 173.362C87.5621 173.141 86.1745 172.899 84.7951 172.612C80.4321 171.695 76.1817 170.403 72.0604 168.703C67.7515 166.923 63.6469 164.752 59.7465 162.202C57.442 160.693 55.1751 159.126 53.0415 157.385C50.4912 155.297 48.1201 153.009 45.8615 150.609C44.4781 149.138 43.1404 147.608 41.8903 146.02C40.1192 143.762 38.4357 141.437 36.9772 138.961C36.2855 137.79 35.5979 136.615 34.9228 135.436C34.8186 135.257 34.6144 135.048 34.7269 134.856C34.8353 134.669 35.0978 134.819 35.3729 134.786V134.777Z" fill="black"/>
<path id="Vector_5" d="M99.5635 25.9084C99.8094 25.9667 100.126 25.7959 100.234 26.0376C100.339 26.271 100.047 26.4335 99.9011 26.6043C95.9381 31.255 92.1002 36.0181 88.0706 40.6146C86.9621 41.8814 85.8411 43.1316 84.7327 44.4026C83.3867 45.9444 81.5823 46.9029 80.0071 48.1489C77.6944 49.9825 74.9524 50.9576 72.2521 51.9952C67.3849 53.8622 62.4718 55.6041 57.5379 57.2876C54.8918 58.1919 52.1873 58.917 49.4953 59.6838C45.9741 60.6881 42.4904 61.8299 39.0025 62.9467C37.9065 63.2968 36.8064 63.6301 35.6813 63.8677C35.5438 63.8969 35.3729 64.001 35.2687 63.8427C35.1729 63.6968 35.3146 63.5635 35.3729 63.4301C35.873 62.2675 36.6606 61.2798 37.3023 60.2005C37.7607 59.4254 38.2316 58.6545 38.7483 57.9294C38.965 57.6252 39.0942 57.2043 39.465 56.9959C39.6692 56.8834 39.5984 56.6375 39.6776 56.4625C39.8526 56.0708 40.3026 55.9958 40.5027 55.6166C40.7985 55.054 41.3111 54.6164 41.6278 54.0789C42.0903 53.2996 42.8029 52.7704 43.3363 52.0703C44.5323 50.4909 45.9699 49.1157 47.3409 47.6905C48.2452 46.7487 49.1495 45.7902 50.1996 44.9943C50.2121 44.986 50.2288 44.9735 50.2329 44.961C50.4663 44.2692 51.2914 44.2025 51.6414 43.6483C52.0373 43.0232 52.7624 42.8649 53.2749 42.4023C53.7917 41.9356 54.3584 41.523 54.9126 41.0979C56.9337 39.5477 59.0256 38.1059 61.1967 36.7765C63.4094 35.4222 65.6847 34.1804 68.0266 33.0552C70.3394 31.9426 72.6938 30.9466 75.1108 30.1006C77.7902 29.163 80.4989 28.3129 83.2825 27.7253C84.891 27.3836 86.4912 27.0461 88.1164 26.796C90.7167 26.4001 93.3212 26.1668 95.9506 26.0959C97.1633 26.0626 98.3842 26.1084 99.5635 25.9167V25.9084Z" fill="black"/>
<path id="Vector_6" d="M101.41 174.037C99.7094 174.037 98.4926 174.041 97.28 174.033C97.0966 174.033 96.8299 174.137 96.7466 173.908C96.6799 173.728 96.905 173.599 97.0258 173.466C99.5094 170.728 102.006 167.998 104.485 165.256C107.239 162.202 110.065 159.21 112.915 156.247C113.54 155.597 114.228 155.022 114.99 154.534C115.886 153.959 116.799 153.397 117.653 152.763C120.112 150.946 122.975 150.034 125.812 149.075C130.48 147.496 135.188 146.025 139.91 144.612C143.931 143.412 148.04 142.533 152.099 141.47C154.741 140.782 157.362 140.011 160 139.299C160.883 139.061 161.783 138.878 162.675 138.678C162.812 138.649 162.992 138.565 163.1 138.703C163.212 138.845 163.079 138.99 163.004 139.111C161.771 141.041 160.5 142.937 159.112 144.766C157.916 146.337 156.67 147.867 155.366 149.338C153.674 151.238 151.882 153.046 149.998 154.763C148.794 155.859 147.573 156.93 146.306 157.951C144.99 159.014 143.589 159.968 142.206 160.939C138.926 163.244 135.468 165.256 131.855 166.982C128.213 168.724 124.466 170.211 120.562 171.274C119.057 171.682 117.566 172.145 116.04 172.462C113.982 172.891 111.915 173.291 109.827 173.553C106.873 173.92 103.914 174.141 101.418 174.045L101.41 174.037Z" fill="black"/>
<path id="Vector_7" d="M99.9595 71.573C77.3527 71.573 54.746 71.573 32.1393 71.573C31.8809 71.573 31.5142 71.7022 31.385 71.4771C31.2267 71.2104 31.5184 70.9271 31.6225 70.652C31.6892 70.477 31.8309 70.402 32.0184 70.4062C32.1851 70.4062 32.3518 70.4062 32.5185 70.4062C77.4986 70.4062 122.483 70.4062 167.463 70.4062C168.288 70.4062 168.388 70.4853 168.605 71.2063C168.684 71.473 168.617 71.5855 168.338 71.5813C168.138 71.5813 167.938 71.5813 167.738 71.5813C145.148 71.5813 122.558 71.5813 99.9678 71.5813L99.9595 71.573Z" fill="black"/>
<path id="Vector_8" d="M18.8877 88.321C18.9752 88.8086 18.8002 89.2753 18.7877 89.7587C18.7793 90.0629 18.6752 90.2463 18.2585 90.188C16.4249 89.9171 14.5872 89.7004 12.7495 89.4587C12.4953 89.4254 12.3328 89.3337 12.4036 89.0003C12.512 88.5002 12.537 87.9835 12.637 87.4834C12.8328 86.5416 13.4246 85.9666 14.3622 85.7749C15.5248 85.5415 16.6583 85.6915 17.7001 86.2249C18.521 86.6417 19.0335 87.3209 18.8835 88.3252L18.8877 88.321Z" fill="black"/>
<path id="Vector_9" d="M95.0796 15.5613C95.0713 16.5614 94.8671 17.5074 94.0295 18.1366C92.7627 19.0868 90.95 18.7701 90.2041 17.049C89.7749 16.0572 89.6582 14.9987 89.904 13.9319C90.1957 12.6734 91.0792 11.8858 92.2251 11.8233C93.4128 11.7566 94.3546 12.4442 94.7754 13.7069C94.9755 14.307 95.088 14.9279 95.0796 15.5655V15.5613Z" fill="black"/>
<path id="Vector_10" d="M177.46 123.817C177.539 121.967 178.831 120.909 180.577 121.142C181.394 121.25 182.16 121.488 182.873 121.901C184.052 122.58 184.54 123.767 184.127 124.93C183.74 126.034 182.694 126.826 181.148 126.576C180.164 126.418 179.235 126.164 178.443 125.534C177.843 125.059 177.502 124.434 177.456 123.817H177.46Z" fill="black"/>
<path id="Vector_11" d="M18.4042 98.6682C18.4001 100.289 17.5416 101.26 16.1165 101.527C15.0747 101.723 14.0454 101.644 13.0495 101.248C12.1702 100.898 11.4701 99.9017 11.541 98.985C11.616 97.964 11.966 97.0889 13.1245 96.6846C14.4705 96.2137 15.8206 96.2054 17.1291 96.8597C18.0042 97.3014 18.3792 98.0473 18.4042 98.6641V98.6682Z" fill="black"/>
<path id="Vector_12" d="M119.662 16.1488C119.649 17.0573 119.445 17.9241 119.032 18.7325C118.499 19.7827 117.416 20.3411 116.432 20.1577C115.036 19.8993 114.319 18.845 114.282 17.7282C114.24 16.5572 114.428 15.4571 115.099 14.4694C115.749 13.5152 116.761 13.1484 117.87 13.4735C118.887 13.7694 119.624 14.7278 119.662 15.7946C119.662 15.9113 119.662 16.028 119.662 16.1447V16.1488Z" fill="black"/>
<path id="Vector_13" d="M78.9028 16.5072C78.9028 14.3986 80.1447 13.2859 81.9574 13.5276C82.6033 13.6151 83.0825 13.9985 83.4242 14.5361C84.2576 15.8404 84.5785 17.2489 84.0784 18.745C83.7576 19.7118 82.945 20.1493 81.9824 20.266C81.1489 20.3702 80.478 20.0285 79.9363 19.3826C79.1695 18.4658 78.9695 17.374 78.8987 16.503L78.9028 16.5072Z" fill="black"/>
<path id="Vector_14" d="M23.7091 58.4044C24.3759 58.5045 25.0426 58.6128 25.7093 58.7045C25.9885 58.742 25.9302 58.9003 25.851 59.0504C25.6635 59.4171 25.4552 59.7713 25.2635 60.138C25.1301 60.3922 24.9801 60.3755 24.8092 60.188C24.3467 59.6921 23.8883 59.1962 23.4258 58.7003C23.3716 58.642 23.2882 58.5711 23.3424 58.4878C23.4299 58.3544 23.5799 58.4211 23.705 58.4003L23.7091 58.4044Z" fill="black"/>
<path id="Vector_15" d="M176.139 59.1046C176.181 59.1213 176.281 59.1255 176.322 59.1796C176.381 59.2546 176.301 59.3338 176.247 59.3963C175.801 59.9089 175.36 60.4256 174.91 60.9382C174.726 61.1507 174.568 61.1716 174.426 60.884C174.251 60.5256 174.047 60.1839 173.859 59.8339C173.751 59.6297 173.801 59.4838 174.034 59.4213C174.08 59.4088 174.134 59.413 174.184 59.4047C174.822 59.3088 175.46 59.213 176.139 59.1088V59.1046Z" fill="black"/>
<path id="Vector_16" d="M26.5344 144.695C26.9595 144.762 27.272 144.945 27.5012 145.245C27.7846 145.612 28.0471 145.995 28.3221 146.371C28.4722 146.575 28.4347 146.721 28.218 146.854C27.6554 147.204 27.097 147.567 26.5469 147.933C26.3636 148.054 26.2469 148.017 26.1302 147.85C25.8052 147.387 25.5052 146.908 25.3176 146.371C25.0468 145.591 25.7427 144.67 26.5303 144.699L26.5344 144.695Z" fill="black"/>
<path id="Vector_17" d="M184.873 103.14C184.861 102.077 184.861 102.094 185.927 102.252C186.319 102.31 186.723 102.285 187.123 102.285C187.378 102.285 187.528 102.36 187.536 102.652C187.548 103.219 187.536 103.781 187.357 104.327C187.161 104.915 186.794 105.173 186.157 105.161C185.582 105.148 185.115 104.802 184.969 104.277C184.932 104.148 184.886 104.019 184.877 103.89C184.865 103.64 184.873 103.39 184.873 103.14Z" fill="black"/>
<path id="Vector_18" d="M48.5035 91.559C48.9661 92.7883 49.3911 93.901 49.8078 95.0136C50.6038 97.1264 51.3997 99.2433 52.1956 101.356C52.3873 101.86 52.3456 101.94 51.8039 101.94C49.7578 101.944 47.7118 101.944 45.6615 101.94C45.1198 101.94 45.0573 101.848 45.2198 101.356C46.2449 98.2182 47.2784 95.0803 48.3118 91.9424C48.341 91.8507 48.3952 91.7673 48.5035 91.5548V91.559Z" fill="black"/>
<path id="Vector_19" d="M152.703 88.2002C154.649 88.1752 156.416 88.2419 158.137 88.7878C159.766 89.3045 160.562 90.4588 160.708 92.0966C160.77 92.805 160.766 93.5301 160.687 94.2385C160.487 96.0763 159.341 97.0889 157.633 97.5556C156.278 97.9265 154.891 98.014 153.495 98.0557C152.665 98.0807 151.832 98.039 150.998 98.0682C150.523 98.0849 150.365 97.9223 150.369 97.4431C150.39 95.097 150.378 92.7508 150.378 90.4047C150.378 89.8379 150.39 89.2712 150.378 88.7086C150.365 88.3461 150.507 88.1919 150.873 88.2002C151.54 88.2127 152.203 88.2002 152.707 88.2002H152.703Z" fill="black"/>
</g>
</svg>
