<svg width="542" height="504" viewBox="0 0 542 504" fill="none" xmlns="http://www.w3.org/2000/svg">
<path d="M79.3752 235.922C-26.4584 297.023 -26.4584 396.085 79.3752 457.196C185.209 518.297 356.802 518.297 462.625 457.196C568.458 396.096 568.458 297.034 462.625 235.922C356.791 174.821 185.198 174.821 79.3752 235.922Z" fill="#FAFAFA"/>
<path d="M505.246 251.878C497.707 264.665 482.896 270.003 474.59 303.227C473.266 308.553 472.31 313.435 471.643 317.771L458.589 310.232C458.633 296.7 460.268 279.232 466.317 261.874C473.422 241.515 486.587 231.975 494.716 230.985C503.833 229.884 513.185 238.413 505.246 251.867V251.878Z" fill="#E1E2E2"/>
<path d="M496.194 238.49C496.005 238.235 495.649 238.19 495.393 238.379C481.605 248.787 464.393 278.198 464.671 314.135C465.06 314.391 465.438 314.636 465.816 314.891C465.282 279.02 482.395 249.621 496.083 239.302C496.339 239.113 496.383 238.757 496.194 238.502V238.49Z" fill="white"/>
<path d="M487.388 310.344C483.418 314.069 480.227 317.705 477.703 321.285L466.127 314.591C470.208 295.21 482.161 283.335 488.399 279.621C496.795 274.606 508.792 272.638 511.105 281.645C513.407 290.651 498.318 300.08 487.388 310.344Z" fill="#F0F0F0"/>
<path d="M502.966 279.499C502.855 279.198 502.532 279.043 502.232 279.165C493.181 282.501 476.146 300.047 469.664 317.604C469.764 317.649 469.864 317.693 469.964 317.749C470.22 317.871 470.475 318.016 470.72 318.149C477.08 301.003 493.982 283.435 502.632 280.244C502.933 280.132 503.077 279.81 502.966 279.51V279.499Z" fill="white"/>
<path d="M101.836 259.462L112.611 253.235C112.611 253.235 119.027 226.582 116.469 202.608C112.878 168.895 90.6836 156.208 82.2441 159.121C73.8045 162.023 71.3583 171.841 85.3241 191.923C93.5635 203.765 103.682 228.45 101.836 259.473V259.462Z" fill="#F0F0F0"/>
<path d="M106.296 246.374C106.296 246.374 106.229 246.374 106.195 246.363C105.795 246.285 105.528 245.896 105.606 245.485C111.51 214.384 100.647 179.447 87.2036 164.903C86.9257 164.603 86.9368 164.125 87.2481 163.847C87.5483 163.569 88.0265 163.58 88.3045 163.891C102.003 178.691 113.078 214.206 107.085 245.763C107.018 246.129 106.685 246.385 106.318 246.374H106.296Z" fill="white"/>
<path d="M74.7165 275.118C73.1042 275.94 68.8233 272.271 67.6335 271.381C65.5876 269.858 63.9753 267.757 62.9523 265.433C61.7625 262.719 61.5735 259.873 62.1295 256.971C62.4186 255.47 62.9189 254.013 63.4193 252.556C63.9086 251.133 64.3978 249.71 64.8871 248.287C65.3652 246.886 65.8544 245.429 65.7433 243.939C65.5097 240.959 62.9857 238.746 60.684 236.834C58.1376 234.721 55.5135 231.963 55.7025 228.394C55.8582 225.637 57.4038 223.157 59.2273 221.078C61.0398 218.998 63.1636 217.197 64.8204 214.984C66.0101 213.394 66.9775 211.515 66.8997 209.525C66.8441 208.29 66.3993 207.112 65.8656 206C64.7203 203.609 63.1636 201.396 62.4186 198.85C61.6736 196.304 61.9516 193.213 63.9975 191.522C65.6765 190.133 68.0561 190.055 70.2243 190.299C72.2258 190.533 74.1383 191.534 75.8396 192.601C81.3548 196.037 84.2458 202.92 90.139 205.644C92.4074 206.7 94.9426 207.034 97.3332 207.79C99.7239 208.546 102.126 209.914 103.126 212.204C105.117 216.73 100.736 221.956 102.059 226.715C103.226 230.929 107.174 232.72 109.242 236.567C110.154 238.246 110.276 240.147 110.02 242.049C109.587 245.251 108.997 247.597 107.274 251.1C105.851 253.991 101.825 259.473 101.825 259.473C101.825 259.473 74.95 275.006 74.7054 275.129L74.7165 275.118Z" fill="#E1E2E2"/>
<path d="M90.3056 266.989H90.2834C89.8831 266.956 89.594 266.611 89.6384 266.222C92.2181 238.257 80.5762 206.645 71.425 197.171C71.1581 196.893 71.1581 196.448 71.4472 196.17C71.7252 195.903 72.17 195.903 72.448 196.193C81.7771 205.855 93.6747 237.99 91.0506 266.355C91.0172 266.734 90.6836 267.012 90.3056 267V266.989Z" fill="white"/>
<path d="M87.5366 232.508C87.4699 232.508 87.4031 232.486 87.3253 232.464C78.4632 229.228 67.2661 228.172 67.1549 228.161C66.7657 228.127 66.4766 227.783 66.5099 227.393C66.5433 227.004 66.8546 226.715 67.2772 226.748C67.3884 226.76 78.7634 227.827 87.8034 231.13C88.1704 231.263 88.3594 231.674 88.226 232.03C88.1148 232.33 87.8257 232.508 87.5255 232.497L87.5366 232.508Z" fill="white"/>
<path d="M306.843 470.573L306.832 476.188L525.427 349.984V344.369L306.843 470.573Z" fill="#8F9091"/>
<path opacity="0.4" d="M306.843 470.573L306.832 476.188L525.427 349.984V344.369L306.843 470.573Z" fill="white"/>
<path d="M525.427 344.369L238.104 178.48L19.4199 304.739L306.843 470.573L525.427 344.369Z" fill="#FAFAFA"/>
<path d="M238.104 179.825L523.103 344.369L306.843 469.227L21.755 304.739L238.104 179.825ZM238.104 178.48L19.4199 304.739L306.832 470.573L525.427 344.369L238.104 178.48Z" fill="#8F9091"/>
<path d="M306.843 470.573L19.4199 304.739V310.199L306.832 476.188L306.843 470.684V470.573Z" fill="#8F9091"/>
<path d="M107.14 273.872L54.9682 303.994C53.6784 304.739 53.6116 305.907 54.8236 306.607C56.0356 307.308 58.0482 307.263 59.3381 306.53L111.51 276.407C112.8 275.662 112.866 274.495 111.654 273.805C110.442 273.116 108.43 273.149 107.14 273.894V273.872Z" fill="#E1E2E2"/>
<path d="M124.63 283.969L72.4584 314.091C71.1686 314.836 71.1019 316.003 72.3139 316.693C73.5259 317.393 75.5385 317.349 76.8283 316.615L129 286.493C130.29 285.748 130.357 284.58 129.145 283.891C127.933 283.19 125.92 283.235 124.63 283.98V283.969Z" fill="#E1E2E2"/>
<path d="M96.3538 290.195L63.7075 309.043C62.4176 309.788 62.3509 310.955 63.5629 311.644C64.7749 312.345 66.7875 312.301 68.0773 311.567L100.724 292.719C102.014 291.974 102.08 290.807 100.868 290.117C99.6562 289.417 97.6436 289.461 96.3538 290.206V290.195Z" fill="#E1E2E2"/>
<path d="M264.2 225.859L93.6967 324.298C92.4069 325.043 92.3402 326.211 93.5522 326.911C94.7642 327.612 96.7768 327.567 98.0666 326.833L268.57 228.394C269.86 227.649 269.927 226.482 268.715 225.792C267.503 225.103 265.49 225.136 264.2 225.87V225.859Z" fill="#E1E2E2"/>
<path d="M272.951 230.907L102.448 329.346C101.158 330.091 101.091 331.259 102.303 331.948C103.515 332.649 105.528 332.604 106.818 331.87L277.321 233.431C278.611 232.686 278.678 231.519 277.466 230.829C276.254 230.129 274.241 230.173 272.951 230.907Z" fill="#E1E2E2"/>
<path d="M281.691 235.955L111.187 334.395C109.898 335.14 109.831 336.307 111.043 336.997C112.255 337.697 114.267 337.653 115.557 336.919L286.061 238.479C287.351 237.734 287.418 236.567 286.206 235.877C284.994 235.177 282.981 235.221 281.691 235.955Z" fill="#E1E2E2"/>
<path d="M290.431 241.003L119.927 339.443C118.637 340.188 118.571 341.355 119.783 342.056C120.995 342.756 123.007 342.712 124.297 341.978L294.801 243.539C296.091 242.794 296.157 241.626 294.945 240.937C293.733 240.236 291.721 240.281 290.431 241.015V241.003Z" fill="#E1E2E2"/>
<path d="M308.089 251.189L137.585 349.628C136.295 350.373 136.228 351.541 137.44 352.241C138.652 352.942 140.665 352.897 141.955 352.163L312.458 253.724C313.748 252.979 313.815 251.811 312.603 251.122C311.391 250.422 309.378 250.466 308.089 251.2V251.189Z" fill="#E1E2E2"/>
<path d="M316.828 256.237L146.325 354.676C145.035 355.421 144.968 356.589 146.18 357.278C147.392 357.979 149.405 357.934 150.695 357.2L321.198 258.761C322.488 258.016 322.555 256.848 321.343 256.159C320.131 255.459 318.118 255.503 316.828 256.237Z" fill="#E1E2E2"/>
<path d="M325.568 261.285L155.065 359.724C153.775 360.469 153.708 361.637 154.92 362.326C156.132 363.027 158.145 362.982 159.435 362.249L329.938 263.809C331.228 263.064 331.295 261.897 330.083 261.207C328.871 260.518 326.858 260.551 325.568 261.285Z" fill="#E1E2E2"/>
<path d="M334.319 266.333L163.815 364.773C162.526 365.518 162.459 366.685 163.671 367.386C164.883 368.086 166.895 368.042 168.185 367.308L338.689 268.868C339.979 268.123 340.045 266.956 338.833 266.267C337.621 265.577 335.609 265.611 334.319 266.344V266.333Z" fill="#E1E2E2"/>
<path d="M351.965 276.519L181.462 374.958C180.172 375.703 180.105 376.87 181.317 377.56C182.529 378.26 184.542 378.216 185.832 377.471L356.335 279.032C357.625 278.287 357.692 277.119 356.48 276.418C355.268 275.718 353.255 275.762 351.965 276.507V276.519Z" fill="#E1E2E2"/>
<path d="M360.705 281.567L190.201 380.006C188.911 380.751 188.845 381.919 190.057 382.619C191.269 383.32 193.281 383.275 194.571 382.541L365.075 284.102C366.364 283.357 366.431 282.189 365.219 281.5C364.007 280.811 361.995 280.844 360.705 281.578V281.567Z" fill="#E1E2E2"/>
<path d="M290.431 332.226L199.03 384.965C197.74 385.71 197.673 386.878 198.885 387.567C200.097 388.268 202.11 388.223 203.4 387.489L294.8 334.75C296.09 334.005 296.157 332.838 294.945 332.148C293.733 331.448 291.72 331.492 290.431 332.226Z" fill="#E1E2E2"/>
<path d="M386.068 376.103L463.636 331.326C464.459 330.848 464.504 330.091 463.725 329.647C462.947 329.202 461.646 329.224 460.823 329.702L383.255 374.48C382.432 374.958 382.388 375.714 383.166 376.159C383.944 376.604 385.245 376.581 386.068 376.103Z" fill="#E1E2E2"/>
<path d="M380.442 372.845L439.274 338.898C440.097 338.42 440.141 337.664 439.363 337.219C438.585 336.774 437.284 336.796 436.461 337.275L377.628 371.222C376.795 371.7 376.761 372.456 377.54 372.901C378.318 373.346 379.619 373.323 380.442 372.845Z" fill="#E1E2E2"/>
<path d="M362.773 401.022C359.838 395.996 355.312 392.993 352.154 391.181C346.839 388.112 342.903 387.011 339.423 386.044L338.199 385.699C335.008 384.787 332.54 383.776 330.216 382.441C325.079 379.472 323.811 376.526 323.8 376.526L323.155 374.658L304.986 371.555L303.763 372.801C301.561 375.058 298.359 376.826 294.423 378.06L285.027 372.645C277.243 368.153 265.034 368.164 257.217 372.678C252.914 375.158 250.546 378.649 250.546 382.486C250.546 386.322 252.914 389.813 257.217 392.293C259.375 393.538 261.71 394.884 263.9 396.151C263.333 396.374 262.744 396.596 262.121 396.796L258.407 398.008L264.478 409.861L265.301 411.44L267.069 411.652C267.136 411.652 273.352 412.43 279.156 415.788C281.424 417.1 283.014 418.39 284.493 420.113L285.06 420.792C286.739 422.793 288.819 425.295 294.289 428.453C299.104 431.233 304.185 433.079 310.279 434.268C314.549 435.102 319.397 435.514 324.701 435.514C333.685 435.514 344.382 434.302 356.468 431.922L357.936 431.633L358.692 430.343C365.764 418.39 367.143 408.538 362.762 401.033L362.773 401.022ZM280.157 380.006C279.234 380.006 278.333 379.984 277.432 379.95L273.452 379.773L273.985 383.731C274.441 387.1 273.04 390.147 270.071 392.649C267.125 390.947 263.511 388.868 260.286 387.011C257.985 385.688 256.673 384.042 256.673 382.497C256.673 380.951 257.985 379.306 260.286 377.982C266.18 374.58 276.12 374.558 281.991 377.949L285.227 379.817C283.604 379.962 281.913 380.039 280.179 380.039L280.157 380.006Z" fill="#E1E2E2"/>
<path d="M364.853 467.849C366.543 472.43 371.424 475.276 379.563 476.344L495.627 408.383L510.716 393.094C511.583 392.215 510.682 390.77 509.515 391.159L481.739 400.366L364.853 467.849Z" fill="#E1E2E2"/>
<path d="M198.585 477.956C200.898 477.956 203.122 477.411 204.834 476.422L209.538 473.709C211.628 472.497 212.829 470.717 212.829 468.816C212.829 466.915 211.628 465.136 209.538 463.924C209.538 463.924 147.547 428.042 147.536 428.03C153.063 421.893 155.52 414.987 154.653 407.927C153.552 398.92 146.958 390.503 136.095 384.22C124.33 377.426 108.719 373.679 92.1399 373.679C75.561 373.679 59.9606 377.415 48.1853 384.22C36.1097 391.192 29.4492 400.577 29.4492 410.64C29.4492 420.703 36.0986 430.076 48.1853 437.059C59.9495 443.853 75.561 447.589 92.1177 447.589C108.085 447.589 123.174 444.109 134.783 437.782L191.558 476.044C193.459 477.289 195.939 477.967 198.563 477.967L198.585 477.956Z" fill="#E1E2E2"/>
<path d="M38.8564 394.706V409.494C38.8564 417.523 44.1604 425.551 54.7682 431.678C75.9838 443.931 110.387 443.931 131.614 431.678C142.222 425.551 147.526 417.523 147.526 409.494V394.706C147.526 386.678 142.222 378.649 131.614 372.523C110.398 360.269 75.995 360.269 54.7682 372.523C44.1604 378.649 38.8564 386.678 38.8564 394.706ZM142.277 394.706C142.277 401.133 137.563 407.393 128.99 412.341C119.516 417.812 106.795 420.825 93.1965 420.825C79.5976 420.825 66.8771 417.812 57.4035 412.341C48.8305 407.393 44.1159 401.133 44.1159 394.706C44.1159 388.279 48.8305 382.019 57.4035 377.071C66.8771 371.6 79.5865 368.586 93.1965 368.586C106.807 368.586 119.516 371.6 128.99 377.071C137.563 382.019 142.277 388.279 142.277 394.706Z" fill="#8F9091"/>
<path opacity="0.3" d="M131.614 372.534C110.398 360.28 75.995 360.28 54.7682 372.534C33.5525 384.787 33.5525 404.646 54.7682 416.9C75.9838 429.153 110.387 429.153 131.614 416.9C152.829 404.646 152.829 384.787 131.614 372.534ZM128.99 412.352C119.516 417.823 106.807 420.836 93.1965 420.836C79.5865 420.836 66.8771 417.823 57.4035 412.352C48.8305 407.404 44.1159 401.144 44.1159 394.717C44.1159 388.29 48.8305 382.03 57.4035 377.082C66.8771 371.611 79.5865 368.598 93.1965 368.598C106.807 368.598 119.516 371.611 128.99 377.082C137.563 382.03 142.277 388.29 142.277 394.717C142.277 401.144 137.563 407.404 128.99 412.352Z" fill="white"/>
<path d="M142.277 394.706C142.277 397.23 141.555 399.71 140.154 402.1C137.997 398.364 134.205 394.873 128.979 391.859C119.505 386.389 106.796 383.364 93.1857 383.364C79.5756 383.364 66.8662 386.377 57.4037 391.859C52.1776 394.861 48.3859 398.364 46.2177 402.1C44.8277 399.71 44.105 397.219 44.105 394.706C44.105 388.279 48.8196 382.019 57.4037 377.071C66.8773 371.611 79.5867 368.587 93.1857 368.587C106.785 368.587 119.516 371.6 128.979 377.071C137.552 382.019 142.277 388.279 142.277 394.706Z" fill="#8F9091"/>
<path opacity="0.1" d="M142.277 394.706C142.277 397.23 141.555 399.71 140.154 402.1C137.997 398.364 134.205 394.873 128.979 391.859C119.505 386.389 106.796 383.364 93.1857 383.364C79.5756 383.364 66.8662 386.377 57.4037 391.859C52.1776 394.861 48.3859 398.364 46.2177 402.1C44.8277 399.71 44.105 397.219 44.105 394.706C44.105 388.279 48.8196 382.019 57.4037 377.071C66.8773 371.611 79.5867 368.587 93.1857 368.587C106.785 368.587 119.516 371.6 128.979 377.071C137.552 382.019 142.277 388.279 142.277 394.706Z" fill="#07090A"/>
<path opacity="0.6" d="M128.989 383.776C119.516 378.305 106.806 375.292 93.1963 375.292C79.5863 375.292 66.8769 378.305 57.4032 383.776C50.3314 387.856 45.8948 392.838 44.5493 398.064C45.8836 403.29 50.3314 408.26 57.4032 412.352C66.8769 417.823 79.5974 420.836 93.1963 420.836C106.795 420.836 119.516 417.823 128.989 412.352C136.061 408.271 140.498 403.29 141.843 398.064C140.498 392.838 136.061 387.867 128.989 383.776Z" fill="white"/>
<path opacity="0.1" d="M105.995 425.206V439.984C115.379 438.683 124.286 435.914 131.602 431.678C142.221 425.551 147.525 417.523 147.525 409.495V394.706C147.525 393.082 147.303 391.47 146.869 389.858C149.449 399.409 144.356 409.517 131.614 416.889C124.286 421.125 115.39 423.883 106.006 425.206H105.995Z" fill="#07090A"/>
<path d="M129.99 426.307C129.99 423.883 131.669 420.925 133.771 419.702C134.816 419.091 135.761 419.035 136.45 419.424L154.742 429.865C154.742 429.865 154.742 429.865 154.753 429.865C155.442 430.265 155.865 431.11 155.865 432.322C155.865 434.747 154.186 437.704 152.084 438.927C151.039 439.539 150.083 439.595 149.393 439.205L131.102 428.764C130.401 428.375 129.968 427.519 129.968 426.296L129.99 426.307Z" fill="#48494A"/>
<path d="M131.135 428.775C130.435 428.386 130.001 427.53 130.001 426.307C130.001 425.395 130.234 424.406 130.646 423.46L154.23 436.948C153.63 437.771 152.896 438.471 152.117 438.938C151.072 439.55 150.116 439.606 149.426 439.216L131.135 428.775Z" fill="#343536"/>
<path d="M149.026 438.883C149.015 435.725 151.217 431.867 153.941 430.276C155.275 429.498 156.487 429.409 157.388 429.898L157.444 429.921L204.968 454.828L195.917 470.818L150.494 442.085C149.593 441.574 149.026 440.462 149.026 438.883Z" fill="#8F9091"/>
<path opacity="0.1" d="M195.917 470.818L150.494 442.085C149.593 441.574 149.026 440.462 149.026 438.883C149.026 437.182 149.66 435.302 150.672 433.657L200.587 462.567L195.917 470.818Z" fill="#07090A"/>
<path d="M200.487 470.339C204.067 468.26 206.958 463.201 206.936 459.053C206.914 454.906 204 453.238 200.42 455.328C196.84 457.419 193.949 462.467 193.971 466.614C193.993 470.762 196.906 472.43 200.487 470.339Z" fill="#8F9091"/>
<g opacity="0.2">
<path d="M200.487 470.339C204.067 468.26 206.958 463.201 206.936 459.053C206.914 454.906 204 453.238 200.42 455.328C196.84 457.419 193.949 462.467 193.971 466.614C193.993 470.762 196.906 472.43 200.487 470.339Z" fill="#07090A"/>
</g>
<path d="M482.807 390.025L507.536 385.177C508.259 385.032 508.748 385.888 508.259 386.433L491.48 405.425L482.807 390.013V390.025Z" fill="#C3C4C4"/>
<path d="M508.258 386.444C508.748 385.899 508.258 385.043 507.536 385.188L502.71 386.133C504.067 386.967 504.834 388.49 504.711 390.08L504.678 390.514L508.27 386.455L508.258 386.444Z" fill="#343536"/>
<path d="M399.278 458.319L401.302 457.163L403.748 455.773L491.479 405.447C492.391 402.756 491.946 399.821 490.79 397.241C489.033 393.316 485.631 390.214 482.806 390.036L395.119 440.328L390.449 443.008C393.563 441.44 402.369 456.707 399.267 458.319H399.278Z" fill="#595A5B"/>
<path d="M406.995 453.927L411.509 451.325C412.844 450.614 412.076 447.345 410.52 443.953C408.463 439.45 404.404 435.091 402.636 436.025L399.3 437.938L398.122 438.638C399.89 437.704 403.948 442.063 406.016 446.566C407.506 449.813 408.262 452.971 407.128 453.827H407.117C407.117 453.827 407.05 453.894 406.995 453.916V453.927Z" fill="#EBEBEB"/>
<path d="M408.107 453.26C411.209 451.614 402.336 436.337 399.234 437.982L394.708 440.573C397.81 438.927 406.684 454.205 403.581 455.851L408.107 453.271V453.26Z" fill="#8F9091"/>
<path d="M399.278 458.319L403.748 455.762C406.805 454.172 398.366 439.35 395.13 440.328C395.074 440.328 395.008 440.362 394.941 440.395L390.46 442.997C393.573 441.429 402.38 456.696 399.278 458.308V458.319Z" fill="#EBEBEB"/>
<path opacity="0.15" d="M508.369 385.61L507.535 385.188L489.589 395.006L396.809 448.245C396.631 447.967 396.498 447.945 396.375 448.145C399.011 452.259 401.001 457.43 399.267 458.342L401.29 457.185L403.736 455.795L491.468 405.469L508.247 386.466C508.469 386.211 508.48 385.888 508.358 385.632L508.369 385.61Z" fill="#07090A"/>
<path d="M380.319 469.161L399.278 458.319C400.601 457.63 399.867 454.383 398.333 451.014C396.287 446.5 392.239 442.107 390.46 443.008C390.46 443.008 390.46 443.008 390.438 443.008L371.424 453.894C367.643 456.073 371.124 464.279 375.338 467.938C376.906 469.316 378.663 469.939 380.319 469.15V469.161Z" fill="#B0B0B1"/>
<path opacity="0.1" d="M381.454 463.279C380.364 459.009 376.906 454.817 373.726 453.916C372.558 453.583 371.591 453.749 370.89 454.294C368.033 456.941 371.357 464.468 375.338 467.938C376.872 469.294 378.585 469.906 380.23 469.194C381.654 468.36 382.199 466.181 381.465 463.279H381.454Z" fill="#07090A"/>
<path d="M272.796 392.626C272.796 392.626 264.078 387.601 257.229 383.653C252.926 381.174 250.557 377.682 250.557 373.846C250.557 370.01 252.926 366.518 257.229 364.039C265.046 359.524 277.255 359.513 285.038 364.005L300.55 372.945L297.503 378.238L281.991 369.298C276.132 365.907 266.191 365.929 260.287 369.331C257.996 370.655 256.673 372.3 256.673 373.846C256.673 375.392 257.985 377.037 260.287 378.36C267.136 382.319 275.854 387.334 275.854 387.334L272.807 392.626H272.796Z" fill="#595A5B"/>
<path d="M359.893 392.627C357.658 388.79 354.267 386.166 350.486 383.987C344.916 380.773 340.979 379.884 337.288 378.827C334.352 377.982 331.495 376.948 328.548 375.247C322.01 371.478 320.653 367.53 320.653 367.53L306.154 365.051C299.693 371.644 287.74 373.668 277.277 373.201C278.089 379.239 274.586 386.144 263.155 389.869V399.887L267.447 408.26C267.447 408.26 274.286 409.05 280.824 412.819C283.77 414.52 285.572 416.166 287.028 417.867C288.852 420.002 290.398 422.271 295.968 425.484C299.749 427.663 304.274 429.62 310.924 430.91C321.387 432.945 335.92 432.5 355.835 428.564C360.071 421.414 361.962 415.466 361.939 410.54C361.939 408.872 361.939 402.3 361.939 400.677C361.962 397.619 361.25 394.939 359.893 392.627Z" fill="#8F9091"/>
<path opacity="0.4" d="M359.893 392.627C357.658 388.79 354.267 386.166 350.486 383.987C344.916 380.773 340.979 379.884 337.288 378.827C334.352 377.982 331.495 376.948 328.548 375.247C322.01 371.478 320.653 367.53 320.653 367.53L306.154 365.051C299.693 371.644 287.74 373.668 277.277 373.201C278.089 379.239 274.586 386.144 263.155 389.869V399.887L267.447 408.26C267.447 408.26 274.286 409.05 280.824 412.819C283.77 414.52 285.572 416.166 287.028 417.867C288.852 420.002 290.398 422.271 295.968 425.484C299.749 427.663 304.274 429.62 310.924 430.91C321.387 432.945 335.92 432.5 355.835 428.564C360.071 421.414 361.962 415.466 361.939 410.54C361.939 408.872 361.939 402.3 361.939 400.677C361.962 397.619 361.25 394.939 359.893 392.627Z" fill="white"/>
<path d="M355.835 418.557C335.92 422.493 321.387 422.938 310.924 420.903C304.274 419.613 299.738 417.656 295.968 415.477C290.398 412.263 288.863 409.995 287.028 407.86C285.572 406.159 283.77 404.513 280.824 402.812C274.286 399.042 267.447 398.253 267.447 398.253L263.155 389.88C274.586 386.155 278.089 379.25 277.277 373.212C287.74 373.679 299.693 371.655 306.154 365.062L320.653 367.541C320.653 367.541 322.021 371.489 328.548 375.258C331.495 376.959 334.341 378.005 337.288 378.839C340.979 379.895 344.916 380.784 350.486 383.998C354.267 386.177 357.647 388.801 359.893 392.638C363.418 398.675 362.64 407.071 355.835 418.568V418.557Z" fill="#8F9091"/>
<path opacity="0.75" d="M355.835 418.557C335.92 422.493 321.387 422.938 310.924 420.903C304.274 419.613 299.738 417.656 295.968 415.477C290.398 412.263 288.863 409.995 287.028 407.86C285.572 406.159 283.77 404.513 280.824 402.812C274.286 399.042 267.447 398.253 267.447 398.253L263.155 389.88C274.586 386.155 278.089 379.25 277.277 373.212C287.74 373.679 299.693 371.655 306.154 365.062L320.653 367.541C320.653 367.541 322.021 371.489 328.548 375.258C331.495 376.959 334.341 378.005 337.288 378.839C340.979 379.895 344.916 380.784 350.486 383.998C354.267 386.177 357.647 388.801 359.893 392.638C363.418 398.675 362.64 407.071 355.835 418.568V418.557Z" fill="white"/>
<path d="M324.712 417.167C319.931 417.167 315.605 416.8 311.858 416.066C306.621 415.043 302.474 413.553 298.415 411.207C294.212 408.783 292.844 407.148 291.399 405.403C291.187 405.147 290.976 404.891 290.754 404.647C288.663 402.2 286.351 400.321 283.282 398.542C278.523 395.796 273.641 394.439 270.717 393.827L269.983 392.404C278.245 388.29 281.091 382.575 281.958 378.16C289.053 377.971 300.027 376.548 307.677 370.299L317.518 371.978C318.93 374.035 321.51 376.859 326.091 379.506C329.038 381.207 332.073 382.452 335.943 383.553L337.21 383.909C340.357 384.787 343.615 385.699 348.029 388.246C351.799 390.425 354.145 392.538 355.646 395.106C358.204 399.498 357.214 405.892 352.688 414.154C342.036 416.155 332.64 417.167 324.723 417.167H324.712Z" fill="#8F9091"/>
<path opacity="0.15" d="M324.712 417.167C319.931 417.167 315.605 416.8 311.858 416.066C306.621 415.043 302.474 413.553 298.415 411.207C294.212 408.783 292.844 407.148 291.399 405.403C291.187 405.147 290.976 404.891 290.754 404.647C288.663 402.2 286.351 400.321 283.282 398.542C278.523 395.796 273.641 394.439 270.717 393.827L269.983 392.404C278.245 388.29 281.091 382.575 281.958 378.16C289.053 377.971 300.027 376.548 307.677 370.299L317.518 371.978C318.93 374.035 321.51 376.859 326.091 379.506C329.038 381.207 332.073 382.452 335.943 383.553L337.21 383.909C340.357 384.787 343.615 385.699 348.029 388.246C351.799 390.425 354.145 392.538 355.646 395.106C358.204 399.498 357.214 405.892 352.688 414.154C342.036 416.155 332.64 417.167 324.723 417.167H324.712Z" fill="#8F9091"/>
<path opacity="0.4" d="M324.712 417.167C319.931 417.167 315.605 416.8 311.858 416.066C306.621 415.043 302.474 413.553 298.415 411.207C294.212 408.783 292.844 407.148 291.399 405.403C291.187 405.147 290.976 404.891 290.754 404.647C288.663 402.2 286.351 400.321 283.282 398.542C278.523 395.796 273.641 394.439 270.717 393.827L269.983 392.404C278.245 388.29 281.091 382.575 281.958 378.16C289.053 377.971 300.027 376.548 307.677 370.299L317.518 371.978C318.93 374.035 321.51 376.859 326.091 379.506C329.038 381.207 332.073 382.452 335.943 383.553L337.21 383.909C340.357 384.787 343.615 385.699 348.029 388.246C351.799 390.425 354.145 392.538 355.646 395.106C358.204 399.498 357.214 405.892 352.688 414.154C342.036 416.155 332.64 417.167 324.723 417.167H324.712Z" fill="white"/>
<path d="M290.764 404.658C290.976 404.913 291.187 405.158 291.409 405.414C292.855 407.148 294.234 408.794 298.426 411.218C302.484 413.564 306.632 415.054 311.869 416.077C315.616 416.811 319.941 417.178 324.723 417.178C332.64 417.178 342.035 416.166 352.688 414.165C355.012 409.928 356.402 406.181 356.857 402.945C356.646 401.7 356.246 400.555 355.646 399.52C354.144 396.952 351.798 394.839 348.029 392.66C343.614 390.114 340.356 389.202 337.21 388.323L335.942 387.968C332.073 386.867 329.037 385.61 326.09 383.92C321.509 381.274 318.93 378.449 317.517 376.392L307.677 374.713C300.016 380.962 289.052 382.386 281.958 382.575C281.246 386.233 279.145 390.792 273.729 394.595C276.487 395.373 279.901 396.607 283.281 398.553C286.361 400.332 288.663 402.211 290.753 404.658H290.764Z" fill="#8F9091"/>
<path d="M339.156 402.278L326.624 409.517L309.901 397.619C306.965 397.652 303.841 396.952 301.417 395.551C297.091 393.049 296.624 389.28 300.371 387.111C304.119 384.954 310.657 385.221 314.982 387.723C317.406 389.124 318.618 390.925 318.552 392.627L339.156 402.278Z" fill="#8F9091"/>
<path opacity="0.25" d="M339.156 402.278L326.624 409.517L309.901 397.619C306.965 397.652 303.841 396.952 301.417 395.551C297.091 393.049 296.624 389.28 300.371 387.111C304.119 384.954 310.657 385.221 314.982 387.723C317.406 389.124 318.618 390.925 318.552 392.627L339.156 402.278Z" fill="#07090A"/>
<path opacity="0.5" d="M307.688 370.31V374.713L317.517 376.392V371.989L307.688 370.31Z" fill="#8F9091"/>
<path opacity="0.5" d="M281.969 378.16V382.564C281.246 386.222 279.156 390.781 273.741 394.572C272.607 394.25 271.561 394.005 270.716 393.816L269.994 392.404C278.255 388.279 281.102 382.575 281.969 378.16Z" fill="#8F9091"/>
<path opacity="0.25" d="M326.624 409.517L339.156 402.278L318.552 392.627V403.768L326.624 409.517Z" fill="#07090A"/>
<path d="M267.447 398.253V408.26L263.155 399.887V389.88L267.447 398.253Z" fill="#8F9091"/>
<path opacity="0.55" d="M267.447 398.253V408.26L263.155 399.887V389.88L267.447 398.253Z" fill="white"/>
<path d="M361.939 410.551C361.962 415.477 360.071 421.426 355.824 428.564V418.557C359.905 411.663 361.828 405.87 361.939 401.055C361.939 403.134 361.939 408.983 361.939 410.551Z" fill="#8F9091"/>
<path opacity="0.55" d="M361.939 410.551C361.962 415.477 360.071 421.426 355.824 428.564V418.557C359.905 411.663 361.828 405.87 361.939 401.055C361.939 403.134 361.939 408.983 361.939 410.551Z" fill="white"/>
<path d="M257.929 298.768C265.346 294.999 265.713 288.261 258.741 283.724C251.769 279.187 240.105 278.553 232.688 282.323C225.272 286.092 224.905 292.831 231.877 297.367C238.849 301.904 250.513 302.538 257.929 298.768Z" fill="#343536"/>
<path d="M227.707 293.097L230.698 293.253C231.443 291.897 232.777 290.651 234.734 289.662C240.772 286.593 250.257 287.104 255.928 290.796C257.763 291.985 258.963 293.375 259.553 294.799L262.533 294.954L258.819 300.203C258.029 301.259 256.851 302.226 255.283 303.027C249.245 306.096 239.76 305.584 234.09 301.893C232.611 300.925 231.543 299.836 230.876 298.702L227.74 293.086L227.707 293.097Z" fill="#343536"/>
<path d="M264.434 294.254C275.387 288.65 275.898 278.698 265.568 272.004C255.238 265.321 237.992 264.432 227.04 270.036C216.087 275.64 215.576 285.592 225.906 292.286C236.236 298.968 253.482 299.858 264.434 294.254Z" fill="#595A5B"/>
<path d="M265.335 290.685C276.699 284.88 277.221 274.55 266.513 267.612C255.805 260.674 237.914 259.762 226.55 265.566C215.186 271.37 214.664 281.7 225.372 288.639C236.08 295.577 253.971 296.489 265.335 290.685Z" fill="#48494A"/>
<path d="M266.046 286.693C277.699 280.733 278.233 270.147 267.258 263.031C256.273 255.926 237.926 254.98 226.284 260.94C214.631 266.9 214.097 277.486 225.072 284.602C236.058 291.708 254.404 292.653 266.046 286.693Z" fill="#595A5B"/>
<path d="M276.053 271.006C276.536 261.536 263.632 253.182 247.233 252.345C230.833 251.509 217.147 258.507 216.664 267.977C216.181 277.446 229.084 285.801 245.484 286.637C261.883 287.474 275.57 280.475 276.053 271.006Z" fill="#48494A"/>
<path d="M267.47 278.709C279.69 272.46 280.257 261.341 268.737 253.88C257.218 246.419 237.959 245.44 225.739 251.689C213.519 257.938 212.952 269.057 224.471 276.519C235.991 283.98 255.25 284.958 267.47 278.709Z" fill="#595A5B"/>
<path d="M268.17 274.717C280.68 268.324 281.258 256.949 269.471 249.31C257.674 241.671 237.97 240.67 225.461 247.063C212.952 253.457 212.374 264.832 224.16 272.471C235.958 280.11 255.661 281.111 268.17 274.717Z" fill="#48494A"/>
<path d="M215.086 243.138C215.342 238.335 218.767 233.687 225.305 230.34C238.404 223.646 259.019 224.703 271.361 232.697C277.533 236.689 280.468 241.671 280.212 246.474C280.112 248.342 279.745 255.681 279.645 257.549C279.401 262.364 275.965 267 269.415 270.347C256.317 277.03 235.691 275.985 223.359 267.99C217.188 263.998 214.264 259.017 214.508 254.202C214.608 252.345 214.975 245.006 215.075 243.127L215.086 243.138Z" fill="#8F9091"/>
<path d="M258.997 22.4755C313.092 25.2331 354.701 71.3227 351.932 125.418C347.962 203.176 283.148 212.805 281.547 244.139C281.291 249.132 277.733 253.957 270.95 257.427C257.362 264.376 235.969 263.275 223.159 254.992C216.754 250.844 213.708 245.685 213.963 240.692C215.565 209.358 152.073 193.168 156.043 115.411C158.801 61.3153 204.89 19.7068 258.986 22.4755H258.997Z" fill="#8F9091"/>
<g style="mix-blend-mode:screen" opacity="0.7">
<path d="M258.997 22.4755C313.092 25.2331 354.701 71.3227 351.932 125.418C347.962 203.176 283.148 212.805 281.547 244.139C281.291 249.132 277.733 253.957 270.95 257.427C257.362 264.376 235.969 263.275 223.159 254.992C216.754 250.844 213.708 245.685 213.963 240.692C215.565 209.358 152.073 193.168 156.043 115.411C158.801 61.3153 204.89 19.7068 258.986 22.4755H258.997Z" fill="white"/>
</g>
<path opacity="0.25" d="M276.003 244.023C276.463 235.013 264.182 227.064 248.574 226.268C232.965 225.472 219.939 232.13 219.48 241.14C219.02 250.149 231.301 258.098 246.909 258.894C262.518 259.69 275.544 253.032 276.003 244.023Z" fill="#8F9091"/>
<path opacity="0.25" d="M222.603 249.221C223.782 250.588 225.305 251.912 227.184 253.112C237.903 260.04 255.794 260.952 267.147 255.158C269.137 254.147 270.783 252.99 272.095 251.745C270.916 250.366 269.393 249.054 267.514 247.853C256.795 240.915 238.904 240.003 227.551 245.807C225.561 246.819 223.904 247.964 222.603 249.221Z" fill="#8F9091"/>
<path opacity="0.25" d="M222.603 249.221C223.782 250.588 225.305 251.912 227.184 253.112C237.903 260.04 255.794 260.952 267.147 255.158C269.137 254.147 270.783 252.99 272.095 251.745C270.916 250.366 269.393 249.054 267.514 247.853C256.795 240.915 238.904 240.003 227.551 245.807C225.561 246.819 223.904 247.964 222.603 249.221Z" fill="#8F9091"/>
<path opacity="0.2" d="M207.148 59.4695C208.304 60.0366 209.416 60.7704 210.472 61.6934C214.208 64.9402 215.521 70.422 214.553 75.2812C212.685 84.6881 203.256 90.1254 197.607 97.2196C191.414 104.981 186.588 113.843 183.475 123.272C182.552 126.085 181.295 130.767 179.694 133.257C177.181 137.171 172.322 137.56 169.776 136.037C166.073 133.824 164.349 128.954 164.005 125.196C161.959 102.868 167.341 86.5228 179.383 70.044C185.943 61.0596 195.939 53.9543 207.148 59.4584V59.4695Z" fill="white"/>
<path opacity="0.2" d="M304.405 151.277C331.718 123.964 331.718 79.6801 304.405 52.3666C277.091 25.0531 232.807 25.0531 205.494 52.3666C178.181 79.6801 178.181 123.964 205.494 151.277C232.807 178.591 277.091 178.591 304.405 151.277Z" fill="white"/>
<path opacity="0.2" d="M181.428 148.613C182.262 151.649 181.617 154.718 179.961 157.331C178.148 160.188 173.923 160.744 171.265 158.854C168.519 156.908 166.818 153.506 167.04 150.136C167.273 146.545 169.798 142.831 173.801 142.642C177.525 142.464 180.583 145.544 181.428 148.613Z" fill="white"/>
<path opacity="0.15" d="M267.881 233.509C270.694 221.211 274.419 214.729 290.109 207.668C305.798 200.618 332.851 190.055 345.583 158.676C328.337 206.923 282.903 217.964 281.569 244.139C281.313 249.132 277.755 253.957 270.972 257.427C268.17 258.861 265.023 259.929 261.699 260.685C263.467 252.901 266.146 241.148 267.892 233.498L267.881 233.509Z" fill="#8F9091"/>
<path opacity="0.15" d="M228.663 231.508C227.118 218.987 224.071 212.149 209.194 203.542C194.305 194.925 168.475 181.671 159.001 149.158C171.243 198.906 215.32 214.517 213.975 240.692C213.719 245.685 216.766 250.844 223.171 254.992C225.817 256.704 228.83 258.083 232.066 259.184C231.099 251.255 229.631 239.302 228.675 231.508H228.663Z" fill="#8F9091"/>
<path d="M204.145 161.245C206.547 165.392 213.407 169.328 225.439 167.938C226.239 167.849 227.084 167.716 227.94 167.549C229.442 170.952 230.698 174.788 231.688 178.969C235.557 195.325 236.458 217.086 234.69 251.711L234.634 252.846L238.037 253.023L238.092 251.889C239.883 216.919 238.96 194.881 235.001 178.19C234.012 174.01 232.777 170.162 231.321 166.738C238.404 164.703 246.365 160.522 252.203 155.752C257.529 161.089 265.023 166.059 271.862 168.806C270.06 172.075 268.437 175.778 267.025 179.825C261.398 196.026 258.229 217.864 256.439 252.834L256.384 253.969L259.786 254.146L259.842 253.012C261.61 218.387 264.723 196.826 270.238 180.948C271.65 176.889 273.296 173.198 275.131 169.962C275.965 170.218 276.788 170.429 277.577 170.607C289.397 173.209 296.624 169.996 299.438 166.115C301.528 163.224 301.639 159.699 299.727 156.441C298.003 153.517 294.823 152.06 291.009 152.427C284.983 153.027 278.678 157.887 273.607 165.837C267.092 163.335 259.875 158.609 254.738 153.494C255.828 152.438 256.751 151.404 257.473 150.414C263.522 142.175 263.522 134.692 261.499 130.444C259.986 127.242 257.162 125.307 253.748 125.14C250.346 124.962 247.333 126.608 245.498 129.632C243.052 133.658 242.284 141.108 247.466 149.914C248.089 150.97 248.9 152.093 249.879 153.25C244.252 157.82 236.602 161.778 229.853 163.613C225.628 155.196 219.846 149.714 213.908 148.502C210.15 147.746 206.836 148.869 204.823 151.604C202.588 154.651 202.333 158.165 204.123 161.256L204.145 161.245ZM276.999 166.949C281.391 160.411 286.684 156.285 291.354 155.818C291.765 155.774 292.154 155.763 292.544 155.785C294.445 155.885 295.957 156.73 296.802 158.165C298.037 160.255 298.003 162.312 296.702 164.102C294.523 167.104 288.552 169.517 278.333 167.271C277.9 167.182 277.455 167.071 277.01 166.949H276.999ZM250.424 148.179C246.788 141.986 245.998 135.403 248.433 131.389C249.634 129.41 251.413 128.42 253.593 128.532C255.772 128.643 257.44 129.81 258.43 131.901C260.442 136.137 258.986 142.609 254.738 148.402C254.138 149.225 253.37 150.092 252.447 150.993C251.625 150.003 250.946 149.058 250.424 148.179ZM207.592 153.617C208.782 151.993 210.839 151.348 213.252 151.838C217.855 152.772 222.703 157.42 226.395 164.369C225.939 164.447 225.483 164.514 225.049 164.558C214.653 165.748 208.96 162.746 207.092 159.532C205.98 157.62 206.158 155.574 207.592 153.617Z" fill="#595A5B"/>
<path d="M448.957 243.655C446.421 234.849 440.751 229.511 433.201 228.344C433.201 228.344 433.201 228.344 433.178 228.322C427.074 227.365 419.735 229.144 411.818 234.015C390.336 247.258 372.789 278.292 372.623 303.355C372.567 312.317 374.746 319.278 378.527 323.948C382.908 329.352 389.446 331.653 397.23 330.364C390.258 334 383.675 335.768 377.737 335.823L375.847 339.07L363.46 331.976L363.482 331.942C355.132 326.572 350.006 315.853 350.006 300.797C350.006 269.508 372.156 231.457 399.476 215.812C412.608 208.285 424.561 207.295 433.423 211.787L445.81 218.881L443.92 222.128C447.066 227.688 448.879 234.926 448.934 243.644L448.957 243.655Z" fill="#8F9091"/>
<path opacity="0.25" d="M448.957 243.655C446.421 234.849 440.751 229.511 433.201 228.344C433.201 228.344 433.201 228.344 433.178 228.322C427.074 227.365 419.735 229.144 411.818 234.015C390.336 247.258 372.789 278.292 372.623 303.355C372.567 312.317 374.746 319.278 378.527 323.948C382.908 329.352 389.446 331.653 397.23 330.364C390.258 334 383.675 335.768 377.737 335.823L375.847 339.07L363.46 331.976L363.482 331.942C355.132 326.572 350.006 315.853 350.006 300.797C350.006 269.508 372.156 231.457 399.476 215.812C412.608 208.285 424.561 207.295 433.423 211.787L445.81 218.881L443.92 222.128C447.066 227.688 448.879 234.926 448.934 243.644L448.957 243.655Z" fill="#07090A"/>
<path opacity="0.1" d="M397.252 330.364C390.28 334 383.698 335.768 377.76 335.823L375.87 339.07L363.483 331.976L363.505 331.943C355.154 326.572 350.028 315.853 350.028 300.797C350.028 285.742 355.566 267.817 364.517 252.439L384.454 263.859C377.226 276.502 372.723 290.69 372.634 303.344C372.578 312.306 374.758 319.266 378.538 323.937C382.919 329.341 389.457 331.642 397.241 330.352L397.252 330.364Z" fill="#07090A"/>
<path opacity="0.1" d="M397.252 330.364C390.28 334 383.698 335.768 377.76 335.823L375.87 339.07L363.483 331.976L363.505 331.943C355.154 326.572 350.028 315.853 350.028 300.797C350.028 296.794 350.395 292.68 351.096 288.51L372.701 300.886C372.667 301.709 372.634 302.532 372.634 303.344C372.578 312.306 374.758 319.266 378.538 323.937C382.919 329.341 389.457 331.642 397.241 330.352L397.252 330.364Z" fill="#07090A"/>
<path opacity="0.5" d="M445.521 218.714C436.592 213.778 424.349 214.589 410.839 222.317C407.748 224.085 404.713 226.153 401.777 228.455C401.477 228.689 401.166 228.933 400.876 229.178C400.799 229.244 400.721 229.3 400.643 229.378L389.301 222.884C392.593 220.204 396.006 217.825 399.498 215.823C412.63 208.296 424.583 207.306 433.445 211.798L445.521 218.714Z" fill="#8F9091"/>
<path d="M458.553 236.661C452.804 215.924 433.623 209.274 410.829 222.317C407.738 224.085 404.702 226.153 401.767 228.455C401.466 228.689 401.155 228.933 400.866 229.178C378.327 247.369 361.37 279.915 361.37 307.302C361.37 338.592 383.52 351.279 410.84 335.623C438.16 319.978 460.31 281.928 460.31 250.638C460.31 245.445 459.698 240.764 458.564 236.65L458.553 236.661ZM411.229 324.759C397.408 333.266 385.343 332.343 378.527 323.948C374.736 319.278 372.567 312.317 372.623 303.355C372.79 278.292 390.325 247.258 411.818 234.015C419.724 229.144 427.074 227.365 433.179 228.322C433.179 228.322 433.179 228.344 433.201 228.344C443.675 229.978 450.536 239.597 450.425 255.419C450.258 280.482 432.723 311.527 411.229 324.771V324.759Z" fill="#8F9091"/>
<path opacity="0.5" d="M458.553 236.65C458.409 236.239 454.461 223.029 440.629 218.003C427.397 213.199 407.56 224.096 401.778 228.466C404.713 226.164 407.738 224.107 410.84 222.328C433.624 209.285 452.804 215.935 458.553 236.65Z" fill="#F5F5F5"/>
<path opacity="0.5" d="M363.127 321.312C363.272 321.724 367.219 334.934 381.051 339.959C394.283 344.763 414.12 333.866 419.902 329.496C416.967 331.798 413.942 333.855 410.84 335.634C388.056 348.677 368.876 342.028 363.127 321.312Z" fill="#F5F5F5"/>
<path d="M450.436 255.408C450.269 280.471 432.734 311.516 411.24 324.759C397.419 333.266 385.354 332.343 378.538 323.948C384.643 324.893 391.97 323.114 399.887 318.244C421.37 305 438.916 273.955 439.083 248.892C439.138 239.964 436.981 233.003 433.201 228.344C443.675 229.967 450.536 239.597 450.436 255.408Z" fill="#8F9091"/>
<path opacity="0.3" d="M450.436 255.408C450.269 280.471 432.734 311.516 411.24 324.759C397.419 333.266 385.354 332.343 378.538 323.948C384.643 324.893 391.97 323.114 399.887 318.244C421.37 305 438.916 273.955 439.083 248.892C439.138 239.964 436.981 233.003 433.201 228.344C443.675 229.967 450.536 239.597 450.436 255.408Z" fill="#07090A"/>
<path d="M410.873 226.365C385.477 240.909 364.895 276.279 364.895 305.367C364.895 334.455 385.477 346.242 410.873 331.698C436.27 317.154 456.863 281.783 456.863 252.695C456.863 223.607 436.27 211.821 410.873 226.365ZM411.24 324.759C397.419 333.266 385.355 332.343 378.538 323.948C374.747 319.278 372.578 312.317 372.634 303.355C372.801 278.292 390.336 247.258 411.83 234.015C419.736 229.144 427.085 227.365 433.19 228.322L433.212 228.344C443.687 229.978 450.547 239.597 450.436 255.419C450.269 280.482 432.734 311.527 411.24 324.771V324.759Z" fill="#8F9091"/>
<path opacity="0.4" d="M410.873 226.365C385.477 240.909 364.895 276.279 364.895 305.367C364.895 334.455 385.477 346.242 410.873 331.698C436.27 317.154 456.863 281.783 456.863 252.695C456.863 223.607 436.27 211.821 410.873 226.365ZM411.24 324.759C397.419 333.266 385.355 332.343 378.538 323.948C374.747 319.278 372.578 312.317 372.634 303.355C372.801 278.292 390.336 247.258 411.83 234.015C419.736 229.144 427.085 227.365 433.19 228.322L433.212 228.344C443.687 229.978 450.547 239.597 450.436 255.419C450.269 280.482 432.734 311.527 411.24 324.771V324.759Z" fill="white"/>
<path opacity="0.2" d="M456.863 252.45C456.863 253.64 456.84 254.841 456.763 256.053C455.384 253.551 453.36 251.983 450.402 253.207C449.846 237.862 442.396 228.855 431.444 228.11C432.912 225.419 433.49 222.64 432.2 220.127C443.186 220.427 451.559 227.176 455.061 239.074C455.706 241.264 456.184 243.655 456.485 246.201C456.718 248.181 456.84 250.26 456.851 252.45H456.863Z" fill="white"/>
<path opacity="0.5" d="M452.003 238.629C450.969 240.008 449.59 240.809 448.067 241.042C445.832 235.316 442.074 231.379 437.259 229.456C437.192 227.354 437.715 225.375 438.849 223.852C441.54 220.238 446.655 220.616 450.291 224.697C453.927 228.777 454.694 235.015 452.003 238.629Z" fill="white"/>
<path opacity="0.2" d="M411.074 331.553C409.206 332.632 407.371 333.566 405.558 334.355C404.302 334.922 403.046 335.412 401.811 335.834C383.709 342.05 369.432 333.9 365.807 315.208C365.562 313.951 365.362 312.617 365.206 311.249C365.006 309.426 364.917 307.536 364.906 305.545C364.906 303.655 364.984 301.72 365.14 299.774C365.273 298.229 365.462 296.65 365.696 295.071C365.929 293.503 366.218 291.935 366.552 290.345C367.553 285.619 368.987 280.849 370.788 276.146C371.178 275.123 371.589 274.1 372.012 273.099C373.868 268.685 376.026 264.359 378.472 260.167C381.485 255.041 384.877 250.149 388.602 245.657C388.501 245.979 386.878 251.25 390.647 254.263C379.895 268.94 372.723 287.354 372.612 303.333C372.556 312.295 374.736 319.255 378.516 323.926C384.365 331.131 394.083 332.832 405.458 327.784C406.415 329.73 408.116 331.309 411.051 331.542L411.074 331.553Z" fill="white"/>
<path d="M447.244 229.867L451.081 232.78L446.733 230.835L441.551 238.24L445.432 230.279L441.551 227.321L445.988 229.144L451.081 221.861L447.244 229.867Z" fill="white"/>
<path d="M417.044 283.729C416.499 284.474 413.998 287.81 409.85 290.201C409.261 290.545 408.683 290.79 408.115 291.001C407.726 289.678 407.504 288.132 407.504 286.364C407.504 278.225 412.296 268.929 418.178 265.527C421.77 263.448 425.473 263.637 425.473 263.637L430.154 248.003L421.826 243.199C421.503 242.955 416.811 241.009 407.559 246.357C395.25 253.462 383.809 273.722 383.809 290.712C383.809 299.552 387.022 305.612 391.859 308.292C393.216 309.037 398.664 312.25 400.11 313.062C404.424 315.497 410.05 315.241 415.877 311.883C424.261 307.035 430.143 298.851 430.143 298.851C428.508 295.149 426.985 292.247 425.35 288.544L417.022 283.74L417.044 283.729Z" fill="#8F9091"/>
<path d="M425.484 263.637L430.165 248.003C429.842 247.758 425.15 245.812 415.899 251.161C403.59 258.266 392.148 278.525 392.148 295.516C392.148 312.506 403.59 318.977 415.899 311.872C424.283 307.024 430.165 298.84 430.165 298.84C428.53 295.138 427.007 292.235 425.372 288.533C424.828 289.278 422.326 292.613 418.178 295.004C412.296 298.396 407.504 294.782 407.504 286.353C407.504 277.925 412.296 268.918 418.178 265.516C421.77 263.436 425.473 263.625 425.473 263.625L425.484 263.637Z" fill="#8F9091"/>
<path opacity="0.3" d="M425.484 263.637L430.165 248.003C429.842 247.758 425.15 245.812 415.899 251.161C403.59 258.266 392.148 278.525 392.148 295.516C392.148 312.506 403.59 318.977 415.899 311.872C424.283 307.024 430.165 298.84 430.165 298.84C428.53 295.138 427.007 292.235 425.372 288.533C424.828 289.278 422.326 292.613 418.178 295.004C412.296 298.396 407.504 294.782 407.504 286.353C407.504 277.925 412.296 268.918 418.178 265.516C421.77 263.436 425.473 263.625 425.473 263.625L425.484 263.637Z" fill="white"/>
<path opacity="0.3" d="M396.607 308.792C386.221 292.536 401.077 260.823 415.899 251.161C403.59 258.266 392.148 278.525 392.148 295.516C392.148 312.506 403.59 318.977 415.888 311.872C409.372 315.308 400.977 315.364 396.596 308.792H396.607Z" fill="white"/>
<path d="M103.526 76.5932L99.9342 80.5517C96.8097 83.3649 96.8097 63.9839 99.9342 61.1707L115.246 58.5799C115.757 58.5243 116.224 58.6244 116.613 58.8357C117.836 59.5028 122.162 62.0492 122.551 62.2716C123.785 62.9387 124.263 64.6956 123.162 65.9076L105.85 83.9876C104.304 85.3775 103.526 81.3634 103.504 76.6044L103.526 76.5932Z" fill="#8F9091"/>
<path opacity="0.2" d="M103.526 76.5932L99.9342 80.5517C96.8097 83.3649 96.8097 63.9839 99.9342 61.1707L115.246 58.5799C115.757 58.5243 116.224 58.6244 116.613 58.8357C117.836 59.5028 122.162 62.0492 122.551 62.2716C123.785 62.9387 124.263 64.6956 123.162 65.9076L105.85 83.9876C104.304 85.3775 103.526 81.3634 103.504 76.6044L103.526 76.5932Z" fill="white"/>
<path opacity="0.7" d="M103.526 76.5932L99.9342 80.5517C96.8097 83.3649 96.8097 63.9839 99.9342 61.1707L115.246 58.5799C115.757 58.5243 116.224 58.6244 116.613 58.8357C117.836 59.5028 122.162 62.0492 122.551 62.2716C123.785 62.9387 124.263 64.6956 123.162 65.9076L105.85 83.9876C104.304 85.3775 103.526 81.3634 103.504 76.6044L103.526 76.5932Z" fill="white"/>
<path d="M42.7258 127.397L42.7036 67.8312C42.7036 66.4524 43.671 64.7845 44.8608 64.0951L97.7998 33.517C98.9896 32.8276 100.913 32.8387 102.103 33.5392L106.006 35.8409C107.196 36.5415 108.152 38.2205 108.152 39.5993L108.174 99.1655C108.174 100.544 107.207 102.212 106.017 102.902L53.0779 133.48C51.8882 134.169 49.9645 134.158 48.7748 133.457L44.8719 131.156C43.6821 130.455 42.7258 128.776 42.7258 127.397Z" fill="#8F9091"/>
<path opacity="0.2" d="M42.7258 127.397L42.7036 67.8312C42.7036 66.4524 43.671 64.7845 44.8608 64.0951L97.7998 33.517C98.9896 32.8276 100.913 32.8387 102.103 33.5392L106.006 35.8409C107.196 36.5415 108.152 38.2205 108.152 39.5993L108.174 99.1655C108.174 100.544 107.207 102.212 106.017 102.902L53.0779 133.48C51.8882 134.169 49.9645 134.158 48.7748 133.457L44.8719 131.156C43.6821 130.455 42.7258 128.776 42.7258 127.397Z" fill="white"/>
<path opacity="0.7" d="M108.119 39.2657C107.963 38.1426 107.073 37.7312 105.984 38.365L53.0558 68.9431C52.5109 69.2545 52.0105 69.7771 51.6325 70.3887L43.3931 65.6296C43.7711 64.9847 44.2826 64.4398 44.8497 64.1062L97.7888 33.5281C98.9785 32.8387 100.902 32.8498 102.092 33.5504L105.995 35.8521C107.085 36.497 107.985 37.9647 108.119 39.2657Z" fill="white"/>
<path d="M50.9207 132.234L50.8984 72.6681C50.8984 71.2893 51.8658 69.6214 53.0556 68.932L105.995 38.3539C107.184 37.6645 108.152 38.2205 108.152 39.5993V64.3286L121.184 61.9936C123.33 61.749 124.631 64.2953 123.174 65.8853L108.174 81.5525V99.1543C108.174 100.533 107.207 102.201 106.017 102.89L53.0778 133.469C51.8881 134.158 50.9207 133.602 50.9207 132.223V132.234Z" fill="#8F9091"/>
<path opacity="0.4" d="M50.9207 132.234L50.8984 72.6681C50.8984 71.2893 51.8658 69.6214 53.0556 68.932L105.995 38.3539C107.184 37.6645 108.152 38.2205 108.152 39.5993V64.3286L121.184 61.9936C123.33 61.749 124.631 64.2953 123.174 65.8853L108.174 81.5525V99.1543C108.174 100.533 107.207 102.201 106.017 102.89L53.0778 133.469C51.8881 134.158 50.9207 133.602 50.9207 132.223V132.234Z" fill="white"/>
<path d="M88.7373 73.2352L87.0026 74.2359V66.697C87.0026 61.0929 83.589 58.5132 79.3859 60.9372C75.1828 63.3612 71.7692 69.8883 71.7692 75.4924V83.0313L70.0346 84.032C68.5112 84.9105 67.2881 87.2678 67.2881 89.2804V110.073C67.2881 111.786 68.1776 112.742 69.423 112.409C75.9834 110.652 82.7995 106.715 89.3599 100.9C89.9826 100.355 90.5163 99.5769 90.8944 98.7318C91.2725 97.8867 91.4948 96.9638 91.4948 96.1076V75.3145C91.4948 73.3019 90.2717 72.3568 88.7484 73.2352H88.7373ZM81.821 98.9764L76.9508 101.79L77.807 94.0728C76.9508 93.8504 76.3726 92.9275 76.3726 91.482C76.3726 89.2581 77.7291 86.6784 79.3859 85.7111C81.0538 84.7437 82.4104 85.7667 82.4104 87.9905C82.4104 89.436 81.8322 91.0261 80.976 92.2381L81.8322 98.9764H81.821ZM83.8781 76.0373L74.9048 81.2189V73.68C74.9048 70.3775 76.9174 66.5302 79.397 65.107C81.8766 63.6726 83.8892 65.1959 83.8892 68.4984V76.0373H83.8781Z" fill="#FAFAFA"/>
<g opacity="0.2">
<path d="M510.638 108.984L464.482 82.3419C463.737 81.9083 463.125 82.2641 463.125 83.1203V132.835C463.125 133.702 463.737 134.747 464.482 135.181L510.638 161.823C511.383 162.256 511.995 161.901 511.995 161.044V111.33C511.995 110.463 511.383 109.417 510.638 108.984Z" fill="#07090A"/>
</g>
<path d="M465.76 87.6458L506.268 111.019C507.091 111.497 507.769 112.653 507.769 113.609V160.7C507.769 161.656 507.091 162.801 506.268 163.279L503.421 164.892C502.587 165.359 501.253 165.359 500.419 164.881L459.911 141.508C459.089 141.03 458.421 139.873 458.421 138.917V91.8267C458.421 90.8704 459.1 89.7251 459.923 89.247L462.769 87.6347C463.603 87.1677 464.937 87.1677 465.771 87.6458H465.76Z" fill="#48494A"/>
<path d="M500.419 164.869C501.22 165.337 502.665 165.348 503.422 164.892L506.268 163.268C507.102 162.801 507.769 161.656 507.769 160.7V113.609C507.769 113.109 507.58 112.564 507.291 112.086L501.465 115.455C501.743 115.922 501.909 116.445 501.909 116.923V164.013C501.909 164.892 501.298 165.392 500.408 164.881L500.419 164.869Z" fill="#343536"/>
<path d="M459.901 90.9594L500.408 114.332C501.231 114.81 501.909 115.967 501.909 116.923V147.568V164.024C501.909 164.981 501.242 165.37 500.408 164.892L459.901 141.519C459.078 141.041 458.411 139.884 458.411 138.928V91.8378C458.411 90.8816 459.078 90.4924 459.901 90.9705V90.9594Z" fill="#595A5B"/>
<path d="M481.127 108.773C477.413 106.627 473.744 106.393 470.786 108.094C467.35 110.073 465.382 114.477 465.382 120.159C465.382 130.377 471.442 141.886 479.181 146.356C481.261 147.557 483.318 148.157 485.253 148.157C486.776 148.157 488.221 147.779 489.522 147.034C492.958 145.044 494.926 140.652 494.926 134.97C494.926 124.751 488.866 113.243 481.127 108.773ZM481.127 142.987C474.589 139.206 469.274 128.965 469.274 120.159C469.274 117.501 469.763 115.266 470.675 113.654L486.598 144.076C484.674 144.643 482.617 143.854 481.127 142.998V142.987ZM489.634 141.486L473.711 111.063C474.155 110.93 474.611 110.863 475.067 110.863C476.568 110.863 478.047 111.486 479.181 112.153C485.72 115.922 491.035 126.163 491.035 134.981C491.035 137.638 490.545 139.873 489.634 141.486Z" fill="#FAFAFA"/>
<g opacity="0.2">
<path d="M510.638 27.8017L464.482 1.15979C463.737 0.726132 463.125 1.08195 463.125 1.93814V51.6637C463.125 52.531 463.737 53.5763 464.482 54.0099L510.638 80.6518C511.383 81.0854 511.995 80.7296 511.995 79.8734V30.1478C511.995 29.2805 511.383 28.2353 510.638 27.8017Z" fill="#07090A"/>
</g>
<path d="M465.76 6.45259L506.268 29.8254C507.091 30.3035 507.769 31.4599 507.769 32.4162V79.5065C507.769 80.4628 507.091 81.608 506.268 82.0862L503.421 83.6985C502.587 84.1655 501.253 84.1655 500.419 83.6874L459.911 60.3146C459.089 59.8364 458.421 58.68 458.421 57.7238V10.6335C458.421 9.67719 459.1 8.5319 459.923 8.05377L462.769 6.44147C463.603 5.97446 464.937 5.97446 465.771 6.45259H465.76Z" fill="#8F9091"/>
<path opacity="0.2" d="M500.419 83.6762C501.22 84.1433 502.665 84.1544 503.422 83.6985L506.268 82.0751C507.102 81.6081 507.769 80.4516 507.769 79.5065V32.4051C507.769 31.9047 507.58 31.3599 507.291 30.8817L501.465 34.2509C501.743 34.7179 501.909 35.2405 501.909 35.7186V82.8089C501.909 83.6874 501.298 84.1877 500.408 83.6762H500.419Z" fill="#07090A"/>
<g opacity="0.2">
<path d="M458.433 10.3555C458.555 9.59936 459.167 9.33249 459.912 9.76615L500.419 33.139C500.831 33.3836 501.209 33.7839 501.476 34.262L507.302 30.8928C507.035 30.4481 506.668 30.0589 506.268 29.8254L465.749 6.45259C464.927 5.97446 463.592 5.97446 462.747 6.44147L459.901 8.05377C459.145 8.48743 458.522 9.46593 458.411 10.3666L458.433 10.3555Z" fill="white"/>
</g>
<path d="M459.901 9.76615L500.408 33.139C501.231 33.6171 501.909 34.7735 501.909 35.7298V66.3746V82.8312C501.909 83.7874 501.242 84.1766 500.408 83.6985L459.901 60.3257C459.078 59.8476 458.411 58.6911 458.411 57.7349V10.6335C458.411 9.6772 459.078 9.28802 459.901 9.76615Z" fill="#8F9091"/>
<path d="M475.424 58.9802C475.301 58.9802 475.168 58.9802 475.034 58.958C474.067 58.8246 473.233 58.213 472.822 57.3346L468.196 47.5941C467.518 46.1597 468.14 44.4473 469.575 43.769C471.009 43.0907 472.722 43.7134 473.4 45.1478L476.135 50.8743L489.356 35.4851C490.39 34.2842 492.214 34.1397 493.415 35.1738C494.615 36.2079 494.76 38.0203 493.726 39.2323L477.614 57.9906C477.058 58.6355 476.269 58.9914 475.435 58.9914L475.424 58.9802Z" fill="#FAFAFA"/>
</svg>
