<svg width="540" height="484" viewBox="0 0 540 484" fill="none" xmlns="http://www.w3.org/2000/svg">
<path d="M270 483.321C419.117 483.321 540 413.529 540 327.436C540 241.343 419.117 171.551 270 171.551C120.883 171.551 0 241.343 0 327.436C0 413.529 120.883 483.321 270 483.321Z" fill="#F0F0F0"/>
<path d="M120.952 423.935L74.3803 397.051C71.756 395.538 71.756 393.074 74.3803 391.562L345.274 235.161C347.898 233.648 352.161 233.648 354.786 235.161L401.357 262.045C403.982 263.558 403.982 266.022 401.357 267.534L130.464 423.935C127.839 425.448 123.576 425.448 120.952 423.935Z" fill="#E0E0E0"/>
<path d="M321.14 435.062L209.294 370.487L349.067 289.938L460.787 354.444L321.14 435.062Z" fill="#E0E0E0"/>
<path d="M288.355 376.022L328.395 352.874C332.52 350.49 334.583 347.373 334.583 344.245C334.583 341.116 334.606 338.676 334.606 338.676L293.065 315.252C290.865 313.98 289.077 310.886 289.077 308.353V258.997L219.15 299.403V348.76C219.15 351.304 220.927 354.387 223.138 355.659L258.48 376.022C266.731 380.79 280.116 380.79 288.366 376.022H288.355Z" fill="#A3A3A3"/>
<g opacity="0.6">
<path d="M288.355 376.022L328.395 352.874C332.52 350.49 334.583 347.373 334.583 344.245C334.583 341.116 334.606 338.676 334.606 338.676L293.065 315.252C290.865 313.98 289.077 310.886 289.077 308.353V258.997L219.15 299.403V348.76C219.15 351.304 220.927 354.387 223.138 355.659L258.48 376.022C266.731 380.79 280.116 380.79 288.366 376.022H288.355Z" fill="black"/>
</g>
<path opacity="0.3" d="M235.939 357.492V363.039L223.127 355.647C220.938 354.387 219.15 351.293 219.15 348.749V299.392L232.478 291.703C232.753 295.083 233.051 298.578 233.326 301.993L223.986 307.402V345.964C223.986 348.519 225.763 351.602 227.963 352.863L235.95 357.492H235.939Z" fill="black"/>
<path d="M223.964 345.975C223.964 348.519 225.752 351.602 227.952 352.874L258.457 370.442C266.708 375.209 280.093 375.209 288.355 370.442L328.407 347.293C336.658 342.526 336.658 334.802 328.407 330.035L297.878 312.444C295.678 311.172 293.89 308.078 293.89 305.546V266.973L223.964 307.379V345.952V345.975Z" fill="#A3A3A3"/>
<path opacity="0.3" d="M223.964 345.975C223.964 348.519 225.752 351.602 227.952 352.874L258.457 370.442C266.708 375.209 280.093 375.209 288.355 370.442L328.407 347.293C336.658 342.526 336.658 334.802 328.407 330.035L297.878 312.444C295.678 311.172 293.89 308.078 293.89 305.546V266.973L223.964 307.379V345.952V345.975Z" fill="black"/>
<path opacity="0.5" d="M306.003 317.154L297.889 312.467C295.689 311.195 293.901 308.101 293.901 305.569V266.996L223.975 307.402V345.975C223.975 348.519 225.762 351.602 227.963 352.874L235.938 357.481L306.014 317.154H306.003Z" fill="black"/>
<path d="M334.595 338.676V344.245C334.595 347.373 332.521 350.479 328.407 352.874L288.367 376.011C284.413 378.314 279.279 379.46 274.1 379.552V374.006C279.279 373.937 284.413 372.745 288.367 370.465L328.407 347.305C332.521 344.933 334.595 341.804 334.595 338.676Z" fill="#A3A3A3"/>
<path opacity="0.5" d="M334.595 338.676V344.245C334.595 347.373 332.521 350.479 328.407 352.874L288.367 376.011C284.413 378.314 279.279 379.46 274.1 379.552V374.006C279.279 373.937 284.413 372.745 288.367 370.465L328.407 347.305C332.521 344.933 334.595 341.804 334.595 338.676Z" fill="black"/>
<path d="M111.681 393.911C114.26 395.401 118.58 395.32 121.342 393.727C155.721 373.879 357.41 257.438 391.789 237.59C394.539 235.997 396.774 232.135 396.774 228.961V10.1971C396.774 7.02283 394.677 3.24116 392.098 1.75141C389.52 0.261656 385.199 0.341874 382.438 1.93476L111.991 158.061C109.24 159.653 107.006 163.515 107.006 166.69V385.465C107.006 388.639 109.092 392.421 111.681 393.911Z" fill="#A3A3A3"/>
<path d="M121.342 393.728L391.789 237.59C394.54 235.997 396.774 232.135 396.774 228.961V10.1857C396.774 7.01136 394.54 5.71643 391.789 7.30931L121.342 163.447C118.592 165.039 116.357 168.901 116.357 172.076V390.851C116.357 394.025 118.581 395.32 121.331 393.728H121.342Z" fill="#A3A3A3"/>
<path opacity="0.5" d="M121.342 393.728L391.789 237.59C394.54 235.997 396.774 232.135 396.774 228.961V10.1857C396.774 7.01136 394.54 5.71643 391.789 7.30931L121.342 163.447C118.592 165.039 116.357 168.901 116.357 172.076V390.851C116.357 394.025 118.581 395.32 121.331 393.728H121.342Z" fill="black"/>
<path d="M120.608 399.423C117.847 400.638 114.031 400.592 111.681 399.24C109.103 397.738 107.006 393.968 107.006 390.771V370.854L116.345 376.263V396.18C116.345 399.079 118.19 400.386 120.597 399.423H120.608Z" fill="#A3A3A3"/>
<path opacity="0.5" d="M120.608 399.423C117.847 400.638 114.031 400.592 111.681 399.24C109.103 397.738 107.006 393.968 107.006 390.771V370.854L116.345 376.263V396.18C116.345 399.079 118.19 400.386 120.597 399.423H120.608Z" fill="black"/>
<path d="M116.346 376.252V396.168C116.346 399.343 118.58 400.638 121.331 399.045L391.778 242.908C394.528 241.315 396.762 237.453 396.762 234.278V214.327L116.346 376.252Z" fill="#A3A3A3"/>
<path opacity="0.3" d="M116.357 376.217V396.168C116.357 399.343 118.592 400.638 121.342 399.045L391.789 242.908C394.54 241.315 396.774 237.453 396.774 234.278V214.327L116.357 376.217Z" fill="black"/>
<path d="M125.696 351.258V175.181C125.696 173.279 127.037 170.953 128.687 170.001L384.42 22.3558C386.07 21.4047 387.411 22.1724 387.411 24.0862V200.163C387.411 202.065 386.082 204.392 384.431 205.343L128.687 352.989C127.037 353.94 125.696 353.172 125.696 351.258Z" fill="#A3A3A3"/>
<path d="M125.696 351.258V175.181C125.696 173.279 127.037 170.953 128.687 170.001L384.42 22.3558C386.07 21.4047 387.411 22.1724 387.411 24.0862V200.163C387.411 202.065 386.082 204.392 384.431 205.343L128.687 352.989C127.037 353.94 125.696 353.172 125.696 351.258Z" fill="#2E2E2E"/>
<path opacity="0.7" d="M117.823 167.148C116.929 168.718 116.379 170.483 116.356 172.076V376.252L107.017 370.843V166.69C107.017 165.097 107.59 163.332 108.483 161.762L117.823 167.148Z" fill="black"/>
<path opacity="0.3" d="M396.717 9.37205C396.361 6.80509 394.287 5.87687 391.778 7.30932L121.342 163.447C119.978 164.237 118.741 165.578 117.824 167.148L108.484 161.751C109.39 160.203 110.627 158.84 112.002 158.049L382.438 1.9233C385.2 0.330412 389.509 0.250195 392.098 1.7514C394.459 3.10364 396.396 6.39255 396.717 9.37205Z" fill="black"/>
<path d="M146.588 208.884C145.305 208.139 144.262 206.26 144.262 204.678V185.312C144.262 183.73 145.373 181.805 146.737 181.014L401.289 34.0331C402.665 33.2424 404.808 33.2081 406.102 33.9415C407.397 34.6749 408.429 36.5657 408.429 38.1471V57.5139C408.429 59.0953 407.329 61.0205 405.954 61.8112L151.39 208.792C150.014 209.583 147.872 209.629 146.588 208.884Z" fill="#A3A3A3"/>
<path opacity="0.4" d="M408.394 37.7461C408.222 36.4626 407.179 35.9927 405.942 36.7147L151.389 183.696C150.713 184.097 150.094 184.773 149.636 185.552L144.983 182.859C145.442 182.08 146.049 181.415 146.737 181.014L401.289 34.0331C402.653 33.2424 404.807 33.1966 406.091 33.9415C407.271 34.629 408.245 36.2563 408.394 37.7461Z" fill="white"/>
<path d="M151.39 366.454C151.39 366.454 150.759 366.912 149.441 367.05C148.422 367.153 147.356 366.992 146.588 366.545C145.293 365.8 144.262 363.921 144.262 362.34V214.694L148.914 217.387V365.021C148.914 366.144 149.476 366.797 150.289 366.797C150.404 366.797 150.851 366.763 151.39 366.454Z" fill="#F0F0F0"/>
<path opacity="0.1" d="M149.636 185.552C149.189 186.32 148.914 187.202 148.914 187.993V217.387L144.25 214.694V185.311C144.25 185.208 144.25 185.117 144.261 185.014C144.284 184.784 144.307 184.601 144.353 184.395C144.479 183.879 144.697 183.329 144.972 182.859L149.625 185.552H149.636Z" fill="black"/>
<path d="M408.418 38.1471V51.4059L225.866 156.823C224.503 157.614 223.391 156.972 223.391 155.39V150.371C223.391 148.79 222.279 148.148 220.904 148.939L160.707 183.696C159.332 184.486 158.22 186.412 158.22 187.993V193.012C158.22 194.594 157.109 196.519 155.745 197.31L148.915 201.252V187.993C148.915 186.412 150.027 184.486 151.39 183.696L405.943 36.7147C407.306 35.924 408.418 36.5657 408.418 38.1471Z" fill="#A3A3A3"/>
<path d="M150.289 366.213C149.568 366.213 149.487 365.376 149.487 365.01V201.584L156.031 197.802C156.833 197.344 157.475 195.27 158.77 190.675C159.446 188.257 160.477 184.59 161.004 184.177L220.101 150.05C220.606 150.314 221.717 152.273 222.393 153.454C223.837 155.998 224.708 157.43 225.682 157.43C225.854 157.43 226.015 157.384 226.152 157.304L407.844 52.4029V215.175C407.844 216.55 406.836 218.292 405.656 218.98L151.103 365.949C150.805 366.121 150.53 366.213 150.289 366.213Z" fill="#FAFAFA"/>
<path d="M407.271 53.3884V215.175C407.271 216.356 406.377 217.903 405.369 218.487L150.816 365.457C150.53 365.617 150.347 365.64 150.289 365.64C150.06 365.64 150.06 365.044 150.06 365.01V201.917L156.317 198.307C157.302 197.734 157.921 195.809 159.319 190.846C159.938 188.635 160.866 185.323 161.371 184.647L220.032 150.784C220.537 151.368 221.373 152.835 221.9 153.763C223.493 156.571 224.387 158.038 225.682 158.038C225.946 158.038 226.209 157.969 226.438 157.831L407.271 53.3884ZM408.417 51.4059L225.865 156.823C225.808 156.857 225.751 156.869 225.682 156.869C224.295 156.869 221.476 149.466 220.078 149.466C220.01 149.466 219.952 149.477 219.895 149.512L160.706 183.684C159.331 184.475 157.108 196.508 155.744 197.298L148.914 201.24V365.01C148.914 366.133 149.476 366.786 150.289 366.786C150.622 366.786 151 366.683 151.389 366.442L405.942 219.461C407.317 218.67 408.417 216.745 408.417 215.164V51.4059Z" fill="#E0E0E0"/>
<path d="M192.461 272.852L226.381 253.267C227.298 252.74 228.031 253.164 228.031 254.218V311.344C228.031 312.399 227.286 313.682 226.381 314.209L192.461 333.794C191.544 334.321 190.811 333.897 190.811 332.843V275.716C190.811 274.662 191.555 273.379 192.461 272.852Z" fill="#F0F0F0"/>
<path d="M198.661 276.438L220.17 264.016C221.087 263.489 221.821 263.867 221.821 264.853C221.821 265.838 221.076 267.076 220.17 267.603L198.649 280.025C197.732 280.552 196.999 280.174 196.999 279.189C196.999 278.203 197.744 276.966 198.649 276.438H198.661Z" fill="#E0E0E0"/>
<path d="M197.01 285.698V286.993C197.01 287.623 197.457 287.887 198.007 287.566L199.13 286.924C199.68 286.603 200.127 285.835 200.127 285.205V283.91C200.127 283.28 199.68 283.016 199.13 283.337L198.007 283.979C197.457 284.3 197.01 285.067 197.01 285.698Z" fill="#A3A3A3"/>
<path d="M203.21 282.764C203.21 283.75 203.955 284.128 204.86 283.601L220.17 274.765C221.087 274.238 221.82 273.012 221.82 272.015C221.82 271.029 221.075 270.651 220.17 271.178L204.86 280.014C203.943 280.541 203.21 281.767 203.21 282.764Z" fill="#E0E0E0"/>
<path d="M197.01 292.871V294.166C197.01 294.797 197.457 295.06 198.007 294.739L199.13 294.098C199.68 293.777 200.127 293.009 200.127 292.379V291.084C200.127 290.453 199.68 290.19 199.13 290.511L198.007 291.152C197.457 291.473 197.01 292.241 197.01 292.871Z" fill="#A3A3A3"/>
<path d="M203.21 289.938C203.21 290.923 203.955 291.301 204.86 290.774L220.17 281.939C221.087 281.412 221.82 280.186 221.82 279.189C221.82 278.203 221.075 277.825 220.17 278.352L204.86 287.188C203.943 287.715 203.21 288.941 203.21 289.938Z" fill="#E0E0E0"/>
<path d="M197.01 300.034V301.329C197.01 301.959 197.457 302.222 198.007 301.902L199.13 301.26C199.68 300.939 200.127 300.171 200.127 299.541V298.246C200.127 297.616 199.68 297.352 199.13 297.673L198.007 298.315C197.457 298.636 197.01 299.403 197.01 300.034Z" fill="#A3A3A3"/>
<path d="M203.21 297.1C203.21 298.086 203.955 298.464 204.86 297.937L220.17 289.101C221.087 288.574 221.82 287.348 221.82 286.351C221.82 285.365 221.075 284.987 220.17 285.514L204.86 294.35C203.943 294.877 203.21 296.103 203.21 297.1Z" fill="#E0E0E0"/>
<path d="M197.01 307.196V308.491C197.01 309.121 197.457 309.385 198.007 309.064L199.13 308.422C199.68 308.101 200.127 307.333 200.127 306.703V305.408C200.127 304.778 199.68 304.514 199.13 304.835L198.007 305.477C197.457 305.798 197.01 306.566 197.01 307.196Z" fill="#A3A3A3"/>
<path d="M203.21 304.251C203.21 305.236 203.955 305.615 204.86 305.087L220.17 296.252C221.087 295.725 221.82 294.499 221.82 293.502C221.82 292.516 221.075 292.138 220.17 292.665L204.86 301.501C203.943 302.028 203.21 303.254 203.21 304.251Z" fill="#E0E0E0"/>
<path d="M198.534 315.917L220.043 303.495C220.96 302.967 221.694 303.346 221.694 304.331C221.694 305.317 220.949 306.554 220.043 307.081L198.522 319.504C197.605 320.031 196.872 319.653 196.872 318.667C196.872 317.682 197.617 316.444 198.522 315.917H198.534Z" fill="#E0E0E0"/>
<path d="M196.872 325.188V326.483C196.872 327.113 197.319 327.376 197.869 327.055L198.992 326.414C199.542 326.093 199.989 325.325 199.989 324.695V323.4C199.989 322.77 199.542 322.506 198.992 322.827L197.869 323.469C197.319 323.789 196.872 324.557 196.872 325.188Z" fill="#A3A3A3"/>
<path d="M203.083 322.242C203.083 323.228 203.828 323.606 204.733 323.079L220.043 314.244C220.96 313.717 221.693 312.49 221.693 311.493C221.693 310.496 220.949 310.13 220.043 310.657L204.733 319.492C203.816 320.019 203.083 321.245 203.083 322.242Z" fill="#E0E0E0"/>
<path d="M396.786 46.4668C398.505 45.4698 399.903 46.2835 399.903 48.266C399.903 50.2485 398.505 52.6779 396.786 53.6749C395.067 54.6719 393.669 53.8583 393.669 51.8758C393.669 49.8932 395.067 47.4638 396.786 46.4668Z" fill="white"/>
<path d="M385.544 52.9415C387.263 51.9445 388.661 52.7581 388.661 54.7406C388.661 56.7232 387.263 59.1526 385.544 60.1496C383.825 61.1466 382.427 60.3329 382.427 58.3504C382.427 56.3679 383.825 53.9385 385.544 52.9415Z" fill="white"/>
<path d="M374.303 59.4276C376.022 58.4307 377.42 59.2443 377.42 61.2268C377.42 63.2093 376.022 65.6388 374.303 66.6357C372.584 67.6327 371.186 66.8191 371.186 64.8366C371.186 62.8541 372.584 60.4246 374.303 59.4276Z" fill="white"/>
<path d="M408.418 51.4059V67.541L148.915 217.387V201.252L154.015 198.295C155.378 197.505 155.837 196.301 156.49 193.998L158.22 187.993C158.77 185.907 159.332 184.486 160.707 183.696L219.896 149.523C221.271 148.732 222.348 148.641 223.391 150.371L225.511 154.222C226.29 155.562 226.68 156.353 228.044 155.562L408.418 51.4059Z" fill="#E6E6E6"/>
<path d="M148.914 201.252V217.387L144.25 214.694V198.57L148.914 201.252Z" fill="#E0E0E0"/>
<path opacity="0.5" d="M160.293 202.409L156.397 204.655L157.887 201.802C158.013 201.55 158.036 201.24 157.921 201.103C157.807 200.965 157.612 201.069 157.474 201.309L155.366 205.377C155.366 205.377 155.366 205.377 155.366 205.389C155.343 205.435 155.32 205.492 155.309 205.538C155.309 205.549 155.297 205.572 155.286 205.584C155.274 205.652 155.263 205.721 155.263 205.79C155.263 205.859 155.263 205.916 155.286 205.973C155.286 205.985 155.297 205.996 155.309 206.008C155.32 206.042 155.343 206.076 155.366 206.088L157.474 207.715C157.532 207.761 157.612 207.761 157.681 207.715C157.772 207.669 157.853 207.555 157.921 207.417C158.036 207.154 158.024 206.856 157.887 206.752L156.397 205.607L160.293 203.36C160.465 203.257 160.603 202.959 160.603 202.696C160.603 202.432 160.465 202.295 160.293 202.398V202.409Z" fill="#545454"/>
<path opacity="0.5" d="M163.548 200.541L167.444 198.295L165.954 197.149C165.828 197.046 165.805 196.748 165.92 196.485C166.034 196.221 166.229 196.084 166.367 196.187L168.475 197.814C168.498 197.837 168.521 197.86 168.533 197.894C168.533 197.894 168.544 197.906 168.556 197.929C168.567 197.974 168.578 198.043 168.578 198.112C168.578 198.181 168.578 198.249 168.556 198.318C168.556 198.33 168.544 198.353 168.533 198.364C168.521 198.421 168.498 198.467 168.475 198.513C168.475 198.513 168.475 198.513 168.475 198.524L166.367 202.593C166.309 202.707 166.229 202.787 166.16 202.833C166.069 202.879 165.989 202.879 165.92 202.799C165.805 202.661 165.817 202.352 165.954 202.1L167.444 199.246L163.548 201.493C163.376 201.596 163.238 201.458 163.238 201.195C163.238 200.931 163.376 200.633 163.548 200.53V200.541Z" fill="#545454"/>
<path opacity="0.5" d="M176.325 189.322C176.302 189.082 176.096 189.116 175.993 189.368L175.454 190.675C174.549 190.571 173.438 191.465 172.693 193.035C171.73 195.075 171.73 197.493 172.693 198.421C173.174 198.88 173.804 198.891 174.446 198.524C175.076 198.158 175.718 197.424 176.199 196.404C176.325 196.141 176.325 195.843 176.199 195.717C176.073 195.591 175.878 195.717 175.752 195.969C175.03 197.493 173.862 198.169 173.14 197.482C172.418 196.794 172.418 194.983 173.14 193.459C173.655 192.371 174.389 191.729 175.03 191.695L174.629 192.68C174.526 192.932 174.629 193.173 174.79 193.07L176.383 192.038C176.497 191.97 176.577 191.763 176.555 191.603L176.325 189.322Z" fill="#545454"/>
<path opacity="0.5" d="M218.187 156.88L219.608 153.878C219.779 153.523 219.779 153.099 219.608 152.938C219.436 152.778 219.172 152.938 219 153.293L217.579 156.296L216.158 154.932C215.986 154.772 215.723 154.932 215.551 155.287C215.379 155.643 215.379 156.067 215.551 156.227L216.972 157.591L215.551 160.593C215.379 160.948 215.379 161.372 215.551 161.533C215.631 161.613 215.746 161.613 215.86 161.556C215.975 161.487 216.078 161.361 216.17 161.189L217.591 158.187L219.012 159.55C219.092 159.631 219.206 159.631 219.321 159.573C219.436 159.504 219.539 159.378 219.63 159.206C219.802 158.851 219.802 158.427 219.63 158.267L218.209 156.903L218.187 156.88Z" fill="#545454"/>
<path d="M181.493 193.012V187.993C181.493 186.412 182.605 184.486 183.98 183.696L391.983 63.6448C393.359 62.8541 394.459 63.4958 394.459 65.0772V70.0966C394.459 71.678 393.347 73.6032 391.972 74.3939L183.98 194.445C182.605 195.236 181.493 194.594 181.493 193.012Z" fill="#FAFAFA"/>
<path d="M390.529 66.3034L391.182 67.6901C391.228 67.7817 391.308 67.8046 391.4 67.7703L392.855 67.2088C393.084 67.1171 393.176 67.4494 393.016 67.7588L391.961 69.7413C391.893 69.8674 391.87 70.0049 391.881 70.1195L392.133 71.9072C392.168 72.1937 391.927 72.5604 391.721 72.5375L390.414 72.377C390.334 72.377 390.231 72.4229 390.151 72.526L388.844 74.1877C388.638 74.4512 388.397 74.3596 388.432 74.0272L388.684 71.953C388.695 71.827 388.673 71.7124 388.604 71.6665L387.549 70.9102C387.378 70.7841 387.469 70.3601 387.71 70.1768L389.165 69.0537C389.257 68.985 389.337 68.8589 389.383 68.7214L390.036 66.5899C390.139 66.2461 390.437 66.0742 390.54 66.3034H390.529Z" stroke="#E0E0E0" stroke-width="0.75" stroke-miterlimit="10"/>
<g opacity="0.5">
<path d="M397.382 63.0374C397.084 63.0374 396.798 62.8885 396.637 62.602C396.397 62.1894 396.546 61.6623 396.947 61.4331L403.926 57.3993C404.338 57.1587 404.865 57.3076 405.095 57.7087C405.335 58.1213 405.186 58.6484 404.785 58.8776L397.806 62.9114C397.669 62.9916 397.52 63.026 397.382 63.026V63.0374Z" fill="#545454"/>
<path d="M397.382 67.0712C397.084 67.0712 396.798 66.9223 396.637 66.6358C396.397 66.2232 396.546 65.6961 396.947 65.4669L403.926 61.4331C404.338 61.1924 404.865 61.3414 405.095 61.7425C405.335 62.1551 405.186 62.6822 404.785 62.9114L397.806 66.9452C397.669 67.0254 397.52 67.0598 397.382 67.0598V67.0712Z" fill="#545454"/>
<path d="M397.382 71.105C397.084 71.105 396.798 70.9561 396.637 70.6696C396.397 70.257 396.546 69.7299 396.947 69.5007L403.926 65.4669C404.338 65.2262 404.865 65.3752 405.095 65.7763C405.335 66.1889 405.186 66.716 404.785 66.9452L397.806 70.979C397.669 71.0592 397.52 71.0936 397.382 71.0936V71.105Z" fill="#545454"/>
</g>
<path d="M148.914 217.387L148.902 233.499L408.394 83.6877L408.417 67.5411L148.914 217.387Z" fill="#545454"/>
<path d="M177.987 207.108V210.225C177.987 210.866 178.434 211.119 178.996 210.809L217.981 188.28V182.848L178.996 205.377C178.446 205.698 177.987 206.477 177.987 207.119V207.108Z" fill="#FAFAFA"/>
<path d="M223.241 179.811C223.791 179.49 224.25 179.754 224.25 180.395V183.512C224.25 184.154 223.803 184.933 223.241 185.254L217.97 188.291V182.859L223.241 179.822V179.811Z" fill="#A3A3A3"/>
<path d="M222.853 184.074L222.268 183.891C222.326 183.638 222.36 183.386 222.36 183.134C222.36 182.538 222.165 182.08 221.821 181.874C221.569 181.725 221.26 181.748 220.962 181.92C220.309 182.298 219.793 183.375 219.793 184.36C219.793 184.956 219.988 185.415 220.332 185.621C220.446 185.69 220.572 185.724 220.71 185.724C220.87 185.724 221.031 185.678 221.191 185.587C221.592 185.357 221.924 184.876 222.142 184.315L222.727 184.498C222.727 184.498 222.772 184.498 222.795 184.498C222.887 184.498 222.979 184.441 223.002 184.349C223.036 184.234 222.979 184.108 222.864 184.074H222.853ZM220.962 185.197C220.801 185.289 220.652 185.3 220.538 185.243C220.343 185.128 220.217 184.796 220.217 184.36C220.217 183.535 220.652 182.596 221.168 182.298C221.26 182.24 221.351 182.217 221.432 182.217C221.489 182.217 221.535 182.229 221.592 182.263C221.787 182.378 221.913 182.71 221.913 183.146C221.913 183.971 221.478 184.91 220.962 185.208V185.197Z" fill="#FAFAFA"/>
<path d="M171.181 209.892L168.511 211.428C167.961 211.749 167.514 212.517 167.514 213.147V216.23C167.514 216.86 167.961 217.123 168.511 216.803L171.169 215.267C171.719 214.946 172.166 214.178 172.166 213.548V210.465C172.166 209.835 171.719 209.572 171.169 209.892H171.181Z" fill="#FAFAFA"/>
<path d="M263.58 155.242C261.62 156.376 260.027 159.138 260.027 161.407C260.027 163.676 261.62 164.593 263.58 163.458C265.539 162.324 267.132 159.562 267.132 157.293C267.132 155.024 265.539 154.107 263.58 155.242Z" fill="#A3A3A3"/>
<path d="M263.167 158.851C263.052 158.851 262.949 158.828 262.846 158.771C262.628 158.645 262.502 158.393 262.502 158.061C262.502 157.453 262.915 156.743 263.442 156.433C263.728 156.273 264.003 156.25 264.232 156.376C264.45 156.502 264.576 156.754 264.576 157.087C264.576 157.694 264.164 158.404 263.636 158.714C263.476 158.805 263.316 158.851 263.167 158.851Z" fill="white"/>
<path d="M264.989 159.092C264.645 158.886 264.199 158.92 263.74 159.184L263.224 159.482C262.331 159.997 261.62 161.223 261.62 162.255V162.622C262.124 162.908 262.823 162.851 263.58 162.415C264.348 161.98 265.035 161.223 265.539 160.353V160.261C265.539 159.711 265.333 159.287 264.978 159.08L264.989 159.092Z" fill="white"/>
<path d="M271.716 152.48L296.068 138.419C297.054 137.846 297.856 138.281 297.856 139.381C297.856 140.482 297.054 141.845 296.068 142.407L271.716 156.468C270.731 157.041 269.929 156.605 269.929 155.505C269.929 154.405 270.731 153.041 271.716 152.48Z" fill="#E0E0E0"/>
<path d="M308.891 131.05L323.995 122.238C324.981 121.665 325.783 122.1 325.783 123.2C325.783 124.301 324.981 125.664 323.995 126.226L308.891 135.038C307.906 135.611 307.104 135.176 307.104 134.076C307.104 132.975 307.906 131.623 308.891 131.05Z" fill="#E0E0E0"/>
<path d="M336.853 114.984L347.282 108.933C348.267 108.36 349.069 108.796 349.069 109.896C349.069 110.996 348.267 112.36 347.282 112.921L336.865 118.972C335.879 119.545 335.077 119.109 335.077 118.009C335.077 116.909 335.879 115.545 336.865 114.984H336.853Z" fill="#E0E0E0"/>
<path d="M302.52 139.874C302.28 139.874 302.085 139.679 302.085 139.439V134.064C302.085 133.824 302.28 133.629 302.52 133.629C302.761 133.629 302.956 133.824 302.956 134.064V139.439C302.956 139.679 302.761 139.874 302.52 139.874Z" fill="#2E2E2E"/>
<path d="M330.447 123.751C330.207 123.751 330.012 123.556 330.012 123.315V117.94C330.012 117.7 330.207 117.505 330.447 117.505C330.688 117.505 330.883 117.7 330.883 117.94V123.315C330.883 123.556 330.688 123.751 330.447 123.751Z" fill="#2E2E2E"/>
<path d="M353.722 110.32C353.481 110.32 353.286 110.125 353.286 109.884V104.51C353.286 104.269 353.481 104.074 353.722 104.074C353.962 104.074 354.157 104.269 354.157 104.51V109.884C354.157 110.125 353.962 110.32 353.722 110.32Z" fill="#2E2E2E"/>
<path d="M362.67 102.023V101.038C362.67 99.9145 361.982 99.3873 361.134 99.8801C360.286 100.373 359.599 101.679 359.599 102.802V103.685C359.599 104.235 359.404 104.876 359.083 105.415C359.003 105.553 358.957 105.713 358.957 105.862C358.957 106.148 359.129 106.275 359.347 106.148L362.922 104.086C363.14 103.96 363.312 103.627 363.312 103.352C363.312 103.215 363.266 103.112 363.197 103.054C362.876 102.917 362.67 102.55 362.67 102.023Z" fill="#A3A3A3"/>
<path d="M361.88 105.014C361.88 105.553 361.548 106.183 361.146 106.424C360.745 106.653 360.413 106.412 360.413 105.862L361.88 105.014Z" fill="#A3A3A3"/>
<path d="M369.213 97.6913C369.087 97.6913 368.961 97.6569 368.857 97.5996C368.605 97.4506 368.468 97.1756 368.468 96.7974C368.468 96.1099 368.926 95.3077 369.522 94.9639C369.843 94.7806 370.164 94.7576 370.416 94.8952C370.668 95.0441 370.806 95.3192 370.806 95.6973C370.806 96.3849 370.336 97.1871 369.751 97.5309C369.568 97.634 369.385 97.6913 369.213 97.6913Z" fill="#A3A3A3"/>
<path d="M371.265 97.9548C370.875 97.7257 370.371 97.76 369.855 98.058L369.271 98.3903C368.262 98.9747 367.46 100.35 367.46 101.519V101.931C368.033 102.252 368.812 102.195 369.672 101.702C370.531 101.209 371.322 100.361 371.883 99.3758V99.2727C371.883 98.6539 371.654 98.1726 371.253 97.9434L371.265 97.9548Z" fill="#A3A3A3"/>
<path d="M372.054 95.0441C371.928 95.0441 371.802 95.0097 371.699 94.9524C371.447 94.8035 371.31 94.5284 371.31 94.1503C371.31 93.4627 371.779 92.6605 372.364 92.3167C372.685 92.1334 373.006 92.1105 373.258 92.248C373.51 92.397 373.647 92.672 373.647 93.0501C373.647 93.7377 373.177 94.5399 372.593 94.8837C372.41 94.9868 372.226 95.0441 372.054 95.0441Z" fill="#A3A3A3"/>
<path d="M374.106 95.3077C373.705 95.0785 373.212 95.1129 372.685 95.4108L372.112 95.7546C371.482 96.1099 370.943 96.7745 370.634 97.4965C371.092 97.2787 371.539 97.2673 371.883 97.4736C372.284 97.7028 372.513 98.1841 372.513 98.8029V99.055C373.384 98.5622 374.163 97.7142 374.736 96.7401V96.637C374.736 96.0182 374.507 95.5369 374.106 95.3077Z" fill="#A3A3A3"/>
<path d="M381.189 87.9735C379.585 88.9018 378.278 91.1708 378.278 93.0387C378.278 93.8409 378.53 94.4253 378.931 94.7691L378.565 96.4995C378.519 96.7172 378.668 96.8089 378.805 96.6485L380.112 95.1129C380.444 95.0785 380.811 94.9525 381.189 94.7347C382.793 93.8065 384.1 91.5375 384.1 89.6696C384.1 87.8017 382.793 87.0453 381.189 87.9735Z" fill="#A3A3A3"/>
<path d="M395.204 79.8143C395.456 79.6653 395.697 79.5851 395.926 79.5622C396.155 79.5393 396.35 79.5737 396.511 79.6768C396.683 79.7685 396.809 79.9289 396.9 80.1352C396.992 80.3414 397.049 80.605 397.049 80.9259C397.049 81.178 397.026 81.4187 396.969 81.6364C396.912 81.8541 396.843 82.0718 396.763 82.2781C396.683 82.4844 396.591 82.6792 396.488 82.8511C396.385 83.0345 396.293 83.2064 396.201 83.3782C396.11 83.5501 396.018 83.722 395.949 83.8939C395.869 84.0658 395.823 84.2377 395.8 84.4096C395.789 84.4898 395.766 84.57 395.731 84.6503C395.697 84.7305 395.663 84.7763 395.617 84.7992L394.78 85.2805C394.78 85.2805 394.689 85.3035 394.654 85.2805C394.62 85.2462 394.597 85.1889 394.597 85.1086C394.597 84.8795 394.631 84.6503 394.689 84.4325C394.746 84.2148 394.826 84.0085 394.918 83.8023C395.009 83.596 395.113 83.4012 395.216 83.2178C395.319 83.0345 395.422 82.8511 395.514 82.6792C395.605 82.5073 395.686 82.3469 395.743 82.1979C395.8 82.0375 395.835 81.9 395.835 81.751C395.835 81.5447 395.789 81.4187 395.686 81.3614C395.582 81.3041 395.434 81.3384 395.216 81.453C395.01 81.5676 394.861 81.7051 394.769 81.8541C394.677 82.0031 394.62 82.1406 394.574 82.2781C394.528 82.4156 394.494 82.5417 394.471 82.6563C394.436 82.7709 394.379 82.8511 394.299 82.8969L393.462 83.3782C393.462 83.3782 393.382 83.4012 393.359 83.3782C393.325 83.3553 393.313 83.3095 393.313 83.2407C393.313 82.9886 393.359 82.7136 393.451 82.3813C393.543 82.0604 393.657 81.7395 393.829 81.4187C393.99 81.0978 394.196 80.7998 394.425 80.5133C394.654 80.2269 394.929 80.0091 395.227 79.8258L395.204 79.8143ZM395.8 86.6672C395.8 86.7474 395.777 86.8276 395.743 86.8963C395.709 86.9766 395.663 87.0224 395.617 87.0568L394.757 87.5495C394.757 87.5495 394.666 87.5725 394.631 87.5495C394.597 87.5152 394.574 87.4579 394.574 87.3777V86.3119C394.574 86.2317 394.597 86.1629 394.631 86.0827C394.666 86.0025 394.712 85.9567 394.757 85.9223L395.617 85.4295C395.617 85.4295 395.709 85.4066 395.743 85.4295C395.777 85.4639 395.8 85.5212 395.8 85.6014V86.6672Z" fill="#A3A3A3"/>
<path d="M190.799 217.57V265.575C190.799 267.156 191.91 267.798 193.274 267.007L364.045 168.386C365.42 167.595 366.532 165.67 366.532 164.088V116.084C366.532 114.503 365.42 113.861 364.045 114.652L193.286 213.273C191.91 214.064 190.81 215.989 190.81 217.57H190.799Z" fill="#A3A3A3"/>
<path opacity="0.7" d="M190.799 217.57V265.575C190.799 267.156 191.91 267.798 193.274 267.007L364.045 168.386C365.42 167.595 366.532 165.67 366.532 164.088V116.084C366.532 114.503 365.42 113.861 364.045 114.652L193.286 213.273C191.91 214.064 190.81 215.989 190.81 217.57H190.799Z" fill="white"/>
<path d="M204.769 224.561C199.624 227.529 195.464 234.748 195.464 240.684C195.464 246.62 199.635 249.027 204.769 246.059C209.914 243.091 214.086 235.871 214.074 229.935C214.074 223.999 209.903 221.593 204.769 224.561Z" fill="#A3A3A3"/>
<path d="M203.68 234.026C203.382 234.026 203.107 233.958 202.855 233.809C202.282 233.476 201.961 232.812 201.961 231.941C201.961 230.359 203.038 228.491 204.413 227.689C205.158 227.254 205.892 227.196 206.476 227.54C207.049 227.873 207.37 228.537 207.37 229.408C207.37 230.99 206.293 232.857 204.918 233.648C204.494 233.889 204.069 234.015 203.68 234.015V234.026Z" fill="white"/>
<path d="M208.447 234.645C207.53 234.118 206.373 234.21 205.17 234.897L203.818 235.677C201.468 237.04 199.635 240.226 199.635 242.93V243.882C200.964 244.615 202.775 244.489 204.78 243.332C206.786 242.174 208.596 240.215 209.926 237.946V237.716C209.926 236.295 209.398 235.172 208.459 234.634L208.447 234.645Z" fill="white"/>
<path d="M220.514 222.601L240.236 211.21C241.222 210.637 242.024 211.004 242.024 212.012C242.024 213.021 241.222 214.304 240.236 214.877L220.514 226.268C219.529 226.841 218.727 226.475 218.727 225.466C218.727 224.458 219.529 223.174 220.514 222.601Z" fill="#545454"/>
<path d="M219.781 230.222L231.378 223.529C231.962 223.197 232.432 223.403 232.432 223.999C232.432 224.595 231.962 225.351 231.378 225.684L219.781 232.376C219.196 232.709 218.727 232.502 218.727 231.906C218.727 231.31 219.196 230.554 219.781 230.222Z" fill="#545454"/>
<path d="M193.286 267.076L364.057 168.454C365.432 167.664 366.543 165.739 366.543 164.157V156.296L190.799 257.748V265.632C190.799 267.213 191.91 267.855 193.274 267.064L193.286 267.076Z" fill="#F5F5F5"/>
<path d="M237.348 239.309C237.107 239.309 236.912 239.114 236.912 238.874V233.499C236.912 233.259 237.107 233.064 237.348 233.064C237.588 233.064 237.783 233.259 237.783 233.499V238.874C237.783 239.114 237.588 239.309 237.348 239.309Z" fill="#EBEBEB"/>
<path d="M216.526 246.38L231.63 237.567C232.615 236.994 233.417 237.43 233.417 238.53C233.417 239.63 232.615 240.994 231.63 241.555L216.526 250.368C215.54 250.941 214.738 250.505 214.738 249.405C214.738 248.305 215.54 246.953 216.526 246.38Z" fill="#E0E0E0"/>
<path d="M264.634 223.449C264.393 223.449 264.198 223.254 264.198 223.014V217.639C264.198 217.398 264.393 217.204 264.634 217.204C264.874 217.204 265.069 217.398 265.069 217.639V223.014C265.069 223.254 264.874 223.449 264.634 223.449Z" fill="#EBEBEB"/>
<path d="M243.81 230.531L258.914 221.719C259.899 221.146 260.702 221.581 260.702 222.681C260.702 223.781 259.899 225.145 258.914 225.707L243.81 234.519C242.825 235.092 242.022 234.657 242.022 233.557C242.022 232.456 242.825 231.093 243.81 230.531Z" fill="#E0E0E0"/>
<path d="M291.918 207.601C291.677 207.601 291.482 207.406 291.482 207.165V201.79C291.482 201.55 291.677 201.355 291.918 201.355C292.159 201.355 292.353 201.55 292.353 201.79V207.165C292.353 207.406 292.159 207.601 291.918 207.601Z" fill="#EBEBEB"/>
<path d="M271.096 214.671L286.2 205.859C287.186 205.286 287.988 205.721 287.988 206.821C287.988 207.921 287.186 209.285 286.2 209.847L271.096 218.659C270.111 219.232 269.309 218.797 269.309 217.696C269.309 216.596 270.111 215.233 271.096 214.671Z" fill="#E0E0E0"/>
<path d="M319.204 191.74C318.963 191.74 318.769 191.546 318.769 191.305V185.93C318.769 185.69 318.963 185.495 319.204 185.495C319.445 185.495 319.639 185.69 319.639 185.93V191.305C319.639 191.546 319.445 191.74 319.204 191.74Z" fill="#EBEBEB"/>
<path d="M298.371 198.822L313.474 190.01C314.46 189.437 315.262 189.872 315.262 190.973C315.262 192.073 314.46 193.436 313.474 193.998L298.371 202.81C297.385 203.383 296.583 202.948 296.583 201.848C296.583 200.748 297.385 199.384 298.371 198.822Z" fill="#E0E0E0"/>
<path d="M325.656 182.962L340.76 174.15C341.745 173.577 342.547 174.012 342.547 175.113C342.547 176.213 341.745 177.576 340.76 178.138L325.656 186.95C324.67 187.523 323.868 187.088 323.868 185.988C323.868 184.888 324.67 183.535 325.656 182.962Z" fill="#E0E0E0"/>
<path d="M184.807 427.923L200.048 419.145C200.048 419.145 209.502 391.321 207.107 365.697C204.128 333.851 189.093 322.666 180.257 326.219C171.422 329.771 173.244 342.457 182.606 359.475C190.032 372.963 190.044 404.053 184.807 427.923Z" fill="#A3A3A3"/>
<path opacity="0.1" d="M184.807 427.923L200.048 419.145C200.048 419.145 209.502 391.321 207.107 365.697C204.128 333.851 189.093 322.666 180.257 326.219C171.422 329.771 173.244 342.457 182.606 359.475C190.032 372.963 190.044 404.053 184.807 427.923Z" fill="black"/>
<path d="M192.13 424.439C192.416 424.439 192.691 424.256 192.783 423.958C202.592 393.922 203.005 351.74 184.44 332.728C184.177 332.453 183.741 332.453 183.466 332.717C183.191 332.98 183.191 333.416 183.466 333.691C200.988 351.636 201.309 393.464 191.488 423.534C191.373 423.901 191.568 424.29 191.935 424.405C192.003 424.428 192.084 424.439 192.152 424.439H192.13Z" fill="white"/>
<path d="M157.441 443.726C155.859 444.631 152.616 442.649 151.367 441.812C149.236 440.38 147.505 438.351 146.359 436.071C145.019 433.401 144.686 430.547 145.11 427.602C145.328 426.078 145.752 424.577 146.187 423.099C146.612 421.643 147.024 420.188 147.448 418.721C147.861 417.277 148.285 415.799 148.09 414.309C147.712 411.318 145.053 409.221 142.635 407.41C139.965 405.416 137.192 402.769 137.203 399.171C137.215 396.398 138.659 393.808 140.377 391.63C142.096 389.453 144.148 387.528 145.695 385.225C146.818 383.563 147.689 381.626 147.505 379.632C147.391 378.395 146.875 377.226 146.291 376.137C145.019 373.788 143.346 371.645 142.463 369.124C141.581 366.603 141.707 363.474 143.678 361.675C145.294 360.197 147.689 359.99 149.877 360.128C151.894 360.265 153.877 361.171 155.642 362.156C161.36 365.331 164.626 372.103 170.688 374.556C173.026 375.495 175.593 375.702 178.034 376.355C180.475 376.996 182.961 378.246 184.084 380.503C186.308 384.949 182.182 390.427 183.741 395.149C185.127 399.331 189.184 400.924 191.464 404.694C192.461 406.345 192.691 408.247 192.53 410.161C192.255 413.404 191.785 415.787 190.227 419.397C188.943 422.377 185.15 427.717 185.15 427.717C185.059 427.808 157.693 443.577 157.452 443.714L157.441 443.726Z" fill="#A3A3A3"/>
<path d="M173.782 434.902C174.091 434.902 174.355 434.673 174.389 434.363C177.334 411.032 166.195 379.552 149.556 364.196C149.304 363.967 148.914 363.978 148.685 364.23C148.456 364.483 148.467 364.872 148.72 365.101C165.095 380.217 176.062 411.215 173.163 434.203C173.117 434.535 173.358 434.845 173.702 434.89C173.724 434.89 173.759 434.89 173.782 434.89V434.902Z" fill="white"/>
<path d="M170.929 405.038C171.112 405.038 171.307 404.958 171.421 404.786C171.628 404.511 171.57 404.133 171.295 403.927C162.116 397.039 148.09 398.243 147.494 398.288C147.15 398.323 146.909 398.621 146.932 398.965C146.967 399.308 147.276 399.549 147.597 399.526C147.734 399.515 161.749 398.323 170.55 404.912C170.665 404.992 170.791 405.038 170.917 405.038H170.929Z" fill="white"/>
<path d="M169.554 399.32C169.886 399.32 170.161 399.056 170.173 398.724C170.585 388.032 178.664 381.58 178.745 381.512C179.008 381.305 179.054 380.916 178.848 380.652C178.641 380.388 178.252 380.343 177.988 380.549C177.633 380.824 169.382 387.413 168.947 398.678C168.935 399.022 169.199 399.308 169.543 399.32C169.543 399.32 169.554 399.32 169.565 399.32H169.554Z" fill="white"/>
<path d="M321.142 424.313C300.549 412.43 286.499 391.802 282.958 368.299L274.833 314.358C271.705 293.582 260.337 274.937 243.296 262.652L232.696 254.997V261.048L238.449 265.197C255.455 277.458 266.812 296.046 269.963 316.776L278.248 371.083C281.824 394.541 295.862 415.1 316.409 426.96L321.142 429.688V424.313Z" fill="#EBEBEB"/>
<path d="M321.142 423.649C300.744 411.754 287.038 391.573 283.52 368.207L275.395 314.267C272.266 293.467 260.681 274.49 243.629 262.183L233.739 255.055L362.992 180.43L373.294 187.867C390.106 199.991 401.508 218.705 404.591 239.195L412.716 293.135C416.257 316.627 429.939 336.957 450.326 349.058L321.13 423.649H321.142Z" fill="#FAFAFA"/>
<path d="M362.97 181.117L372.974 188.337C389.659 200.381 400.981 218.946 404.041 239.286L412.166 293.227C415.684 316.57 429.149 336.808 449.215 349.058L321.142 422.995C301.054 411.169 287.566 391.206 284.082 368.127L275.957 314.186C272.806 293.238 261.14 274.112 243.962 261.713L234.794 255.101L362.958 181.106M363.027 179.742L232.686 254.997L243.286 262.652C260.326 274.949 271.694 293.582 274.823 314.358L282.947 368.299C286.488 391.814 300.549 412.43 321.131 424.313L451.473 349.058C430.88 337.174 416.83 316.547 413.289 293.043L405.164 239.103C402.036 218.327 390.668 199.682 373.627 187.397L363.027 179.742Z" fill="#E0E0E0"/>
<path d="M321.143 424.313L451.484 349.069V354.444L321.143 429.688V424.313Z" fill="#F5F5F5"/>
<path d="M257.06 250.952C252.51 252.889 252.029 256.865 255.982 259.833C259.936 262.801 266.812 263.649 271.361 261.713C275.911 259.776 276.403 255.8 272.438 252.832C268.485 249.864 261.598 249.027 257.06 250.952Z" fill="#A3A3A3"/>
<path d="M261.975 255.788C261.597 255.811 261.196 255.8 260.783 255.754C259.832 255.639 258.984 255.33 258.411 254.906C257.357 254.115 257.483 253.084 258.697 252.568C259.362 252.282 260.244 252.19 261.207 252.316C262.158 252.43 263.006 252.74 263.579 253.164C264.634 253.955 264.507 254.986 263.293 255.502C262.915 255.662 262.468 255.765 261.975 255.8V255.788Z" fill="white"/>
<path d="M268.427 255.674C266.914 255.49 265.505 255.639 264.439 256.086L263.247 256.59C261.173 257.473 260.955 259.226 262.766 260.59L263.408 261.071C265.574 261.323 268.095 261.254 269.894 260.555C271.853 259.799 273.068 258.917 273.24 257.679L272.346 257.095C271.395 256.384 269.986 255.868 268.439 255.674H268.427Z" fill="white"/>
<path d="M278.213 242.495L316.488 220.401C317.863 219.61 320.041 219.679 321.29 220.653C321.404 220.745 321.519 220.836 321.645 220.928C322.883 221.914 322.745 223.392 321.37 224.194L283.129 246.345C281.766 247.136 279.691 246.93 278.454 245.944C278.316 245.841 278.179 245.727 278.053 245.624C276.804 244.649 276.838 243.297 278.213 242.507V242.495Z" fill="#545454"/>
<path d="M286.625 251.411L305.786 240.352C306.473 239.951 306.565 239.195 305.992 238.645L305.648 238.312C305.075 237.762 304.055 237.648 303.379 238.049L284.322 249.187C283.634 249.589 283.542 250.356 284.115 250.906L284.356 251.136C284.929 251.686 285.949 251.812 286.625 251.411Z" fill="#545454"/>
<path opacity="0.2" d="M274.1 272.416L377.408 212.769C378.783 211.978 380.651 212.368 381.545 213.674C381.614 213.777 381.682 213.88 381.751 213.984C382.634 215.29 382.198 217.032 380.834 217.823L277.503 277.516C276.128 278.306 274.352 277.859 273.481 276.542C273.412 276.427 273.332 276.324 273.263 276.209C272.381 274.891 272.736 273.218 274.1 272.428V272.416Z" fill="black"/>
<path opacity="0.2" d="M280.367 282.604L383.756 222.911C385.131 222.12 386.838 222.613 387.526 224.034C387.583 224.148 387.629 224.263 387.686 224.366C388.362 225.798 387.755 227.62 386.38 228.411L282.968 288.162C281.593 288.952 280 288.414 279.324 286.97C279.267 286.844 279.209 286.718 279.152 286.592C278.476 285.159 278.992 283.383 280.367 282.592V282.604Z" fill="black"/>
<path opacity="0.2" d="M285.02 293.651L388.489 233.912C389.864 233.121 391.399 233.694 391.846 235.207C391.892 235.379 391.949 235.539 391.995 235.711C392.431 237.235 391.64 239.114 390.276 239.905L286.773 299.69C285.398 300.481 283.988 299.873 283.553 298.349C283.496 298.166 283.45 297.982 283.393 297.799C282.946 296.286 283.633 294.43 285.008 293.639L285.02 293.651Z" fill="black"/>
<path opacity="0.2" d="M288.011 305.706L348.151 270.972C349.526 270.181 350.821 270.812 351.062 272.37L351.188 273.172C351.429 274.731 350.512 276.645 349.137 277.435L288.985 312.204C287.61 312.995 286.315 312.376 286.075 310.806C286.029 310.531 285.994 310.244 285.949 309.969C285.708 308.399 286.625 306.497 288 305.706H288.011Z" fill="black"/>
<path d="M412.372 338.401L313.945 395.24C311.207 396.822 307.368 396.111 305.637 393.453C299.415 383.918 295.255 372.035 293.169 357.825L289.238 331.697C288.769 328.568 290.602 324.752 293.352 323.171L391.951 266.239C394.69 264.658 397.291 265.907 397.761 269.035L401.703 295.175C403.285 308.663 407.387 320.558 414.045 330.849C415.764 333.507 415.122 336.819 412.383 338.401H412.372Z" fill="#A3A3A3"/>
<path opacity="0.7" d="M412.372 338.401L313.945 395.24C311.207 396.822 307.368 396.111 305.637 393.453C299.415 383.918 295.255 372.035 293.169 357.825L289.238 331.697C288.769 328.568 290.602 324.752 293.352 323.171L391.951 266.239C394.69 264.658 397.291 265.907 397.761 269.035L401.703 295.175C403.285 308.663 407.387 320.558 414.045 330.849C415.764 333.507 415.122 336.819 412.383 338.401H412.372Z" fill="white"/>
<path d="M313.946 395.229L412.372 338.389C415.111 336.808 415.764 333.496 414.034 330.837C410.837 325.898 408.235 320.569 406.218 314.897L375.69 306.279L362.133 336.361L376.859 348.21L325.474 321.165L299.186 380.904C301.008 385.454 303.151 389.648 305.637 393.453C307.368 396.1 311.207 396.822 313.946 395.24V395.229Z" fill="#A3A3A3"/>
<path d="M355.223 299.896C358.844 297.811 362.294 299.541 362.935 303.77C363.577 307.998 361.148 313.121 357.538 315.206C353.917 317.292 350.467 315.562 349.825 311.333C349.184 307.104 351.613 301.982 355.223 299.896Z" fill="#A3A3A3"/>
<path d="M385.11 372.069C384.8 372.092 384.456 372.08 384.113 372.034C383.31 371.931 382.611 371.679 382.13 371.324C381.248 370.659 381.351 369.8 382.371 369.376C382.921 369.135 383.666 369.066 384.468 369.158C385.27 369.261 385.969 369.513 386.45 369.869C387.333 370.533 387.23 371.393 386.21 371.817C385.889 371.954 385.522 372.034 385.11 372.057V372.069Z" fill="#A3A3A3"/>
<path d="M390.507 371.989C389.247 371.828 388.066 371.954 387.173 372.332L386.176 372.756C384.445 373.501 384.262 374.968 385.774 376.091L386.302 376.492C388.112 376.698 390.221 376.641 391.722 376.068C393.361 375.438 394.369 374.705 394.518 373.662L393.773 373.169C392.983 372.573 391.802 372.138 390.507 371.989Z" fill="#A3A3A3"/>
<path d="M392.398 367.668L388.72 367.852L387.711 368.723C387.539 368.872 387.551 369.135 387.723 369.273L388.72 370.063L392.467 369.914L392.398 367.68V367.668ZM388.468 369.227C388.319 369.227 388.193 369.101 388.193 368.963C388.193 368.826 388.319 368.688 388.468 368.688C388.617 368.688 388.743 368.814 388.743 368.963C388.743 369.112 388.617 369.227 388.468 369.227Z" fill="#A3A3A3"/>
<path d="M411.501 361.148C411.455 361.709 410.779 362.179 410.378 362.408C409.667 362.821 408.762 363.107 407.788 363.245C406.894 362.225 408.567 360.392 411.501 361.148Z" fill="#A3A3A3"/>
<path d="M411.639 357.527C408.934 355.292 404.694 354.467 401.703 356.174C398.712 357.882 398.139 361.492 400.878 363.726C403.617 365.972 408.522 366.007 411.467 364.288C414.424 362.569 414.332 359.761 411.627 357.527H411.639ZM407.101 357.057C407.582 356.793 408.247 356.919 408.636 357.297C409.026 357.676 408.98 358.18 408.499 358.455C408.018 358.73 407.296 358.673 406.906 358.283C406.516 357.893 406.631 357.332 407.101 357.068V357.057ZM401.669 361.217C401.279 360.827 401.394 360.265 401.864 360.002C402.334 359.738 403.01 359.864 403.399 360.243C403.789 360.621 403.743 361.125 403.262 361.4C402.792 361.675 402.059 361.618 401.669 361.228V361.217ZM410.665 362.89C409.576 363.52 408.075 363.887 406.528 363.887C405.176 363.887 403.927 363.612 402.918 363.119L410.607 358.764C411.593 359.578 412.12 360.449 412.051 361.182C411.994 361.961 411.261 362.534 410.653 362.89H410.665Z" fill="#A3A3A3"/>
<path d="M427.808 347.465C427.567 347.075 427.235 346.686 426.788 346.319C424.897 344.761 421.929 344.176 419.844 345.379C417.758 346.583 417.357 349.092 419.271 350.662C419.5 350.846 419.763 351.006 420.038 351.167C420.038 351.167 420.061 351.178 420.073 351.178C423.488 353.138 429.756 353.378 429.756 353.378C429.756 353.378 429.779 350.135 427.808 347.454V347.465ZM424.828 349.631C423.843 350.204 422.204 350.192 421.287 349.448C420.371 348.703 420.565 347.488 421.562 346.926C422.559 346.353 423.98 346.629 424.886 347.373C425.791 348.118 425.814 349.058 424.828 349.631Z" fill="#A3A3A3"/>
</svg>
