<svg width="542" height="452" viewBox="0 0 542 452" fill="none" xmlns="http://www.w3.org/2000/svg">
<path d="M89.9889 111.249H8.68848V262.452H89.9889V111.249Z" fill="#EBEBEB"/>
<path d="M93.9206 107.076H4.74707V111.249H93.9206V107.076Z" fill="#DBDBDB"/>
<path d="M121.963 107.076H93.9209V111.249H121.963V107.076Z" fill="#EBEBEB"/>
<path d="M117.524 111.249H89.9805V262.452H117.524V111.249Z" fill="#DBDBDB"/>
<path d="M81.1341 127.37H17.542V163.219H81.1341V127.37Z" stroke="#C7C7C7" stroke-width="0.207844" stroke-miterlimit="10"/>
<path d="M52.8505 137.803H40.4297V144.945H52.8505V137.803Z" fill="#C7C7C7"/>
<path d="M56.5253 138.344H44.1045V144.405H56.5253V138.344Z" stroke="#C7C7C7" stroke-width="0.207844" stroke-miterlimit="10"/>
<path d="M81.1341 172.663H17.542V208.512H81.1341V172.663Z" stroke="#C7C7C7" stroke-width="0.207844" stroke-miterlimit="10"/>
<path d="M52.8505 183.097H40.4297V190.238H52.8505V183.097Z" fill="#C7C7C7"/>
<path d="M56.5253 183.637H44.1045V189.698H56.5253V183.637Z" stroke="#C7C7C7" stroke-width="0.207844" stroke-miterlimit="10"/>
<path d="M81.1341 217.957H17.542V253.806H81.1341V217.957Z" stroke="#C7C7C7" stroke-width="0.207844" stroke-miterlimit="10"/>
<path d="M52.8505 228.39H40.4297V235.532H52.8505V228.39Z" fill="#C7C7C7"/>
<path d="M56.5253 228.931H44.1045V234.992H56.5253V228.931Z" stroke="#C7C7C7" stroke-width="0.207844" stroke-miterlimit="10"/>
<path d="M505.269 155.312H423.969V262.452H505.269V155.312Z" fill="#EBEBEB"/>
<path d="M509.21 151.139H420.036V155.312H509.21V151.139Z" fill="#DBDBDB"/>
<path d="M537.252 151.139H509.21V155.312H537.252V151.139Z" fill="#EBEBEB"/>
<path d="M532.813 155.312H505.27V262.452H532.813V155.312Z" fill="#DBDBDB"/>
<path d="M496.423 171.433H432.831V207.282H496.423V171.433Z" fill="#A6A6A6"/>
<path d="M490.229 162.246H441.818V197.338H490.229V162.246Z" fill="#C7C7C7"/>
<path d="M458.92 158.613H441.818V162.246H459.901L458.92 158.613Z" fill="#C7C7C7"/>
<path d="M490.097 197.338H441.686L437.953 165.156H486.364L490.097 197.338Z" fill="#A6A6A6"/>
<path d="M454.672 161.83H437.57L437.953 165.156H456.043L454.672 161.83Z" fill="#A6A6A6"/>
<path d="M465.787 171.433H402.195V207.282H465.787V171.433Z" fill="#EBEBEB" stroke="#C7C7C7" stroke-width="0.207844" stroke-miterlimit="10"/>
<path d="M437.504 181.867H425.083V189.008H437.504V181.867Z" fill="#C7C7C7"/>
<path d="M441.179 182.407H428.758V188.468H441.179V182.407Z" stroke="#C7C7C7" stroke-width="0.207844" stroke-miterlimit="10"/>
<path d="M496.415 176.803H465.937V207.282H496.415V176.803Z" fill="#DBDBDB"/>
<path d="M496.423 216.726H432.831V252.575H496.423V216.726Z" stroke="#C7C7C7" stroke-width="0.207844" stroke-miterlimit="10"/>
<path d="M468.14 227.16H455.719V234.302H468.14V227.16Z" fill="#C7C7C7"/>
<path d="M471.814 227.7H459.394V233.761H471.814V227.7Z" stroke="#C7C7C7" stroke-width="0.207844" stroke-miterlimit="10"/>
<path d="M0 262.452C173.617 261.945 368.383 261.937 542 262.452C368.383 262.967 173.617 262.959 0 262.452Z" fill="#2E2E2E"/>
<path d="M271.004 451.404C402.663 451.404 509.394 414.281 509.394 368.488C509.394 322.695 402.663 285.573 271.004 285.573C139.346 285.573 32.6152 322.695 32.6152 368.488C32.6152 414.281 139.346 451.404 271.004 451.404Z" fill="#FAFAFA"/>
<path d="M250.868 72.291H154.711V195.734H250.868V72.291Z" fill="#EBEBEB"/>
<path d="M250.877 195.734C226.775 195.809 178.555 195.992 154.453 196C154.312 195.942 154.412 72.4323 154.304 72.2993V71.8919H154.711L250.868 71.9834H251.184V72.2993C251.134 103.069 251.018 164.981 250.868 195.742L250.877 195.734ZM250.877 195.734C250.727 164.965 250.61 103.052 250.561 72.291C252.498 73.0558 154.295 72.4905 154.711 72.6983L155.118 72.291C155.027 72.2245 155.343 196.84 154.711 195.468C178.68 195.468 226.908 195.651 250.868 195.726L250.877 195.734Z" fill="#DBDBDB"/>
<path d="M165.236 98.6706L202.798 98.5791L240.36 98.6706L202.798 98.7704L165.236 98.6706Z" fill="#C7C7C7"/>
<path d="M165.236 101.738L202.798 101.639L240.36 101.738L202.798 101.83L165.236 101.738Z" fill="#C7C7C7"/>
<path d="M165.236 104.798L202.798 104.706L240.36 104.798L202.798 104.898L165.236 104.798Z" fill="#C7C7C7"/>
<path d="M165.236 107.866L202.798 107.766L240.36 107.866L202.798 107.957L165.236 107.866Z" fill="#C7C7C7"/>
<path d="M165.236 110.925L202.798 110.834L240.36 110.925L202.798 111.025L165.236 110.925Z" fill="#C7C7C7"/>
<path d="M165.236 113.993L202.798 113.893L240.36 113.993L202.798 114.084L165.236 113.993Z" fill="#C7C7C7"/>
<path d="M165.236 117.052L202.798 116.961L240.36 117.052L202.798 117.152L165.236 117.052Z" fill="#C7C7C7"/>
<path d="M165.236 120.12L202.798 120.02L240.36 120.12L202.798 120.212L165.236 120.12Z" fill="#C7C7C7"/>
<path d="M165.236 123.18L202.798 123.088L240.36 123.18L202.798 123.279L165.236 123.18Z" fill="#C7C7C7"/>
<path d="M165.236 126.247L202.798 126.148L240.36 126.247L202.798 126.339L165.236 126.247Z" fill="#C7C7C7"/>
<path d="M165.236 129.307L202.798 129.215L240.36 129.307L202.798 129.398L165.236 129.307Z" fill="#C7C7C7"/>
<path d="M165.236 132.375L202.798 132.275L240.36 132.375L202.798 132.466L165.236 132.375Z" fill="#C7C7C7"/>
<path d="M165.236 135.434L202.798 135.343L240.36 135.434L202.798 135.526L165.236 135.434Z" fill="#C7C7C7"/>
<path d="M165.236 138.494L202.798 138.402L240.36 138.494L202.798 138.593L165.236 138.494Z" fill="#C7C7C7"/>
<path d="M165.236 141.561L202.798 141.47L240.36 141.561L202.798 141.653L165.236 141.561Z" fill="#C7C7C7"/>
<path d="M178.871 132.275H173.176V145.128H178.871V132.275Z" fill="#C7C7C7"/>
<path d="M189.437 125.416H183.742V145.128H189.437V125.416Z" fill="#C7C7C7"/>
<path d="M200.005 117.742H194.31V145.136H200.005V117.742Z" fill="#C7C7C7"/>
<path d="M210.58 114.442H204.885V145.128H210.58V114.442Z" fill="#C7C7C7"/>
<path d="M221.146 108.564H215.451V145.128H221.146V108.564Z" fill="#C7C7C7"/>
<path d="M231.713 102.761H226.019V145.128H231.713V102.761Z" fill="#C7C7C7"/>
<path d="M167.273 96.5256L167.423 108.68L167.522 120.835C167.589 128.933 167.614 137.039 167.622 145.136L167.273 144.787L185.547 144.77L203.82 144.812L222.094 144.928L240.368 145.136L222.094 145.344L203.82 145.461L185.547 145.502L167.273 145.485H166.924V145.136C166.94 137.039 166.957 128.933 167.024 120.835L167.123 108.68L167.273 96.5256Z" fill="#C7C7C7"/>
<path d="M178.871 147.697H173.176V148.212H178.871V147.697Z" fill="#C7C7C7"/>
<path d="M189.437 147.697H183.742V148.212H189.437V147.697Z" fill="#C7C7C7"/>
<path d="M200.005 147.697H194.31V148.212H200.005V147.697Z" fill="#C7C7C7"/>
<path d="M210.58 147.697H204.885V148.212H210.58V147.697Z" fill="#C7C7C7"/>
<path d="M221.146 147.697H215.451V148.212H221.146V147.697Z" fill="#C7C7C7"/>
<path d="M231.713 147.697H226.019V148.212H231.713V147.697Z" fill="#C7C7C7"/>
<path d="M173.816 133.896C176.602 133.854 179.378 133.638 182.138 133.264C184.899 132.907 187.634 132.425 190.336 131.784C195.732 130.504 201.036 128.766 205.991 126.272C210.971 123.853 215.618 120.735 219.667 116.961L220.44 116.263L221.172 115.523L222.627 114.034C223.524 112.979 224.489 111.973 225.304 110.85C227.066 108.705 228.529 106.328 229.968 103.942L230.009 103.966C227.474 108.93 224.181 113.552 220.108 117.426C218.121 119.405 215.884 121.126 213.598 122.739C211.303 124.352 208.859 125.749 206.348 126.996C201.31 129.465 195.948 131.236 190.477 132.383C184.998 133.505 179.403 134.121 173.825 133.888L173.816 133.896Z" fill="#2E2E2E"/>
<path d="M231.573 107.916L230.783 108.115L229.818 104.224L226.011 105.471L225.753 104.698L230.392 103.177L231.573 107.916Z" fill="#2E2E2E"/>
<path d="M163.624 167.417H241.956V164.25H163.624V167.417Z" fill="#DBDBDB"/>
<path d="M163.623 175.415H207.728V172.247H163.623V175.415Z" fill="#DBDBDB"/>
<path d="M180.742 89.1014H224.847V85.9339H180.742V89.1014Z" fill="#DBDBDB"/>
<path d="M232.694 225.83L138.507 245.184L113.657 124.269L183.593 109.902L212.583 127.952L232.694 225.83Z" fill="#C7C7C7"/>
<path opacity="0.8" d="M232.694 225.83L138.507 245.184L113.657 124.269L183.593 109.902L212.583 127.952L232.694 225.83Z" fill="white"/>
<path d="M183.593 109.902L212.583 127.952L188.332 132.94L183.593 109.902Z" fill="#C7C7C7"/>
<path d="M127.655 145.773L180.027 135.013L179.39 131.91L127.018 142.67L127.655 145.773Z" fill="#DBDBDB"/>
<path d="M129.27 153.607L181.642 142.847L181.004 139.745L128.632 150.505L129.27 153.607Z" fill="#DBDBDB"/>
<path d="M130.877 161.45L183.249 150.69L182.612 147.587L130.24 158.347L130.877 161.45Z" fill="#DBDBDB"/>
<path d="M132.493 169.28L209.223 153.516L208.585 150.413L131.855 166.178L132.493 169.28Z" fill="#DBDBDB"/>
<path d="M134.099 177.115L210.829 161.35L210.192 158.248L133.462 174.012L134.099 177.115Z" fill="#DBDBDB"/>
<path d="M135.716 184.956L212.445 169.191L211.808 166.088L135.078 181.853L135.716 184.956Z" fill="#DBDBDB"/>
<path d="M137.321 192.79L214.051 177.026L213.413 173.923L136.684 189.687L137.321 192.79Z" fill="#DBDBDB"/>
<path d="M138.927 200.624L215.657 184.86L215.02 181.757L138.29 197.522L138.927 200.624Z" fill="#DBDBDB"/>
<path d="M140.544 208.457L217.273 192.693L216.636 189.59L139.906 205.354L140.544 208.457Z" fill="#DBDBDB"/>
<path d="M142.158 216.291L218.888 200.527L218.25 197.424L141.521 213.188L142.158 216.291Z" fill="#DBDBDB"/>
<path d="M143.765 224.134L220.495 208.369L219.858 205.267L143.128 221.031L143.765 224.134Z" fill="#DBDBDB"/>
<path d="M145.38 231.966L222.109 216.202L221.472 213.099L144.742 228.864L145.38 231.966Z" fill="#DBDBDB"/>
<path d="M425.839 137.945C390.597 140.505 355.43 143.066 320.329 145.627C308.316 99.9509 321.186 54.275 311.824 8.59913C347.066 6.03849 382.242 3.47785 417.334 0.917206C429.339 46.5931 416.461 92.269 425.839 137.945Z" fill="#EBEBEB"/>
<path d="M425.839 137.945C425.515 137.961 320.312 145.885 320.146 145.901C320.445 145.901 317.386 137.321 316.022 124.46C314.393 111.598 314.459 94.4472 314.742 77.2959C315.008 60.1445 315.49 42.9849 314.41 30.1152C313.578 17.2454 311.184 8.64901 311.408 8.62406L311.325 8.20838C311.458 8.20006 311.6 8.19175 311.733 8.17512C312.098 8.17512 417.326 0.60127 417.542 0.592957C417.268 0.617898 420.302 9.20603 421.624 22.0758C423.212 34.9455 423.071 52.0885 422.73 69.2398C422.397 86.3911 421.849 103.542 422.888 116.42C423.678 129.299 426.047 137.895 425.839 137.937V137.945ZM425.839 137.945C416.37 92.2773 429.14 46.6014 417.043 0.933821C419.122 1.51579 311.525 8.84022 311.907 9.0065L312.231 8.56587C321.551 54.2501 308.623 99.9259 320.578 145.61C318.774 145.145 426.147 138.053 425.831 137.945H425.839Z" fill="#DBDBDB"/>
<path d="M324.561 28.1698C344.322 26.7481 364.068 25.3265 383.804 23.8965C383.929 25.0687 384.046 26.241 384.154 27.4132C364.4 28.8349 344.622 30.2565 324.835 31.6865C324.752 30.5142 324.66 29.342 324.561 28.1698Z" fill="#DBDBDB"/>
<path d="M325.151 37.0489C344.971 35.6272 364.775 34.2056 384.57 32.7756C384.645 33.9478 384.711 35.1201 384.769 36.2923C364.958 37.714 345.129 39.1356 325.293 40.5656C325.251 39.3934 325.21 38.2211 325.151 37.0489Z" fill="#DBDBDB"/>
<path d="M325.426 45.9363C345.287 44.5146 365.141 43.093 384.986 41.663C385.019 42.8353 385.052 44.0075 385.069 45.1798C365.207 46.6014 345.337 48.0231 325.467 49.453C325.467 48.2808 325.451 47.1085 325.426 45.9363Z" fill="#DBDBDB"/>
<path d="M325.467 54.8154C354.615 52.7287 383.755 50.6419 412.87 48.5552C412.878 49.7274 412.886 50.8996 412.886 52.0719C383.746 54.1586 354.598 56.2454 325.434 58.3322C325.45 57.1599 325.459 55.9877 325.467 54.8154Z" fill="#DBDBDB"/>
<path d="M325.342 63.6945C354.524 61.6078 383.688 59.521 412.853 57.4343C412.837 58.6065 412.82 59.7787 412.803 60.951C383.63 63.0377 354.457 65.1245 325.268 67.2113C325.293 66.039 325.317 64.8668 325.342 63.6945Z" fill="#DBDBDB"/>
<path d="M325.143 72.5737C354.332 70.4869 383.522 68.4001 412.703 66.3134C412.678 67.4856 412.654 68.6579 412.62 69.8301C383.431 71.9169 354.241 74.0036 325.06 76.0904C325.085 74.9181 325.118 73.7459 325.143 72.5737Z" fill="#DBDBDB"/>
<path d="M324.935 81.4611C354.116 79.3743 383.297 77.2876 412.487 75.2008C412.462 76.373 412.429 77.5453 412.404 78.7175C383.223 80.8043 354.041 82.891 324.868 84.9778C324.885 83.8056 324.91 82.6333 324.935 81.4611Z" fill="#DBDBDB"/>
<path d="M324.793 90.3402C353.95 88.2534 383.115 86.1667 412.288 84.0799C412.263 85.2522 412.246 86.4244 412.229 87.5966C383.065 89.6834 353.908 91.7702 324.769 93.8569C324.769 92.6847 324.769 91.5124 324.785 90.3402H324.793Z" fill="#DBDBDB"/>
<path d="M324.802 99.2193C353.917 97.1325 383.04 95.0458 412.188 92.959C412.188 94.1313 412.188 95.3035 412.188 96.4757C383.065 98.5625 353.95 100.649 324.86 102.736C324.835 101.564 324.81 100.392 324.802 99.2193Z" fill="#DBDBDB"/>
<path d="M325.043 108.107C354.091 106.02 383.165 103.933 412.263 101.846C412.288 103.019 412.313 104.191 412.354 105.363C383.281 107.45 354.241 109.537 325.218 111.623C325.151 110.451 325.093 109.279 325.043 108.107Z" fill="#DBDBDB"/>
<path d="M325.575 116.986C354.54 114.899 383.547 112.812 412.57 110.726C412.628 111.898 412.703 113.07 412.778 114.242C383.779 116.329 354.814 118.416 325.882 120.503C325.766 119.33 325.666 118.158 325.566 116.986H325.575Z" fill="#DBDBDB"/>
<path d="M326.489 125.865C355.363 123.778 384.27 121.691 413.21 119.605C413.318 120.777 413.443 121.949 413.568 123.121C384.661 125.208 355.795 127.295 326.971 129.382C326.797 128.209 326.639 127.037 326.489 125.865Z" fill="#DBDBDB"/>
<path d="M410.841 186.838C374.46 180.669 338.528 174.501 302.937 168.332C307.542 123.229 330.355 78.1189 329.191 33.0167C365.573 39.1855 401.505 45.3543 437.096 51.5232C432.49 96.6254 409.677 141.736 410.841 186.838Z" fill="#C7C7C7"/>
<path opacity="0.8" d="M410.841 186.838C374.46 180.669 338.528 174.501 302.937 168.332C307.542 123.229 330.355 78.1189 329.191 33.0167C365.573 39.1855 401.505 45.3543 437.096 51.5232C432.49 96.6254 409.677 141.736 410.841 186.838Z" fill="white"/>
<path d="M338.137 54.7572C357.858 58.1908 377.487 61.616 397.032 65.0496C396.833 66.2053 396.625 67.3692 396.4 68.5248C376.913 65.0912 357.342 61.6659 337.688 58.2323C337.846 57.0767 338.004 55.9128 338.146 54.7572H338.137Z" fill="#DBDBDB"/>
<path d="M336.874 63.5282C356.444 66.9618 375.923 70.3871 395.344 73.8207C395.103 74.9763 394.854 76.1402 394.596 77.2958C375.217 73.8623 355.787 70.437 336.267 67.0034C336.474 65.8478 336.682 64.6838 336.874 63.5282Z" fill="#DBDBDB"/>
<path d="M335.245 72.2993C354.682 75.7328 374.053 79.1581 393.375 82.5917C393.1 83.7473 392.818 84.9113 392.535 86.0669C373.247 82.6333 353.909 79.208 334.521 75.7744C334.771 74.6188 335.02 73.4549 335.253 72.2993H335.245Z" fill="#DBDBDB"/>
<path d="M333.324 81.0703C361.657 86.1001 389.874 91.1217 418.041 96.1515C417.734 97.3071 417.418 98.471 417.11 99.6266C388.968 94.5968 360.784 89.5753 332.501 84.5455C332.784 83.3898 333.058 82.2259 333.332 81.0703H333.324Z" fill="#DBDBDB"/>
<path d="M331.17 89.8413C359.387 94.8712 387.538 99.8927 415.655 104.923C415.339 106.078 415.015 107.242 414.699 108.398C386.582 103.368 358.456 98.3463 330.272 93.3165C330.58 92.1609 330.879 90.9969 331.17 89.8413Z" fill="#DBDBDB"/>
<path d="M328.859 98.6124C357.009 103.642 385.118 108.664 413.235 113.694C412.919 114.849 412.595 116.013 412.279 117.169C384.146 112.139 356.045 107.117 327.911 102.088C328.227 100.932 328.543 99.768 328.859 98.6124Z" fill="#DBDBDB"/>
<path d="M326.457 107.383C354.574 112.413 382.683 117.435 410.842 122.465C410.534 123.62 410.227 124.784 409.919 125.94C381.735 120.91 353.618 115.888 325.501 110.859C325.817 109.703 326.141 108.539 326.457 107.383Z" fill="#DBDBDB"/>
<path d="M324.038 116.154C352.163 121.184 380.314 126.206 408.547 131.236C408.256 132.391 407.965 133.555 407.683 134.711C379.407 129.681 351.232 124.659 323.09 119.63C323.406 118.474 323.722 117.31 324.038 116.154Z" fill="#DBDBDB"/>
<path d="M321.668 124.917C349.843 129.947 378.077 134.968 406.427 139.998C406.161 141.154 405.903 142.318 405.645 143.473C377.237 138.444 348.962 133.422 320.762 128.392C321.061 127.237 321.369 126.073 321.676 124.917H321.668Z" fill="#DBDBDB"/>
<path d="M319.415 133.688C347.674 138.718 376.032 143.74 404.532 148.769C404.299 149.925 404.075 151.089 403.867 152.245C375.292 147.215 346.876 142.193 318.567 137.163C318.842 136.008 319.124 134.844 319.415 133.688Z" fill="#DBDBDB"/>
<path d="M317.353 142.459C345.745 147.489 374.261 152.511 402.96 157.54C402.777 158.696 402.594 159.86 402.436 161.016C373.646 155.986 345.063 150.964 316.613 145.934C316.854 144.779 317.104 143.615 317.362 142.459H317.353Z" fill="#DBDBDB"/>
<path d="M315.541 151.23C344.098 156.26 372.814 161.282 401.746 166.311C401.613 167.467 401.497 168.631 401.389 169.787C372.349 164.757 343.55 159.735 314.917 154.705C315.117 153.55 315.333 152.386 315.549 151.23H315.541Z" fill="#DBDBDB"/>
<path d="M401.781 205.791H137.995V397H401.781V205.791Z" fill="#C7C7C7"/>
<path d="M231.189 185.986H137.995V205.791H236.552L231.189 185.986Z" fill="#C7C7C7"/>
<g opacity="0.1">
<path d="M401.781 205.791H137.995V397H401.781V205.791Z" fill="black"/>
<path d="M231.189 185.986H137.995V205.791H236.552L231.189 185.986Z" fill="black"/>
</g>
<path d="M399.98 325.447C348.479 310.722 298.119 296.15 248.547 281.731C261.013 223.456 295.943 166.369 298.319 107.235C349.773 121.113 400.098 135.014 449.635 148.962C437.004 208.179 402.109 265.842 399.98 325.447Z" fill="#EBEBEB"/>
<path d="M399.981 325.447C398.711 325.282 247.665 282.002 248.124 281.955C246.795 281.825 259.45 238.298 276.409 194.924C294.474 151.503 299.025 107.211 297.72 107.058L297.743 106.517C297.943 106.576 298.143 106.623 298.343 106.682C299.707 106.87 450.541 148.598 450.118 148.68C451.482 148.868 438.522 193.101 421.433 236.981C403.227 280.673 398.64 325.188 399.969 325.435L399.981 325.447ZM399.981 325.447C401.969 265.795 436.757 208.096 449.224 148.845C452.411 150.538 298.673 107.411 298.296 107.776L298.919 107.399C296.414 166.521 261.426 223.585 248.912 281.849C245.995 280.402 399.499 325.705 399.981 325.458V325.447Z" fill="#DBDBDB"/>
<path d="M391.819 217.176C384.162 237.628 360.958 249.024 339.306 242.626C317.548 236.24 306.305 214.635 313.785 194.289C321.194 173.919 343.575 162.382 365.509 168.65C387.526 174.942 399.581 196.7 391.819 217.176Z" fill="#545454"/>
<path d="M352.831 205.697C343.952 215.835 334.967 225.949 326.205 236.075C312.997 226.185 308.246 209.531 313.785 194.289C321.148 174.06 343.728 162.429 365.51 168.65C387.385 174.907 399.522 196.841 391.819 217.176C378.823 213.342 365.827 209.519 352.82 205.709L352.831 205.697Z" fill="#DBDBDB"/>
<path d="M352.831 205.697C360.57 216.105 368.226 226.514 376.047 236.958C365.31 244.179 351.726 246.284 339.306 242.626C317.69 236.287 306.352 214.494 313.785 194.289C321.147 174.06 343.728 162.429 365.51 168.65C387.385 174.907 399.522 196.841 391.819 217.176C378.823 213.342 365.827 209.519 352.82 205.709L352.831 205.697Z" fill="#DBDBDB"/>
<path d="M352.832 205.697C339.201 207.979 325.558 210.249 311.916 212.518C310.998 206.438 311.657 200.181 313.797 194.277C321.16 174.048 343.741 162.417 365.522 168.638C387.397 174.895 399.534 196.829 391.831 217.164C378.835 213.33 365.839 209.508 352.832 205.697Z" fill="#C7C7C7"/>
<path d="M309.975 132.885C330.874 138.695 351.62 144.505 372.249 150.327C371.884 151.832 371.52 153.349 371.131 154.855C350.585 149.033 329.933 143.211 309.128 137.401C309.434 135.896 309.716 134.391 309.986 132.873L309.975 132.885Z" fill="#DBDBDB"/>
<path d="M305.246 249.389C332.791 257.504 360.464 265.654 388.326 273.851C387.902 275.357 387.502 276.862 387.102 278.368C359.135 270.159 331.379 261.996 303.776 253.858C304.259 252.364 304.741 250.871 305.246 249.389Z" fill="#DBDBDB"/>
<path d="M301.648 260.691C329.369 268.841 357.266 277.027 385.398 285.271C385.045 286.777 384.704 288.294 384.375 289.799C356.125 281.543 328.134 273.346 300.319 265.172C300.754 263.678 301.19 262.185 301.648 260.691Z" fill="#DBDBDB"/>
<path d="M298.426 272.005C326.382 280.191 354.549 288.423 382.987 296.703C382.705 298.22 382.446 299.725 382.199 301.243C353.62 292.939 325.335 284.695 297.273 276.486C297.65 274.992 298.026 273.487 298.426 271.993V272.005Z" fill="#DBDBDB"/>
<path d="M288.97 249.506C285.629 248.518 282.289 247.542 278.949 246.566C279.443 245.073 279.961 243.591 280.466 242.109C283.795 243.085 287.135 244.073 290.463 245.049C289.957 246.543 289.452 248.025 288.97 249.518V249.506Z" fill="#C7C7C7"/>
<path d="M285.406 260.797C282.043 259.809 278.679 258.821 275.315 257.845C275.774 256.351 276.245 254.869 276.715 253.376C280.067 254.364 283.419 255.34 286.771 256.328C286.3 257.821 285.841 259.315 285.395 260.797H285.406Z" fill="#545454"/>
<path d="M282.219 272.099C278.82 271.111 275.433 270.123 272.046 269.124C272.446 267.63 272.869 266.136 273.293 264.643C276.668 265.631 280.043 266.618 283.43 267.606C283.019 269.1 282.607 270.594 282.219 272.087V272.099Z" fill="#DBDBDB"/>
<path d="M401.075 397H137.301L116.955 221.657H380.729L401.075 397Z" fill="#777777"/>
<path d="M208.043 203.498H114.85L116.955 221.657H215.511L208.043 203.498Z" fill="#777777"/>
<path d="M297.332 87.4411C296.532 84.3127 296.52 81.1725 297.332 78.0441C298.143 81.1608 298.132 84.3127 297.332 87.4411Z" fill="#2E2E2E"/>
<path d="M287.77 90.2049C285.512 87.8998 283.936 85.183 283.077 82.0664C285.335 84.3597 286.911 87.1 287.77 90.2049Z" fill="#2E2E2E"/>
<path d="M280.866 97.379C277.761 96.5205 275.033 94.9445 272.728 92.6864C275.832 93.545 278.561 95.1209 280.866 97.379Z" fill="#2E2E2E"/>
<path d="M278.479 107.047C275.362 107.846 272.21 107.858 269.082 107.047C272.199 106.235 275.351 106.247 278.479 107.047Z" fill="#2E2E2E"/>
<path d="M281.242 116.62C278.937 118.878 276.22 120.454 273.104 121.313C275.397 119.054 278.137 117.478 281.242 116.62Z" fill="#2E2E2E"/>
<path d="M288.429 123.512C287.57 126.617 285.994 129.345 283.736 131.65C284.595 128.545 286.171 125.817 288.429 123.512Z" fill="#2E2E2E"/>
<path d="M298.096 125.899C298.896 129.028 298.908 132.168 298.096 135.296C297.285 132.18 297.297 129.028 298.096 125.899Z" fill="#2E2E2E"/>
<path d="M307.658 123.135C309.916 125.441 311.492 128.157 312.351 131.274C310.093 128.981 308.517 126.24 307.658 123.135Z" fill="#2E2E2E"/>
<path d="M314.562 115.961C317.666 116.82 320.395 118.396 322.7 120.654C319.595 119.795 316.867 118.219 314.562 115.961Z" fill="#2E2E2E"/>
<path d="M316.948 106.294C320.077 105.494 323.217 105.482 326.345 106.294C323.229 107.105 320.077 107.094 316.948 106.294Z" fill="#2E2E2E"/>
<path d="M314.185 96.7204C316.49 94.4623 319.206 92.8863 322.323 92.0278C320.03 94.2859 317.289 95.8619 314.185 96.7204Z" fill="#2E2E2E"/>
<path d="M306.999 89.8285C307.858 86.7237 309.434 83.9951 311.692 81.69C310.833 84.7949 309.257 87.5234 306.999 89.8285Z" fill="#2E2E2E"/>
<path d="M296.395 257.998H339.119C339.119 257.998 341.239 253.633 341.239 249.493V215.273H298.515V249.933C298.515 253.4 296.395 257.989 296.395 257.989V257.998Z" fill="#545454"/>
<path d="M303.744 225.366C308.766 224.95 313.795 224.859 318.817 224.834C323.839 224.851 328.868 224.95 333.89 225.366C328.868 225.782 323.839 225.873 318.817 225.898C313.795 225.873 308.766 225.782 303.744 225.366Z" fill="white"/>
<path d="M303.744 231.003C308.267 230.587 312.781 230.496 317.304 230.471C321.827 230.487 326.341 230.587 330.864 231.003C326.341 231.418 321.827 231.51 317.304 231.535C312.781 231.51 308.267 231.418 303.744 231.003Z" fill="white"/>
<path d="M303.744 236.631C307.693 236.215 311.651 236.124 315.6 236.099C319.549 236.116 323.506 236.215 327.455 236.631C323.506 237.047 319.549 237.138 315.6 237.163C311.651 237.138 307.693 237.047 303.744 236.631Z" fill="white"/>
<path d="M303.744 242.268C308.766 241.852 313.795 241.761 318.817 241.736C323.839 241.752 328.868 241.852 333.89 242.268C328.868 242.684 323.839 242.775 318.817 242.8C313.795 242.775 308.766 242.684 303.744 242.268Z" fill="white"/>
</svg>
